<?xml version="1.0" encoding="UTF-8"?>
<svg width="193px" height="160px" viewBox="0 0 193 160" version="1.1" xmlns="http://www.w3.org/2000/svg" xmlns:xlink="http://www.w3.org/1999/xlink">
    <!-- Generator: Sketch 43.2 (39069) - http://www.bohemiancoding.com/sketch -->
    <title>Group 25</title>
    <desc>Created with Sketch.</desc>
    <defs>
        <polygon id="path-1" points="0 130.650124 192.146894 130.650124 192.146894 0 0 0"></polygon>
    </defs>
    <g id="Design-1" stroke="none" stroke-width="1" fill="none" fill-rule="evenodd">
        <rect id="Rectangle-1-Copy-4" fill="#FBF9E4" x="-704" y="-866" width="960" height="2083"></rect>
        <g id="Group-25">
            <circle id="Oval-1-Copy-5" fill="#FFFEF3" cx="94" cy="80" r="80"></circle>
            <g id="Page-1" transform="translate(0.000000, 21.000000)">
                <path d="M113.862189,57.2108733 C113.699457,57.2108733 113.535096,57.1693764 113.385382,57.083128 C112.969599,56.8447242 112.794661,56.3345565 112.975295,55.8902957 L117.686413,44.3509043 L111.873593,45.6316124 C111.53104,45.7064696 111.178724,45.5901155 110.948457,45.3281155 C110.718189,45.0669292 110.648214,44.7007801 110.765382,44.3720596 L117.192519,26.4535379 C117.370711,25.9555752 117.919121,25.6960161 118.417898,25.8750224 C118.91586,26.0540286 119.175419,26.6024385 118.996413,27.1004012 L113.154301,43.3867118 L119.057438,42.0872894 C119.4065,42.0099913 119.766953,42.1336683 119.996407,42.406246 C120.22586,42.6780099 120.285258,43.0555503 120.151003,43.3850845 L117.439059,50.0270286 L127.272196,37.2329665 L122.101357,38.6698981 C121.746599,38.7699789 121.367432,38.6560658 121.12496,38.3786062 C120.881674,38.1019602 120.819022,37.7105876 120.963854,37.3721031 L126.951612,23.2859416 C127.158283,22.7985565 127.722966,22.5723578 128.20791,22.7790286 C128.694481,22.9856994 128.921494,23.5487553 128.714823,24.0353267 L123.504929,36.2915565 L129.524419,34.6186621 C129.91986,34.5055627 130.34378,34.6642273 130.57486,35.0059665 C130.805941,35.3477056 130.791295,35.7984758 130.540686,36.1255689 L114.622152,56.8365876 C114.435009,57.0798733 114.15104,57.2108733 113.862189,57.2108733 L113.862189,57.2108733 Z" id="Fill-1" fill="#2F5266"></path>
                <path d="M143.330517,74.7129615 C143.184058,74.7129615 143.035971,74.6787876 142.899275,74.6104398 L134.185741,70.2125826 C129.599114,71.6128994 124.774896,72.3224149 119.842461,72.3224149 C111.488567,72.3224149 103.518722,70.3102224 96.7563559,66.4973901 L86.2779832,71.7870236 C85.9142752,71.9700981 85.4757099,71.9041913 85.1827907,71.6226634 C84.8890578,71.3411354 84.8052503,70.9050112 84.9736789,70.5356075 L89.5798342,60.3940919 C89.7987099,59.9115888 90.3674615,59.697595 90.8483373,59.9172845 C91.3300267,60.1361602 91.5432068,60.7049118 91.3243311,61.1857876 L87.8434739,68.8496944 L96.3527783,64.5551727 C96.6432565,64.4078994 96.9858093,64.418477 97.2657099,64.5812099 C103.831983,68.3924149 111.638281,70.4062348 119.842461,70.4062348 C124.713871,70.4062348 129.472182,69.6869553 133.984766,68.2687379 C134.222356,68.1930671 134.481101,68.215036 134.704045,68.3273217 L141.332971,71.6731106 L139.319965,67.2410795 C139.105157,66.7675267 139.306946,66.2093528 139.774803,65.9823404 C150.959437,60.5690298 157.636368,51.2411789 157.636368,41.0313155 C157.636368,24.8336944 140.682039,11.6563963 119.842461,11.6563963 C99.0020702,11.6563963 82.047741,24.8336944 82.047741,41.0313155 C82.047741,45.8099677 83.483859,50.3705578 86.3178528,54.586154 C86.613213,55.0247193 86.496859,55.6203217 86.0574801,55.9148683 C85.6197286,56.2102286 85.0233124,56.0946882 84.7279522,55.6544957 C81.7206478,51.1817814 80.1307472,46.1248559 80.1307472,41.0313155 C80.1307472,23.7767441 97.9451199,9.73940248 119.842461,9.73940248 C141.738176,9.73940248 159.552548,23.7767441 159.552548,41.0313155 C159.552548,51.733446 152.804014,61.4909118 141.447698,67.290713 L144.20358,73.3582099 C144.371194,73.7284273 144.287387,74.1645516 143.994468,74.4460795 C143.811393,74.6210174 143.572176,74.7129615 143.330517,74.7129615" id="Fill-3" fill="#2F5266"></path>
                <path d="M6.40280807,54.4150404 C3.92845404,54.4150404 1.91626149,56.4272329 1.91626149,58.901587 L1.91626149,112.321109 C1.91626149,114.795463 3.92845404,116.807655 6.40280807,116.807655 L71.6009385,116.807655 C74.0752925,116.807655 76.0874851,114.795463 76.0874851,112.321109 L76.0874851,58.901587 C76.0874851,56.4272329 74.0752925,54.4150404 71.6009385,54.4150404 L6.40280807,54.4150404 Z M71.6009385,118.723835 L6.40280807,118.723835 C2.87231739,118.723835 8.13664597e-05,115.851599 8.13664597e-05,112.321109 L8.13664597e-05,58.901587 C8.13664597e-05,55.3710963 2.87231739,52.4988602 6.40280807,52.4988602 L71.6009385,52.4988602 C75.1314292,52.4988602 78.0044789,55.3710963 78.0044789,58.901587 L78.0044789,112.321109 C78.0044789,115.851599 75.1314292,118.723835 71.6009385,118.723835 L71.6009385,118.723835 Z" id="Fill-5" fill="#2F5266"></path>
                <mask id="mask-2" fill="white">
                    <use xlink:href="#path-1"></use>
                </mask>
                <g id="Clip-8"></g>
                <path d="M5.91127329,105.244261 L72.0923106,105.244261 L72.0923106,58.5008571 L5.91127329,58.5008571 L5.91127329,105.244261 Z M3.99509317,107.161255 L74.0093043,107.161255 L74.0093043,56.584677 L3.99509317,56.584677 L3.99509317,107.161255 Z" id="Fill-7" fill="#2F5266" mask="url(#mask-2)"></path>
                <path d="M25.8493106,123.769614 C24.9778758,123.769614 24.2691739,124.478316 24.2691739,125.348937 C24.2691739,126.220371 24.9778758,126.929073 25.8493106,126.929073 L52.155087,126.929073 C53.0257081,126.929073 53.7344099,126.220371 53.7344099,125.348937 C53.7344099,124.478316 53.0257081,123.769614 52.155087,123.769614 L25.8493106,123.769614 Z M52.155087,128.846067 L25.8493106,128.846067 C23.9209255,128.846067 22.3529938,127.277322 22.3529938,125.348937 C22.3529938,123.421365 23.9209255,121.853434 25.8493106,121.853434 L52.155087,121.853434 C54.0826584,121.853434 55.6505901,123.421365 55.6505901,125.348937 C55.6505901,127.277322 54.0826584,128.846067 52.155087,128.846067 L52.155087,128.846067 Z" id="Fill-9" fill="#2F5266" mask="url(#mask-2)"></path>
                <path d="M39.3260373,111.015177 C38.9623292,111.015177 38.6661553,111.310537 38.6661553,111.675059 C38.6661553,112.037953 38.9623292,112.334127 39.3260373,112.334127 C39.6897453,112.334127 39.9859193,112.037953 39.9859193,111.675059 C39.9859193,111.310537 39.6897453,111.015177 39.3260373,111.015177 M39.3260373,114.250307 C37.9053789,114.250307 36.7499752,113.094904 36.7499752,111.675059 C36.7499752,110.254401 37.9053789,109.098997 39.3260373,109.098997 C40.7466957,109.098997 41.9020994,110.254401 41.9020994,111.675059 C41.9020994,113.094904 40.7466957,114.250307 39.3260373,114.250307" id="Fill-10" fill="#2F5266" mask="url(#mask-2)"></path>
                <path d="M38.8377571,40.9148801 C37.9362168,40.9148801 37.2022913,41.6488056 37.2022913,42.550346 C37.2022913,43.4527 37.9362168,44.1866255 38.8377571,44.1866255 C39.7392975,44.1866255 40.473223,43.4527 40.473223,42.550346 C40.473223,41.6488056 39.7392975,40.9148801 38.8377571,40.9148801 M38.8377571,46.1028056 C36.8792665,46.1028056 35.2852975,44.5088366 35.2852975,42.550346 C35.2852975,40.5918553 36.8792665,38.9987 38.8377571,38.9987 C40.7962478,38.9987 42.3902168,40.5918553 42.3902168,42.550346 C42.3902168,44.5088366 40.7962478,46.1028056 38.8377571,46.1028056" id="Fill-11" fill="#2F5266" mask="url(#mask-2)"></path>
                <path d="M39.0018733,96.6131509 C27.3973888,96.6131509 17.9564385,87.1722006 17.9564385,75.5677161 C17.9564385,75.0380205 18.3852398,74.6092193 18.9149354,74.6092193 C19.4438174,74.6092193 19.8726186,75.0380205 19.8726186,75.5677161 C19.8726186,86.1152503 28.4543391,94.6969708 39.0018733,94.6969708 C49.5502211,94.6969708 58.131128,86.1152503 58.131128,75.5677161 C58.131128,75.0380205 58.5607429,74.6092193 59.0896248,74.6092193 C59.6185068,74.6092193 60.0481217,75.0380205 60.0481217,75.5677161 C60.0481217,87.1722006 50.6063578,96.6131509 39.0018733,96.6131509" id="Fill-12" fill="#2F5266" mask="url(#mask-2)"></path>
                <path d="M38.8377571,54.4150404 C38.3088752,54.4150404 37.8792602,53.9862391 37.8792602,53.4565435 L37.8792602,50.0936677 L39.5358814,49.1628354 L37.8792602,48.154705 L37.8792602,45.4281149 C37.8792602,44.8992329 38.3088752,44.469618 38.8377571,44.469618 C39.3666391,44.469618 39.796254,44.8992329 39.796254,45.4281149 L39.796254,47.077413 L43.3275584,49.2287422 L39.796254,51.2148975 L39.796254,53.4565435 C39.796254,53.9862391 39.3666391,54.4150404 38.8377571,54.4150404" id="Fill-13" fill="#2F5266" mask="url(#mask-2)"></path>
                <path d="M153.624107,88.2135286 C151.149753,88.2135286 149.13756,90.2257211 149.13756,92.7000752 L149.13756,122.442771 C149.13756,124.917125 151.149753,126.929317 153.624107,126.929317 L164.855933,126.929317 C167.330287,126.929317 169.34248,124.917125 169.34248,122.442771 L169.34248,92.7000752 C169.34248,90.2257211 167.330287,88.2135286 164.855933,88.2135286 L153.624107,88.2135286 Z M164.855933,128.846311 L153.624107,128.846311 C150.093616,128.846311 147.22138,125.973261 147.22138,122.442771 L147.22138,92.7000752 C147.22138,89.1695845 150.093616,86.2973484 153.624107,86.2973484 L164.855933,86.2973484 C168.386424,86.2973484 171.25866,89.1695845 171.25866,92.7000752 L171.25866,122.442771 C171.25866,125.973261 168.386424,128.846311 164.855933,128.846311 L164.855933,128.846311 Z" id="Fill-14" fill="#2F5266" mask="url(#mask-2)"></path>
                <path d="M151.025913,117.938242 L167.453801,117.938242 L167.453801,90.3004969 L151.025913,90.3004969 L151.025913,117.938242 Z M152.942093,116.021248 L165.537621,116.021248 L165.537621,92.2158634 L152.942093,92.2158634 L152.942093,116.021248 Z" id="Fill-15" fill="#2F5266" mask="url(#mask-2)"></path>
                <path d="M159.240264,122.085898 C158.876556,122.085898 158.580382,122.381258 158.580382,122.74578 C158.580382,123.109488 158.876556,123.404848 159.240264,123.404848 C159.603972,123.404848 159.899332,123.109488 159.899332,122.74578 C159.899332,122.381258 159.603972,122.085898 159.240264,122.085898 M159.240264,125.321842 C157.819606,125.321842 156.664202,124.165624 156.664202,122.74578 C156.664202,121.325121 157.819606,120.169717 159.240264,120.169717 C160.660109,120.169717 161.816326,121.325121 161.816326,122.74578 C161.816326,124.165624 160.660109,125.321842 159.240264,125.321842" id="Fill-16" fill="#2F5266" mask="url(#mask-2)"></path>
                <path d="M159.240264,107.659217 C156.71709,107.659217 154.664214,105.606342 154.664214,103.083168 C154.664214,102.554286 155.093016,102.124671 155.622711,102.124671 C156.151593,102.124671 156.580394,102.554286 156.580394,103.083168 C156.580394,104.549391 157.77404,105.743037 159.240264,105.743037 C160.706488,105.743037 161.900134,104.549391 161.900134,103.083168 C161.900134,102.554286 162.328935,102.124671 162.857817,102.124671 C163.387512,102.124671 163.816314,102.554286 163.816314,103.083168 C163.816314,105.606342 161.763438,107.659217 159.240264,107.659217" id="Fill-17" fill="#2F5266" mask="url(#mask-2)"></path>
                <path d="M159.240264,74.7129615 C158.338724,74.7129615 157.604798,75.446887 157.604798,76.3484273 C157.604798,77.2507814 158.338724,77.9847068 159.240264,77.9847068 C160.141804,77.9847068 160.87573,77.2507814 160.87573,76.3484273 C160.87573,75.446887 160.141804,74.7129615 159.240264,74.7129615 M159.240264,79.900887 C157.281773,79.900887 155.687804,78.306918 155.687804,76.3484273 C155.687804,74.3899366 157.281773,72.7967814 159.240264,72.7967814 C161.198755,72.7967814 162.792724,74.3899366 162.792724,76.3484273 C162.792724,78.306918 161.198755,79.900887 159.240264,79.900887" id="Fill-18" fill="#2F5266" mask="url(#mask-2)"></path>
                <path d="M159.240264,88.2135286 C158.711382,88.2135286 158.281767,87.7847273 158.281767,87.2550317 L158.281767,83.8921559 L159.938388,82.9613236 L158.281767,81.9523795 L158.281767,79.2266031 C158.281767,78.6969075 158.711382,78.2681062 159.240264,78.2681062 C159.769146,78.2681062 160.198761,78.6969075 160.198761,79.2266031 L160.198761,80.8759012 L163.730065,83.0272304 L160.198761,85.0133857 L160.198761,87.2550317 C160.198761,87.7847273 159.769146,88.2135286 159.240264,88.2135286" id="Fill-19" fill="#2F5266" mask="url(#mask-2)"></path>
                <path d="M87.2361547,57.2647379 C86.7154093,57.5527752 86.5258255,58.2085888 86.8138627,58.7293342 C87.1019,59.2500795 87.7577137,59.4396634 88.278459,59.1516261 C88.7992043,58.8635888 88.9887882,58.2077752 88.7007509,57.6870298 C88.4127137,57.1662845 87.7569,56.9767006 87.2361547,57.2647379" id="Fill-20" fill="#2F5266" mask="url(#mask-2)"></path>
                <path d="M118.242797,22.7171901 C117.722052,23.0052273 117.532468,23.661041 117.820505,24.1817863 C118.108542,24.7025317 118.764356,24.8921155 119.285101,24.6040783 C119.805847,24.316041 119.99543,23.6602273 119.707393,23.139482 C119.419356,22.6187366 118.763542,22.4291528 118.242797,22.7171901" id="Fill-21" fill="#2F5266" mask="url(#mask-2)"></path>
                <path d="M81.9707683,130.151836 L59.5949919,130.151836 C59.0661099,130.151836 58.636495,129.723035 58.636495,129.193339 C58.636495,128.664457 59.0661099,128.235656 59.5949919,128.235656 L81.9707683,128.235656 C82.4996503,128.235656 82.9292652,128.664457 82.9292652,129.193339 C82.9292652,129.723035 82.4996503,130.151836 81.9707683,130.151836" id="Fill-22" fill="#2F5266" mask="url(#mask-2)"></path>
                <path d="M183.882259,130.530434 L172.694371,130.530434 C172.165489,130.530434 171.735874,130.101633 171.735874,129.571937 C171.735874,129.043055 172.165489,128.614254 172.694371,128.614254 L183.882259,128.614254 C184.411141,128.614254 184.840756,129.043055 184.840756,129.571937 C184.840756,130.101633 184.411141,130.530434 183.882259,130.530434" id="Fill-23" fill="#2F5266" mask="url(#mask-2)"></path>
                <path d="M84.9076093,128.249895 C84.386864,128.537932 84.1972801,129.193746 84.4853174,129.714491 C84.7733547,130.235237 85.4291683,130.42482 85.9499137,130.136783 C86.470659,129.848746 86.6602429,129.192932 86.3722056,128.672187 C86.0841683,128.151442 85.4283547,127.961858 84.9076093,128.249895" id="Fill-24" fill="#2F5266" mask="url(#mask-2)"></path>
                <path d="M186.864665,128.628575 C186.34392,128.916612 186.154336,129.572425 186.442373,130.093171 C186.730411,130.613916 187.386224,130.8035 187.90697,130.515463 C188.427715,130.227425 188.617299,129.571612 188.329261,129.050866 C188.041224,128.530121 187.385411,128.340537 186.864665,128.628575" id="Fill-25" fill="#2F5266" mask="url(#mask-2)"></path>
                <path d="M190.547962,128.628575 C190.027217,128.916612 189.837633,129.572425 190.12567,130.093171 C190.413707,130.613916 191.069521,130.8035 191.590266,130.515463 C192.111012,130.227425 192.300596,129.571612 192.012558,129.050866 C191.724521,128.530121 191.068707,128.340537 190.547962,128.628575" id="Fill-26" fill="#2F5266" mask="url(#mask-2)"></path>
                <path d="M81.9707683,9.64640062 C81.4418863,9.64640062 81.0122714,9.21759938 81.0122714,8.68790373 L81.0122714,0.958090062 C81.0122714,0.429208075 81.4418863,0.000406832298 81.9707683,0.000406832298 C82.4996503,0.000406832298 82.9292652,0.429208075 82.9292652,0.958090062 L82.9292652,8.68790373 C82.9292652,9.21759938 82.4996503,9.64640062 81.9707683,9.64640062" id="Fill-27" fill="#2F5266" mask="url(#mask-2)"></path>
                <path d="M85.8356752,5.78149379 L78.1058615,5.78149379 C77.5769795,5.78149379 77.1473646,5.35269255 77.1473646,4.82299689 C77.1473646,4.29411491 77.5769795,3.86531366 78.1058615,3.86531366 L85.8356752,3.86531366 C86.3645571,3.86531366 86.794172,4.29411491 86.794172,4.82299689 C86.794172,5.35269255 86.3645571,5.78149379 85.8356752,5.78149379" id="Fill-28" fill="#2F5266" mask="url(#mask-2)"></path>
                <path d="M135.560183,90.0633137 C135.031301,90.0633137 134.601686,89.6345124 134.601686,89.1048168 L134.601686,81.3750031 C134.601686,80.8461211 135.031301,80.4173199 135.560183,80.4173199 C136.089065,80.4173199 136.51868,80.8461211 136.51868,81.3750031 L136.51868,89.1048168 C136.51868,89.6345124 136.089065,90.0633137 135.560183,90.0633137" id="Fill-29" fill="#2F5266" mask="url(#mask-2)"></path>
                <path d="M139.42509,86.1984068 L131.695276,86.1984068 C131.166394,86.1984068 130.73678,85.7696056 130.73678,85.2399099 C130.73678,84.711028 131.166394,84.2822267 131.695276,84.2822267 L139.42509,84.2822267 C139.953972,84.2822267 140.383587,84.711028 140.383587,85.2399099 C140.383587,85.7696056 139.953972,86.1984068 139.42509,86.1984068" id="Fill-30" fill="#2F5266" mask="url(#mask-2)"></path>
            </g>
        </g>
    </g>
</svg>