<?xml version="1.0" encoding="UTF-8"?>
<svg width="190px" height="163px" viewBox="0 0 190 163" version="1.1" xmlns="http://www.w3.org/2000/svg" xmlns:xlink="http://www.w3.org/1999/xlink">
    <!-- Generator: Sketch 43.2 (39069) - http://www.bohemiancoding.com/sketch -->
    <title>Group 31</title>
    <desc>Created with Sketch.</desc>
    <defs>
        <polygon id="path-1" points="0 0.817328824 0 88.183214 77.9307825 88.183214 77.9307825 0.817328824"></polygon>
        <polygon id="path-3" points="0 140.886211 189.574088 140.886211 189.574088 0 0 0"></polygon>
    </defs>
    <g id="Design-1" stroke="none" stroke-width="1" fill="none" fill-rule="evenodd">
        <g id="Group-31">
            <circle id="Oval-1-Copy-10" fill="#FFFEF3" cx="92" cy="83" r="80"></circle>
            <g id="Page-1">
                <g id="Group-3" transform="translate(0.000000, 50.184456)">
                    <mask id="mask-2" fill="white">
                        <use xlink:href="#path-1"></use>
                    </mask>
                    <g id="Clip-2"></g>
                    <path d="M46.5578702,41.6886702 C47.1342386,57.1920737 61.5310807,61.4344421 70.1081684,61.4756702 L70.1362035,61.4756702 C71.6847298,61.4756702 73.1433789,60.8720912 74.2474667,59.7729509 C75.3696947,58.6556702 75.9881158,57.1665123 75.9881158,55.5825298 L75.9881158,41.6886702 L46.5578702,41.6886702 Z M0.971992982,88.183214 C0.614133333,88.183214 0.271115789,87.9853193 0.10125614,87.6439509 C-0.137042105,87.1632316 0.0592035088,86.5802667 0.539098246,86.342793 L31.7330807,70.8690737 L31.7330807,24.2813544 C31.7330807,11.5550737 41.9188877,1.03119649 54.4373789,0.821757895 C60.6628175,0.700547368 66.5765719,3.0711614 71.0275544,7.44793333 C75.4785368,11.8255298 77.9307825,17.6741439 77.9307825,23.9168982 L77.9299579,40.6893018 C77.9299579,40.6983719 77.9307825,40.7082667 77.9307825,40.7173368 L77.9307825,55.5825298 C77.9307825,57.6876351 77.1086947,59.6641088 75.6170632,61.1491439 C74.1378,62.6218105 72.1835895,63.4645123 70.0990982,63.4175123 C60.6273614,63.3721614 44.5978877,58.5402316 44.5978877,40.7173368 L44.5978877,39.7468281 L75.9881158,39.7468281 L75.9881158,23.9168982 C75.9881158,18.1993895 73.7428351,12.842214 69.6653789,8.83237193 C65.5895719,4.82335439 60.2142561,2.66877544 54.4695368,2.7636 C43.003186,2.95489825 33.6749228,12.6080386 33.6749228,24.2813544 L33.6749228,72.0737579 L1.40241404,88.081793 C1.26388772,88.1510561 1.11711579,88.183214 0.971992982,88.183214 L0.971992982,88.183214 Z" id="Fill-1" fill="#2F5266" mask="url(#mask-2)"></path>
                </g>
                <path d="M95.1675789,138.367835 C95.0191579,138.367835 94.8690877,138.334028 94.7280877,138.262291 L63.2521053,122.251782 L63.2521053,112.033818 C63.2521053,111.497853 63.6866491,111.062484 64.2234386,111.062484 C64.7594035,111.062484 65.1939474,111.497853 65.1939474,112.033818 L65.1939474,121.060291 L95.6087193,136.531537 C96.0861404,136.773958 96.276614,137.358572 96.0333684,137.836818 C95.8626842,138.174063 95.5213158,138.367835 95.1675789,138.367835" id="Fill-4" fill="#2F5266"></path>
                <path d="M66.6094719,68.6295649 C65.8294368,68.6295649 65.1945246,69.2644772 65.1945246,70.0445123 L65.1945246,77.2280912 C65.1945246,78.0089509 65.8294368,78.6438632 66.6094719,78.6438632 C67.389507,78.6438632 68.0244193,78.0089509 68.0244193,77.2280912 L68.0244193,70.0445123 C68.0244193,69.2644772 67.389507,68.6295649 66.6094719,68.6295649 M66.6094719,80.5857053 C64.7583316,80.5857053 63.2518579,79.0792316 63.2518579,77.2280912 L63.2518579,70.0445123 C63.2518579,68.1933719 64.7583316,66.6877228 66.6094719,66.6877228 C68.4606123,66.6877228 69.967086,68.1933719 69.967086,70.0445123 L69.967086,77.2280912 C69.967086,79.0792316 68.4606123,80.5857053 66.6094719,80.5857053" id="Fill-6" fill="#2F5266"></path>
                <path d="M140.822884,76.5289456 L140.822884,76.5289456 C139.510182,76.5289456 138.436604,75.4553667 138.436604,74.1426649 L138.436604,72.7986298 C138.436604,71.4867526 139.510182,70.4123491 140.822884,70.4123491 C142.135586,70.4123491 143.209165,71.4867526 143.209165,72.7986298 L143.209165,74.1426649 C143.209165,75.4553667 142.135586,76.5289456 140.822884,76.5289456" id="Fill-8" fill="#2F5266"></path>
                <path d="M156.869179,76.5289456 L156.869179,76.5289456 C155.556477,76.5289456 154.482898,75.4553667 154.482898,74.1426649 L154.482898,72.7986298 C154.482898,71.4867526 155.556477,70.4123491 156.869179,70.4123491 C158.181881,70.4123491 159.25546,71.4867526 159.25546,72.7986298 L159.25546,74.1426649 C159.25546,75.4553667 158.181881,76.5289456 156.869179,76.5289456" id="Fill-10" fill="#2F5266"></path>
                <path d="M188.601847,129.204649 C188.456725,129.204649 188.309953,129.171667 188.171426,129.103228 L155.898093,113.094368 L155.898093,107.591246 C155.898093,107.054456 156.332637,106.619912 156.869426,106.619912 C157.405391,106.619912 157.839935,107.054456 157.839935,107.591246 L157.839935,111.889684 L189.033918,127.364228 C189.514637,127.601702 189.710882,128.184667 189.472584,128.665386 C189.302725,129.006754 188.958882,129.204649 188.601847,129.204649" id="Fill-12" fill="#2F5266"></path>
                <path d="M109.878414,129.204649 C109.524677,129.204649 109.183309,129.010877 109.012625,128.673632 C108.769379,128.195386 108.959853,127.610772 109.437274,127.368351 L139.852046,111.897105 L139.852046,107.818 C139.852046,107.281211 140.286589,106.846667 140.822554,106.846667 C141.359344,106.846667 141.793888,107.281211 141.793888,107.818 L141.793888,113.087772 L110.317905,129.099105 C110.176905,129.170842 110.026835,129.204649 109.878414,129.204649" id="Fill-14" fill="#2F5266"></path>
                <path d="M78.1279351,87.6436211 C77.7643035,87.6436211 77.4014965,87.6370246 77.0386895,87.623007 C76.5027246,87.602393 76.0846719,87.1513579 76.105286,86.615393 C76.1259,86.0802526 76.5761105,85.6622 77.1129,85.682814 C78.9285842,85.7504281 80.7681807,85.6341649 82.578093,85.3348491 C83.2731982,85.218586 83.7456719,84.5572877 83.6310579,83.8613579 C83.5139702,83.1687263 82.8534965,82.6954281 82.1567421,82.8100421 C80.4226895,83.0969895 78.6581281,83.197586 76.9158298,83.1126561 C76.3798649,83.0862702 75.9675842,82.6302877 75.9947947,82.0951474 C76.0211807,81.5583579 76.481286,81.1419544 77.0123035,81.1732877 C78.6193737,81.2532702 80.241286,81.1600947 81.8401105,80.8937614 C83.5923035,80.606814 85.2529702,81.795007 85.546514,83.5422526 C85.8359351,85.2960947 84.6469175,86.957586 82.8963737,87.2503053 C81.3173386,87.5116912 79.718514,87.6436211 78.1279351,87.6436211" id="Fill-16" fill="#2F5266"></path>
                <path d="M52.6028123,71.1032491 L37.9668474,71.1032491 C37.4308825,71.1032491 36.995514,70.6687053 36.995514,70.1319158 C36.995514,69.5959509 37.4308825,69.161407 37.9668474,69.161407 L52.6028123,69.161407 C53.1387772,69.161407 53.5741456,69.5959509 53.5741456,70.1319158 C53.5741456,70.6687053 53.1387772,71.1032491 52.6028123,71.1032491" id="Fill-18" fill="#2F5266"></path>
                <path d="M52.6028123,75.8444772 L42.0896544,75.8444772 C41.5536895,75.8444772 41.1183211,75.4099333 41.1183211,74.8731439 C41.1183211,74.3371789 41.5536895,73.9026351 42.0896544,73.9026351 L52.6028123,73.9026351 C53.1387772,73.9026351 53.5741456,74.3371789 53.5741456,74.8731439 C53.5741456,75.4099333 53.1387772,75.8444772 52.6028123,75.8444772" id="Fill-20" fill="#2F5266"></path>
                <path d="M52.6028123,80.5857053 L46.2124614,80.5857053 C45.6764965,80.5857053 45.2411281,80.1511614 45.2411281,79.6143719 C45.2411281,79.078407 45.6764965,78.6438632 46.2124614,78.6438632 L52.6028123,78.6438632 C53.1387772,78.6438632 53.5741456,79.078407 53.5741456,79.6143719 C53.5741456,80.1511614 53.1387772,80.5857053 52.6028123,80.5857053" id="Fill-22" fill="#2F5266"></path>
                <path d="M32.4010579,71.1032491 L17.765093,71.1032491 C17.2291281,71.1032491 16.7937596,70.6687053 16.7937596,70.1319158 C16.7937596,69.5959509 17.2291281,69.161407 17.765093,69.161407 L32.4010579,69.161407 C32.9370228,69.161407 33.3723912,69.5959509 33.3723912,70.1319158 C33.3723912,70.6687053 32.9370228,71.1032491 32.4010579,71.1032491" id="Fill-24" fill="#2F5266"></path>
                <path d="M32.4010579,75.8444772 L21.8879,75.8444772 C21.3519351,75.8444772 20.9165667,75.4099333 20.9165667,74.8731439 C20.9165667,74.3371789 21.3519351,73.9026351 21.8879,73.9026351 L32.4010579,73.9026351 C32.9370228,73.9026351 33.3723912,74.3371789 33.3723912,74.8731439 C33.3723912,75.4099333 32.9370228,75.8444772 32.4010579,75.8444772" id="Fill-26" fill="#2F5266"></path>
                <path d="M32.4010579,80.5857053 L26.010707,80.5857053 C25.4747421,80.5857053 25.0393737,80.1511614 25.0393737,79.6143719 C25.0393737,79.078407 25.4747421,78.6438632 26.010707,78.6438632 L32.4010579,78.6438632 C32.9370228,78.6438632 33.3723912,79.078407 33.3723912,79.6143719 C33.3723912,80.1511614 32.9370228,80.5857053 32.4010579,80.5857053" id="Fill-28" fill="#2F5266"></path>
                <path d="M72.392286,104.291846 C72.144093,104.291846 71.8950754,104.197021 71.7054263,104.007372 L67.6180754,99.9191965 L72.117707,95.4195649 C72.4970053,95.0402667 73.1121281,95.0402667 73.4914263,95.4195649 C73.8699,95.7988632 73.8699,96.4131614 73.4914263,96.7924596 L70.3638649,99.9191965 L73.0791456,102.634477 C73.4576193,103.013775 73.4576193,103.628074 73.0791456,104.007372 C72.8894965,104.197021 72.6404789,104.291846 72.392286,104.291846" id="Fill-30" fill="#2F5266"></path>
                <path d="M147.333126,96.9453333 C147.084933,96.9453333 146.835916,96.8505088 146.646267,96.6608596 C146.267793,96.2815614 146.267793,95.6672632 146.646267,95.2879649 L149.773828,92.1604035 L147.058547,89.4459474 C146.680074,89.0666491 146.680074,88.4523509 147.058547,88.0730526 C147.437846,87.6937544 148.052968,87.6937544 148.432267,88.0730526 L152.519618,92.1604035 L148.019986,96.6608596 C147.830337,96.8505088 147.581319,96.9453333 147.333126,96.9453333" id="Fill-32" fill="#2F5266"></path>
                <path d="M149.239925,48.2494579 C140.992661,48.2494579 134.282381,54.9597386 134.282381,63.2078263 L134.282381,89.4148614 C134.282381,97.6629491 140.992661,104.372405 149.239925,104.372405 C157.488012,104.372405 164.198293,97.6629491 164.198293,89.4148614 L164.198293,63.2078263 C164.198293,54.9597386 157.488012,48.2494579 149.239925,48.2494579 M149.239925,106.315072 C139.921556,106.315072 132.339714,98.7332298 132.339714,89.4148614 L132.339714,63.2078263 C132.339714,53.8886333 139.921556,46.3076158 149.239925,46.3076158 C158.558293,46.3076158 166.140135,53.8886333 166.140135,63.2078263 L166.140135,89.4148614 C166.140135,98.7332298 158.558293,106.315072 149.239925,106.315072" id="Fill-34" fill="#2F5266"></path>
                <path d="M175.513172,101.831849 C174.977207,101.831849 174.541839,101.397305 174.541839,100.860516 L174.541839,63.867393 C174.541839,49.915814 163.191751,38.5657263 149.240172,38.5657263 C135.288593,38.5657263 123.938505,49.915814 123.938505,63.867393 L123.938505,100.860516 C123.938505,101.397305 123.503137,101.831849 122.967172,101.831849 C122.431207,101.831849 121.995839,101.397305 121.995839,100.860516 L121.995839,63.867393 C121.995839,48.8455333 134.217488,36.6230596 149.240172,36.6230596 C164.262032,36.6230596 176.484505,48.8455333 176.484505,63.867393 L176.484505,100.860516 C176.484505,101.397305 176.049137,101.831849 175.513172,101.831849" id="Fill-36" fill="#2F5266"></path>
                <mask id="mask-4" fill="white">
                    <use xlink:href="#path-3"></use>
                </mask>
                <g id="Clip-39"></g>
                <path d="M134.282298,81.9688246 L164.198211,81.9688246 L164.198211,64.9729649 L134.282298,64.9729649 L134.282298,81.9688246 Z M132.339632,83.9106667 L166.140053,83.9106667 L166.140053,63.0302982 L132.339632,63.0302982 L132.339632,83.9106667 Z" id="Fill-38" fill="#2F5266" mask="url(#mask-4)"></path>
                <path d="M127.327453,101.831849 C126.791488,101.831849 126.356119,101.397305 126.356119,100.860516 L126.356119,95.9741649 C126.356119,95.4382 126.791488,95.0028316 127.327453,95.0028316 C127.863418,95.0028316 128.298786,95.4382 128.298786,95.9741649 L128.298786,100.860516 C128.298786,101.397305 127.863418,101.831849 127.327453,101.831849" id="Fill-40" fill="#2F5266" mask="url(#mask-4)"></path>
                <path d="M131.31297,101.831849 C130.777005,101.831849 130.341637,101.397305 130.341637,100.860516 L130.341637,95.9741649 C130.341637,95.4382 130.777005,95.0028316 131.31297,95.0028316 C131.848935,95.0028316 132.284304,95.4382 132.284304,95.9741649 L132.284304,100.860516 C132.284304,101.397305 131.848935,101.831849 131.31297,101.831849" id="Fill-41" fill="#2F5266" mask="url(#mask-4)"></path>
                <path d="M167.318681,101.831849 C166.782716,101.831849 166.347347,101.397305 166.347347,100.860516 L166.347347,95.9741649 C166.347347,95.4382 166.782716,95.0028316 167.318681,95.0028316 C167.854646,95.0028316 168.290014,95.4382 168.290014,95.9741649 L168.290014,100.860516 C168.290014,101.397305 167.854646,101.831849 167.318681,101.831849" id="Fill-42" fill="#2F5266" mask="url(#mask-4)"></path>
                <path d="M171.304198,101.831849 C170.768233,101.831849 170.332865,101.397305 170.332865,100.860516 L170.332865,95.9741649 C170.332865,95.4382 170.768233,95.0028316 171.304198,95.0028316 C171.840163,95.0028316 172.275532,95.4382 172.275532,95.9741649 L172.275532,100.860516 C172.275532,101.397305 171.840163,101.831849 171.304198,101.831849" id="Fill-43" fill="#2F5266" mask="url(#mask-4)"></path>
                <path d="M139.695874,64.9730474 C139.159909,64.9730474 138.72454,64.5385035 138.72454,64.001714 L138.72454,59.1153632 C138.72454,58.5793982 139.159909,58.1440298 139.695874,58.1440298 C140.231839,58.1440298 140.667207,58.5793982 140.667207,59.1153632 L140.667207,64.001714 C140.667207,64.5385035 140.231839,64.9730474 139.695874,64.9730474" id="Fill-44" fill="#2F5266" mask="url(#mask-4)"></path>
                <path d="M143.681391,64.8393035 C143.145426,64.8393035 142.710058,64.4047596 142.710058,63.8679702 L142.710058,62.3120228 C142.710058,61.7752333 143.145426,61.3406895 143.681391,61.3406895 C144.217356,61.3406895 144.652725,61.7752333 144.652725,62.3120228 L144.652725,63.8679702 C144.652725,64.4047596 144.217356,64.8393035 143.681391,64.8393035" id="Fill-45" fill="#2F5266" mask="url(#mask-4)"></path>
                <path d="M119.141042,49.5825263 C118.965411,49.5825263 118.78813,49.5347018 118.631463,49.4374035 L111.141147,44.8157368 C110.68434,44.5337368 110.542516,43.9359298 110.824516,43.4799474 C111.106516,43.0231404 111.705147,42.8813158 112.160305,43.1633158 L117.202498,46.274386 L115.067709,40.7209649 C114.927533,40.3573333 115.01906,39.9442281 115.30106,39.6729474 C119.618463,35.5204561 121.995674,30.1847193 121.995674,24.648614 C121.995674,12.1284737 110.012323,1.94184211 95.2823579,1.94184211 C80.5532175,1.94184211 68.5690421,12.1284737 68.5690421,24.648614 C68.5690421,37.1695789 80.5532175,47.355386 95.2823579,47.355386 C98.4610421,47.355386 101.570463,46.8845614 104.525691,45.9561053 C105.033621,45.7928421 105.581954,46.0781404 105.742744,46.5910175 C105.903533,47.1022456 105.619884,47.6472807 105.107832,47.8080702 C101.964604,48.7967193 98.6589368,49.2980526 95.2823579,49.2980526 C79.4821123,49.2980526 66.6272,38.2406842 66.6272,24.648614 C66.6272,11.0573684 79.4821123,0 95.2823579,0 C111.083428,0 123.93834,11.0573684 123.93834,24.648614 C123.93834,30.516193 121.517428,36.1627895 117.108498,40.6178947 L120.047235,48.2632281 C120.196481,48.6524211 120.081867,49.0927368 119.761112,49.3590702 C119.582182,49.5066667 119.362025,49.5825263 119.141042,49.5825263" id="Fill-46" fill="#2F5266" mask="url(#mask-4)"></path>
                <path d="M84.6193772,77.2822649 C84.3612895,77.2822649 84.1065,77.1791947 83.9185,76.9837737 C83.6167105,76.6687912 83.5614649,76.1913702 83.7840965,75.8161947 L86.5488509,71.1541246 C84.6729737,69.105914 83.6480439,66.5703877 83.6480439,63.9375632 C83.6480439,57.5315456 89.6689912,52.319493 97.0686053,52.319493 C104.469044,52.319493 110.489167,57.5315456 110.489167,63.9375632 C110.489167,70.3444053 104.469044,75.5572825 97.0686053,75.5572825 C95.8548509,75.5572825 94.6518158,75.4162825 93.4908333,75.1384053 C92.9697105,75.0147211 92.6481316,74.4903 92.7726404,73.9683526 C92.8971491,73.4472298 93.4223947,73.1231772 93.942693,73.2501596 C94.9552544,73.4925807 96.0073947,73.6146158 97.0686053,73.6146158 C103.397939,73.6146158 108.547325,69.2741246 108.547325,63.9375632 C108.547325,58.6018263 103.397939,54.2613351 97.0686053,54.2613351 C90.7392719,54.2613351 85.589886,58.6018263 85.589886,63.9375632 C85.589886,66.2809667 86.6007982,68.5435632 88.4370965,70.3089491 C88.7619737,70.6214579 88.8287632,71.1161947 88.5987105,71.5045632 L87.2406579,73.7943702 L89.4249211,72.6160719 C89.8949211,72.3612825 90.4861316,72.536914 90.7409211,73.0093877 C90.994886,73.4818614 90.8192544,74.0705982 90.3467807,74.3253877 L85.080307,77.1660018 C84.9343596,77.2443351 84.7760439,77.2822649 84.6193772,77.2822649" id="Fill-47" fill="#2F5266" mask="url(#mask-4)"></path>
                <path d="M49.4249526,140.886211 L21.4789175,127.901842 C20.9924263,127.675912 20.7813386,127.098719 21.0072684,126.612228 C21.2331982,126.126561 21.8103912,125.913825 22.2968825,126.140579 L49.3903211,138.729158 L74.3333035,126.154596 C74.8131982,125.912175 75.3961632,126.105123 75.6377596,126.584193 C75.8793561,127.063263 75.6872333,127.647053 75.2081632,127.887825 L49.4249526,140.886211 Z" id="Fill-48" fill="#2F5266" mask="url(#mask-4)"></path>
                <path d="M126.799239,91.4105474 C126.271519,91.7024421 126.079396,92.3670386 126.371291,92.8947579 C126.663186,93.4224772 127.327782,93.6146 127.855502,93.3227053 C128.383221,93.0308105 128.575344,92.366214 128.283449,91.8384947 C127.991554,91.3107754 127.326958,91.1186526 126.799239,91.4105474" id="Fill-49" fill="#2F5266" mask="url(#mask-4)"></path>
                <path d="M170.775902,91.4105474 C170.248182,91.7024421 170.05606,92.3670386 170.347954,92.8947579 C170.639849,93.4224772 171.304446,93.6146 171.832165,93.3227053 C172.359884,93.0308105 172.552007,92.366214 172.260112,91.8384947 C171.968218,91.3107754 171.303621,91.1186526 170.775902,91.4105474" id="Fill-50" fill="#2F5266" mask="url(#mask-4)"></path>
                <path d="M126.799239,87.8030912 C126.271519,88.094986 126.079396,88.7595825 126.371291,89.2873018 C126.663186,89.8150211 127.327782,90.0071439 127.855502,89.7152491 C128.383221,89.4233544 128.575344,88.7587579 128.283449,88.2310386 C127.991554,87.7033193 127.326958,87.5111965 126.799239,87.8030912" id="Fill-51" fill="#2F5266" mask="url(#mask-4)"></path>
                <path d="M143.153095,58.1592842 C142.625375,58.4511789 142.433253,59.1157754 142.725147,59.6434947 C143.017042,60.171214 143.681639,60.3633368 144.209358,60.0714421 C144.737077,59.7795474 144.9292,59.1149509 144.637305,58.5872316 C144.345411,58.0595123 143.680814,57.8673895 143.153095,58.1592842" id="Fill-52" fill="#2F5266" mask="url(#mask-4)"></path>
                <path d="M107.897488,44.4051053 C107.369768,44.697 107.177646,45.3615965 107.46954,45.8893158 C107.761435,46.4170351 108.426032,46.6091579 108.953751,46.3172632 C109.48147,46.0253684 109.673593,45.3607719 109.381698,44.8330526 C109.089804,44.3053333 108.425207,44.1132105 107.897488,44.4051053" id="Fill-53" fill="#2F5266" mask="url(#mask-4)"></path>
                <path d="M133.31113,17.766907 C132.775165,17.766907 132.339796,17.3323632 132.339796,16.7955737 L132.339796,8.96224035 C132.339796,8.42627544 132.775165,7.99173158 133.31113,7.99173158 C133.847095,7.99173158 134.282463,8.42627544 134.282463,8.96224035 L134.282463,16.7955737 C134.282463,17.3323632 133.847095,17.766907 133.31113,17.766907" id="Fill-54" fill="#2F5266" mask="url(#mask-4)"></path>
                <path d="M137.227796,13.8502404 L129.394463,13.8502404 C128.858498,13.8502404 128.42313,13.4156965 128.42313,12.878907 C128.42313,12.3429421 128.858498,11.9083982 129.394463,11.9083982 L137.227796,11.9083982 C137.763761,11.9083982 138.19913,12.3429421 138.19913,12.878907 C138.19913,13.4156965 137.763761,13.8502404 137.227796,13.8502404" id="Fill-55" fill="#2F5266" mask="url(#mask-4)"></path>
                <path d="M21.8879,98.3468404 C21.3519351,98.3468404 20.9165667,97.9122965 20.9165667,97.375507 L20.9165667,89.5421737 C20.9165667,89.0062088 21.3519351,88.5716649 21.8879,88.5716649 C22.4238649,88.5716649 22.8592333,89.0062088 22.8592333,89.5421737 L22.8592333,97.375507 C22.8592333,97.9122965 22.4238649,98.3468404 21.8879,98.3468404" id="Fill-56" fill="#2F5266" mask="url(#mask-4)"></path>
                <path d="M25.8045667,94.4301737 L17.9712333,94.4301737 C17.4352684,94.4301737 16.9999,93.9956298 16.9999,93.4588404 C16.9999,92.9228754 17.4352684,92.4883316 17.9712333,92.4883316 L25.8045667,92.4883316 C26.3405316,92.4883316 26.7759,92.9228754 26.7759,93.4588404 C26.7759,93.9956298 26.3405316,94.4301737 25.8045667,94.4301737" id="Fill-57" fill="#2F5266" mask="url(#mask-4)"></path>
                <polygon id="Fill-58" fill="#2F5266" mask="url(#mask-4)" points="149.179567 116.433925 151.809093 124.526995 160.318567 124.526995 153.434304 129.528784 156.06383 137.621854 149.179567 132.620065 142.295304 137.621854 144.92483 129.528784 138.040567 124.526995 146.55004 124.526995"></polygon>
            </g>
        </g>
    </g>
</svg>