<?xml version="1.0" encoding="UTF-8"?>
<svg width="160px" height="160px" viewBox="0 0 160 160" version="1.1" xmlns="http://www.w3.org/2000/svg" xmlns:xlink="http://www.w3.org/1999/xlink">
    <!-- Generator: Sketch 43.2 (39069) - http://www.bohemiancoding.com/sketch -->
    <title>Group 22</title>
    <desc>Created with Sketch.</desc>
    <defs>
        <polygon id="path-1" points="0.0568113719 27.4113056 30.5844983 27.4113056 30.5844983 0.24314894 0.0568113719 0.24314894 0.0568113719 27.4113056"></polygon>
        <polygon id="path-3" points="22.736692 22.865902 22.736692 0.2161521 0.160247676 0.2161521 0.160247676 22.865902 22.736692 22.865902"></polygon>
    </defs>
    <g id="Design-1" stroke="none" stroke-width="1" fill="none" fill-rule="evenodd">
        <g id="Group-22">
            <circle id="Oval-1-Copy-2" fill="#FFFEF3" cx="80" cy="80" r="80"></circle>
            <g id="Page-1" transform="translate(18.000000, 16.000000)">
                <path d="M84.5417327,65.5675383 C86.3644568,65.8672353 88.0882122,64.622762 88.3863326,62.7953416 L94.4355665,25.6944441 C94.733687,23.8664146 93.493846,22.1358475 91.6723362,21.8367597 L46.4491061,14.4156056 C44.6269892,14.1177361 42.9026266,15.3609911 42.6045062,17.1884114 L36.5552723,54.2886998 C36.257759,56.1167293 37.4969928,57.8472964 39.3191098,58.145775 L84.5417327,65.5675383 Z M85.0845426,67.0465305 C84.8295312,67.0465305 84.5708768,67.0258198 84.3110081,66.98318 L39.0883852,59.5620258 C36.4878764,59.1350186 34.7185833,56.6655645 35.1442094,54.0572265 L41.1934433,16.9569382 C41.3986667,15.6978455 42.0841616,14.5916471 43.1224222,13.8424047 C44.1618971,13.0937715 45.4248105,12.7940746 46.6798307,12.9999639 L91.9030608,20.4211181 C94.5023552,20.8481253 96.2716484,23.3175794 95.8466294,25.9253082 L89.7973955,63.0268149 C89.4148785,65.3738318 87.3826807,67.0465305 85.0845426,67.0465305 L85.0845426,67.0465305 Z" id="Fill-1" fill="#2F5266"></path>
                <path d="M76.672264,92.5710855 C76.6340123,92.5710855 76.5951535,92.5680398 76.5562946,92.5613392 C76.1664915,92.4973795 75.9017654,92.1288497 75.9655183,91.7377818 L76.9630984,85.6244515 C77.1039619,84.7552085 76.515007,83.9322602 75.6485756,83.7903306 L41.9609668,78.2617748 C41.5438411,78.192942 41.1230723,78.2934501 40.7763783,78.5431976 C40.4296843,78.7935542 40.2013884,79.1614748 40.1333853,79.5799541 L39.1364123,85.6938935 C39.0720523,86.0849614 38.7041074,86.3493282 38.3155186,86.2859777 C37.9257155,86.222018 37.6615966,85.8534882 37.7247423,85.4624202 L38.7223224,79.3484808 C38.8516496,78.5523347 39.285169,77.8524327 39.9415197,77.3785216 C40.5984775,76.9046106 41.3981203,76.7169955 42.1916914,76.8461332 L75.8793001,82.3746889 C77.5235163,82.644538 78.6425304,84.2063733 78.3741613,85.8559247 L77.3771883,91.969255 C77.3195072,92.321338 77.0159222,92.5710855 76.672264,92.5710855" id="Fill-3" fill="#2F5266"></path>
                <path d="M28.4728084,84.7153099 C27.7788132,84.7153099 27.1018188,84.933382 26.5225787,85.3512522 C25.7939747,85.8763309 25.3130962,86.6511572 25.1698041,87.5319738 L22.8012342,102.059966 C22.5031138,103.887386 23.7429548,105.617953 25.5644645,105.917041 L44.1663294,108.969442 C45.0449043,109.114418 45.9295508,108.903046 46.6581548,108.377967 C47.3867587,107.852279 47.8676372,107.078062 48.0109293,106.197245 L50.3801064,91.6692535 C50.6776196,89.8418331 49.4377787,88.1112661 47.6162689,87.8121783 L29.014404,84.7597771 C28.8334674,84.7299292 28.6525307,84.7153099 28.4728084,84.7153099 M44.711568,110.448434 C44.4535208,110.448434 44.1948664,110.427724 43.9356048,110.385084 L25.3343471,107.332683 C22.7338383,106.905675 20.9645452,104.436221 21.3901713,101.828492 L23.7587412,87.3005005 C23.9639646,86.0414079 24.6494594,84.9352094 25.6883272,84.1859671 C26.7271949,83.4373339 27.9901084,83.1382461 29.2451286,83.3441354 L47.8469935,86.3965366 C50.4468951,86.8229347 52.2161882,89.2923887 51.7911693,91.9007268 L49.4219922,106.428719 C49.2167688,107.687811 48.5318811,108.793401 47.4930134,109.542643 C46.6684766,110.137164 45.7024693,110.448434 44.711568,110.448434" id="Fill-5" fill="#2F5266"></path>
                <path d="M82.4071661,115.245169 C84.2311045,115.543648 85.9536456,114.300393 86.251766,112.472972 L88.6203359,97.9449805 C88.7642352,97.0635548 88.5547616,96.1760376 88.0307739,95.4450695 C87.5067863,94.7134922 86.7350733,94.2316624 85.8571056,94.0879053 L67.2552407,91.034895 C66.3766658,90.8893105 65.4920193,91.1006821 64.7634154,91.6269792 C64.0348114,92.152058 63.5539329,92.9268842 63.4106408,93.8077008 L61.0420709,108.335693 C60.8981716,109.216509 61.1076453,110.104636 61.6316329,110.834995 C62.1556205,111.565963 62.9273335,112.048402 63.8053012,112.192159 L82.4071661,115.245169 Z M82.949976,116.724161 C82.6949646,116.724161 82.4363103,116.703451 82.1764415,116.660811 L63.5745766,113.607801 C62.3195564,113.401911 61.217543,112.714801 60.470724,111.672562 C59.723905,110.630324 59.4251774,109.363312 59.631008,108.10422 L61.9995779,93.5762276 C62.2048013,92.3171349 62.889689,91.2109365 63.9285567,90.4616941 C64.9680316,89.7130609 66.2309451,89.4139731 67.4859653,89.6192533 L86.0878302,92.6722636 C87.3428504,92.878153 88.445471,93.5652631 89.1916828,94.6075018 C89.9385018,95.6497406 90.2372294,96.9173612 90.032006,98.1764538 L87.6628289,112.704446 C87.2803119,115.051463 85.2481142,116.724161 82.949976,116.724161 L82.949976,116.724161 Z" id="Fill-7" fill="#2F5266"></path>
                <path d="M104.21252,75.7602191 C103.518525,75.7602191 102.841531,75.9782912 102.262898,76.3955522 C101.533687,76.9212402 101.053415,77.6960664 100.910123,78.576883 L99.7121767,85.9206763 C99.4146635,87.7487058 100.653897,89.4786638 102.476014,89.7777516 L112.60543,91.440095 C114.427547,91.7391828 116.15191,90.4947095 116.45003,88.6672892 L117.647369,81.3234958 C117.791268,80.4426792 117.581795,79.5545529 117.057807,78.8235848 C116.533819,78.0926166 115.762106,77.6107868 114.884139,77.4670297 L104.754116,75.8046863 C104.573179,75.7748384 104.392242,75.7602191 104.21252,75.7602191 M113.150061,92.9190872 C112.892621,92.9190872 112.63336,92.8983765 112.374705,92.8557366 L102.24529,91.1933932 C100.990269,90.9875039 99.8876488,90.2997847 99.1408298,89.2581551 C98.3940108,88.2159163 98.0958904,86.9482957 98.3011138,85.6892031 L99.4984529,78.3454098 C99.7042835,77.0863171 100.389171,75.9801187 101.428039,75.2308763 C102.466907,74.4822431 103.730427,74.1837644 104.98484,74.3890447 L115.114863,76.0513881 C116.369276,76.2566683 117.471897,76.9443875 118.218716,77.9866262 C118.965535,79.028865 119.264263,80.2958764 119.058432,81.5549691 L117.861093,88.8987624 C117.655869,90.1584642 116.970375,91.2640535 115.931507,92.0132959 C115.10697,92.6078166 114.14157,92.9190872 113.150061,92.9190872" id="Fill-9" fill="#2F5266"></path>
                <path d="M57.2297724,66.1903232 C57.0045124,66.1903232 56.785324,66.2609834 56.5989229,66.3949943 C56.3633409,66.5649443 56.2085126,66.8165192 56.1617605,67.1034242 C56.1150084,67.3903292 56.1817971,67.6778434 56.3511975,67.9141897 C56.5205979,68.1499269 56.7713591,68.3058668 57.056729,68.3527706 L64.4866673,69.5722691 C64.7708228,69.6191729 65.0592285,69.5515584 65.2948105,69.3816083 C65.5303924,69.2122673 65.6852207,68.9606925 65.7319728,68.6737875 C65.7793321,68.3868825 65.7119362,68.0987592 65.5425358,67.863022 C65.3737426,67.6266756 65.1229814,67.4713449 64.8370043,67.4244411 L57.407066,66.2049425 C57.3475634,66.1951963 57.2886679,66.1903232 57.2297724,66.1903232 M64.6669968,71.0214135 C64.5303835,71.0214135 64.3931631,71.010449 64.2559427,70.9879108 L56.8260044,69.7684123 C56.163582,69.6593762 55.5825204,69.2987652 55.1902886,68.7511483 C54.7980569,68.2041404 54.6420142,67.5365228 54.7506976,66.871951 C54.8587739,66.20677 55.2188256,65.6238229 55.7640642,65.2303183 C56.30991,64.8368138 56.9771897,64.6802648 57.6377906,64.7893009 L65.0677289,66.0087994 C65.7301513,66.1172264 66.3118201,66.4784465 66.7034447,67.0260634 C67.0956765,67.5730713 67.2517191,68.2406888 67.1436429,68.9052607 C67.0349595,69.5704417 66.6749077,70.1533888 66.1296691,70.5462842 C65.6973641,70.8587731 65.1891629,71.0214135 64.6669968,71.0214135" id="Fill-11" fill="#2F5266"></path>
                <path d="M70.3091233,8.61531242 C69.7681349,8.61531242 69.2902921,9.00881694 69.1998238,9.56130703 C69.1512502,9.85856741 69.2210748,10.1570461 69.3965469,10.4019204 C69.572019,10.6461856 69.8312805,10.8082169 70.1281866,10.8563389 C70.7389996,10.9580653 71.3188468,10.5389769 71.4190299,9.92496369 C71.4676035,9.62831245 71.3977789,9.32922465 71.2223068,9.08495946 C71.0468347,8.84008513 70.7875732,8.67866299 70.4912742,8.62993178 C70.4299501,8.62018554 70.3692331,8.61531242 70.3091233,8.61531242 M70.3109448,12.3060924 C70.1743315,12.3060924 70.036504,12.2951279 69.8974621,12.2719806 C69.2235034,12.1617262 68.6339415,11.7950239 68.2350308,11.2388789 C67.8373345,10.6833431 67.678256,10.004761 67.7887609,9.32922465 C68.0158425,7.93551204 69.3297582,6.98525345 70.7219988,7.21429014 C71.3953503,7.32515364 71.9855194,7.69185599 72.3838229,8.24739179 C72.7815192,8.80353672 72.9399905,9.48150968 72.8300928,10.1570461 L72.8300928,10.1570461 C72.6254765,11.4118747 71.5386424,12.3060924 70.3109448,12.3060924" id="Fill-13" fill="#2F5266"></path>
                <path d="M61.2383082,66.8241944 C61.2000565,66.8241944 61.1611976,66.8211487 61.1223388,66.8144481 C60.7325357,66.7504884 60.4678096,66.3819587 60.5315624,65.9908907 L61.1095882,62.4487409 C61.173341,62.0576729 61.5418932,61.7933061 61.9304819,61.8566567 C62.320285,61.9206164 62.5844039,62.2897553 62.5206511,62.6802141 L61.9432325,66.2223639 C61.8855514,66.5744469 61.5819664,66.8241944 61.2383082,66.8241944" id="Fill-15" fill="#2F5266"></path>
                <path d="M60.0797066,73.9298139 C60.0414549,73.9298139 60.002596,73.9267682 59.9637371,73.9200677 C59.573934,73.856108 59.309208,73.4875782 59.3729608,73.0965102 L59.9509866,69.5543604 C60.0147394,69.1632925 60.3826844,68.9001439 60.7718803,68.9622762 C61.1616834,69.0262359 61.4258023,69.3953748 61.3620495,69.7858337 L60.7846309,73.3279835 C60.7269497,73.6800665 60.4233648,73.9298139 60.0797066,73.9298139" id="Fill-17" fill="#2F5266"></path>
                <path d="M56.0708672,73.2963082 C55.8456071,73.2963082 55.627026,73.3663593 55.4400176,73.5009793 C55.2050429,73.6709294 55.0496074,73.9218951 55.0028553,74.2088001 C54.9561032,74.4957051 55.0234991,74.7838284 55.1928995,75.0201747 C55.3616927,75.255912 55.6124539,75.4118518 55.8984309,75.4587556 L63.3283692,76.677645 C63.6155606,76.7263762 63.9009305,76.6569343 64.1365124,76.4875933 C64.3714872,76.3176432 64.5269227,76.0660683 64.5736748,75.7797725 C64.6204268,75.4922583 64.553031,75.2047442 64.3836306,74.969007 C64.2148373,74.7326606 63.9640762,74.5773299 63.6780991,74.5298169 L56.248768,73.3109276 C56.1892653,73.3011813 56.1297627,73.2963082 56.0708672,73.2963082 M63.5086987,78.1273985 C63.3720855,78.1273985 63.2348651,78.116434 63.0976447,78.0932867 L55.6677063,76.8743973 C55.0046768,76.7653612 54.4236152,76.4047502 54.0319906,75.8571333 C53.6397588,75.3101254 53.483109,74.6425079 53.5917924,73.9773269 C53.7004758,73.3121458 54.0599204,72.7291987 54.6057662,72.3363034 C55.1516119,71.9427988 55.8170701,71.786859 56.4794925,71.8952859 L63.9088237,73.1141753 C64.5718532,73.2232114 65.1529149,73.5844315 65.5451466,74.1314393 C65.9373784,74.6784471 66.0934211,75.3460647 65.9847377,76.0112457 C65.8760542,76.6758176 65.5166096,77.2587647 64.9707639,77.6522692 C64.5384589,77.964149 64.0308648,78.1273985 63.5086987,78.1273985" id="Fill-19" fill="#2F5266"></path>
                <path d="M58.9211049,81.035738 C58.8828532,81.035738 58.8439944,81.0326923 58.8051355,81.0259918 C58.4153324,80.9620321 58.1506063,80.5935023 58.2143591,80.2024343 L58.7923849,76.6602845 C58.8561378,76.2692166 59.2204397,76.0042406 59.6132786,76.0682003 C60.0030817,76.13216 60.2672007,76.5006898 60.2034478,76.8917578 L59.6260292,80.4339076 C59.5683481,80.7859906 59.2647631,81.035738 58.9211049,81.035738" id="Fill-21" fill="#2F5266"></path>
                <path d="M109.93704,76.6343961 C109.898788,76.6343961 109.859929,76.6313504 109.82107,76.6246498 C109.431267,76.5606901 109.166541,76.1921603 109.230294,75.8010924 L109.80832,72.2589426 C109.872072,71.8678746 110.23941,71.6035078 110.629213,71.6668584 C111.019016,71.7308181 111.283135,72.099957 111.219383,72.4904158 L110.641964,76.0325656 C110.584283,76.3846486 110.280698,76.6343961 109.93704,76.6343961" id="Fill-23" fill="#2F5266"></path>
                <path d="M11.6988286,60.5129545 C11.6605769,60.5129545 11.621718,60.5099088 11.5828592,60.5032082 C11.1930561,60.4392485 10.92833,60.0707188 10.9920828,59.6796508 L11.5701086,56.137501 C11.6338614,55.746433 12.0030207,55.4826753 12.3910023,55.5454168 C12.7808054,55.6093765 13.0449243,55.9785154 12.9811715,56.3689742 L12.4037529,59.911124 C12.3460717,60.263207 12.0424868,60.5129545 11.6988286,60.5129545" id="Fill-25" fill="#2F5266"></path>
                <path d="M34.1735875,112.410657 C34.1353358,112.410657 34.096477,112.407612 34.0576181,112.400911 C33.667815,112.336951 33.4030889,111.968422 33.4668418,111.577354 L34.0448675,108.035204 C34.1086204,107.644136 34.4765653,107.380987 34.8657613,107.44312 C35.2555643,107.507079 35.5196833,107.876218 35.4559304,108.266677 L34.8785118,111.808827 C34.8208307,112.16091 34.5172457,112.410657 34.1735875,112.410657" id="Fill-27" fill="#2F5266"></path>
                <path d="M73.5510463,118.87266 C73.5127946,118.87266 73.4739358,118.869614 73.4350769,118.862913 C73.0452738,118.798954 72.7805477,118.430424 72.8443006,118.039356 L73.4223263,114.497206 C73.4860792,114.106138 73.8540241,113.841771 74.2432201,113.905122 C74.6330231,113.969082 74.8971421,114.33822 74.8333892,114.728679 L74.2559706,118.270829 C74.1982895,118.622912 73.8947045,118.87266 73.5510463,118.87266" id="Fill-29" fill="#2F5266"></path>
                <path d="M24.2139972,110.830365 C22.6037825,110.830365 21.1799691,112.002351 20.9122071,113.647029 L18.5430301,128.175021 C18.2449097,130.003051 19.4847507,131.733009 21.3068676,132.032096 L39.9087325,135.084498 C40.7848787,135.227645 41.6713468,135.01871 42.4005578,134.493022 C43.1291617,133.967335 43.6094331,133.192508 43.7533324,132.311692 L46.1219023,117.784309 C46.2651944,116.903492 46.0563279,116.015366 45.5323403,115.284398 C45.0083526,114.55343 44.2366397,114.0716 43.3580648,113.927234 L24.7568071,110.874832 C24.5740489,110.844375 24.3931123,110.830365 24.2139972,110.830365 M40.4533639,136.564099 C40.1959238,136.564099 39.9366623,136.54217 39.6780079,136.500139 L21.076143,133.447738 C18.4756343,133.020731 16.7063411,130.551277 17.1319672,127.943548 L19.5005371,113.415556 C19.9261632,110.806609 22.3894516,109.033402 24.9869245,109.459191 L43.5887894,112.511592 C44.8444168,112.717481 45.9464302,113.405201 46.6932492,114.44683 C47.4400682,115.489069 47.7381886,116.756689 47.5329652,118.015782 L45.1643953,132.543774 C44.9591719,133.802258 44.273677,134.909065 43.2348093,135.657698 C42.4102726,136.252828 41.4442652,136.564099 40.4533639,136.564099" id="Fill-31" fill="#2F5266"></path>
                <g id="Group-35" transform="translate(55.252463, 115.427789)">
                    <mask id="mask-2" fill="white">
                        <use xlink:href="#path-1"></use>
                    </mask>
                    <g id="Clip-34"></g>
                    <path d="M22.8968028,25.9324961 C24.7207412,26.2309747 26.4432823,24.9877197 26.7414027,23.1596902 L29.1099726,8.63230743 C29.2538718,7.75088167 29.0443982,6.86336451 28.5204106,6.13239636 C27.9964229,5.40142822 27.22471,4.91898924 26.3467422,4.77523217 L7.7442702,1.72222187 C6.86508815,1.57724652 5.98165591,1.788009 5.25305201,2.31369693 C4.5244481,2.83938486 4.04356952,3.61421109 3.90027742,4.49502771 L1.53170756,19.0230197 C1.38780829,19.9044454 1.59728191,20.7919626 2.12066238,21.5229307 C2.64465003,22.2538989 3.41697017,22.7357287 4.29493787,22.8794858 L22.8968028,25.9324961 Z M23.4396127,27.4114883 C23.1846013,27.4114883 22.9259469,27.3913867 22.6660782,27.3481377 L4.0642133,24.2951274 C2.80919307,24.0898472 1.7065725,23.402128 0.959753495,22.3598893 C0.212934491,21.3176505 -0.08518594,20.050639 0.120037493,18.7909373 L2.48921453,4.26355447 C2.69443796,3.00446183 3.37932563,1.89826337 4.41819337,1.14902101 C5.4570611,0.399778663 6.71997454,0.100690862 7.97499477,0.306580224 L26.5774668,3.35959052 C27.832487,3.56547988 28.9345004,4.25319908 29.6813195,5.29543783 C30.4281385,6.33706745 30.7268661,7.60468804 30.5210355,8.86378068 L28.1524656,23.3917726 C27.7699485,25.7393987 25.7377508,27.4114883 23.4396127,27.4114883 L23.4396127,27.4114883 Z" id="Fill-33" fill="#2F5266" mask="url(#mask-2)"></path>
                </g>
                <path d="M90.8710541,106.367744 C89.9214403,106.367744 88.9651477,106.290383 88.0100694,106.133225 C87.6202663,106.069265 87.3555402,105.700735 87.4192931,105.309667 C87.4836531,104.918599 87.8509909,104.654233 88.2401868,104.717583 C92.4745898,105.412612 96.7247793,104.411795 100.208113,101.899701 C103.692054,99.386998 105.992014,95.6645427 106.684188,91.4170086 C106.748548,91.0253315 107.112849,90.7603555 107.505081,90.8243152 C107.895492,90.888275 108.15961,91.2574139 108.095858,91.6478727 C107.341145,96.2742919 104.836569,100.328119 101.042972,103.064377 C98.0356592,105.232916 94.5025374,106.367744 90.8710541,106.367744" id="Fill-36" fill="#2F5266"></path>
                <path d="M4.23756031,73.6561882 L14.3675833,75.3185316 C15.2461582,75.4641161 16.1301976,75.2527444 16.8594086,74.7270565 C17.5880125,74.2013686 18.068284,73.4271515 18.2115761,72.5463349 L19.4089151,65.2025415 C19.5528144,64.3211158 19.3433408,63.4335986 18.8199603,62.7026305 C18.2959727,61.9710532 17.5236525,61.4892234 16.6456848,61.3454663 L6.51626903,59.6831229 C4.69597361,59.3846442 2.96978952,60.6278992 2.67166909,62.4553196 L1.47433,69.7991129 C1.17620957,71.6265333 2.41605055,73.3571004 4.23756031,73.6561882 M14.9116075,76.7975238 C14.6541675,76.7975238 14.3949059,76.776813 14.1368587,76.7341732 L4.00683574,75.0718298 C1.40693414,74.6454317 -0.361751839,72.1759777 0.0632671058,69.5676397 L1.26060619,62.2238463 C1.68562514,59.6155083 4.14952068,57.8429106 6.7469936,58.2668721 L16.8764094,59.9292155 C19.476311,60.3562227 21.2456042,62.8256768 20.8205852,65.4334057 L19.622639,72.7778081 C19.4174155,74.0369008 18.7325278,75.1424901 17.6936601,75.8917324 C16.8691234,76.4862532 15.9025088,76.7975238 14.9116075,76.7975238" id="Fill-38" fill="#2F5266"></path>
                <path d="M23.0011753,95.4555467 C22.9629236,95.4555467 22.9240647,95.452501 22.8852058,95.4458004 C18.2737503,94.6892484 14.2330344,92.1765454 11.5056271,88.3706379 C8.77882702,84.5647304 7.69260003,79.9206461 8.44670508,75.294836 C8.51045792,74.9037681 8.87718855,74.6406195 9.26759881,74.7027518 C9.6574019,74.7667115 9.92152082,75.1358505 9.85776797,75.5263093 C9.16498709,79.7744525 10.1625673,84.0384334 12.666536,87.5330702 C15.171112,91.0277071 18.8815273,93.3357391 23.1153232,94.0301588 C23.5057335,94.0941185 23.7698524,94.4632574 23.7060995,94.8537162 C23.6484184,95.2057992 23.3448334,95.4555467 23.0011753,95.4555467" id="Fill-40" fill="#2F5266"></path>
                <g id="Group-44" transform="translate(100.790207, 50.249796)">
                    <mask id="mask-4" fill="white">
                        <use xlink:href="#path-3"></use>
                    </mask>
                    <g id="Clip-43"></g>
                    <path d="M11.443878,1.65076973 C6.70309521,1.65076973 2.51180125,5.10093939 1.72187318,9.94360337 C1.29685423,12.5507231 1.90948869,15.1669799 3.44623576,17.3117623 C4.98237566,19.4565447 7.25987003,20.8727955 9.85795013,21.2991936 C12.4572446,21.7262008 15.0644322,21.1115784 17.2022775,19.5698447 C19.3401228,18.0281111 20.7517929,15.7432265 21.1768118,13.1367159 C22.0541723,7.75557205 18.4038668,2.6613332 13.0407349,1.78112572 C12.5046038,1.69340954 11.9702943,1.65076973 11.443878,1.65076973 M11.4730221,22.865902 C10.8609948,22.865902 10.243503,22.8159525 9.62722556,22.7148352 C6.65209294,22.2263048 4.04429813,20.605383 2.28532687,18.14933 C0.525141265,15.693277 -0.175532824,12.6969167 0.310810283,9.71213013 C1.3156765,3.55067778 7.13479303,-0.64142455 13.2714594,0.365484074 C19.4129832,1.37361098 23.5921337,7.2067368 22.5878747,13.3681891 C22.1009244,16.3529758 20.4852453,18.9692326 18.0371361,20.7345207 C16.0966211,22.1337155 13.8173052,22.865902 11.4730221,22.865902" id="Fill-42" fill="#2F5266" mask="url(#mask-4)"></path>
                </g>
                <path d="M4.27405123,44.0718362 C3.39669069,49.45298 7.04638909,54.5472189 12.4101282,55.4274263 C15.0088154,55.8538244 17.6172174,55.239202 19.7544555,53.6980775 C21.8923008,52.1557347 23.3039709,49.8714593 23.7289898,47.2649487 C24.1540088,44.657829 23.5413743,42.0415721 22.0046273,39.8967897 C20.4678802,37.7520074 18.190993,36.3357566 15.5929129,35.9093585 C12.9936185,35.4835696 10.3858237,36.0969737 8.24797836,37.6387073 C6.11013307,39.180441 4.69907017,41.4653256 4.27405123,44.0718362 M14.0258073,56.9941347 C13.4131729,56.9941347 12.7962882,56.9441852 12.1794036,56.843068 C6.03787985,55.8349411 1.85812211,50.0018153 2.86298833,43.8403629 C3.34993861,40.8555763 4.96561777,38.2393195 7.41372689,36.4740314 C9.86122884,34.7087433 12.8472905,34.0051865 15.8230303,34.4937169 C18.7987701,34.9822472 21.4059577,36.6031691 23.1655362,39.0592221 C24.9257218,41.5152751 25.6263958,44.5116353 25.1400527,47.4964219 C24.6531025,50.4812085 23.0368161,53.0968562 20.5893142,54.8627534 C18.6487991,56.2619483 16.3694832,56.9941347 14.0258073,56.9941347" id="Fill-45" fill="#2F5266"></path>
                <path d="M54.7044313,43.1069582 C54.4809927,45.5270719 55.1264144,47.9197743 56.554478,49.9122717 C58.1221908,52.1009121 60.44583,53.5457925 63.0967339,53.9807185 C65.7488521,54.4162537 68.4088636,53.7888394 70.5898179,52.2160396 C72.5764779,50.783342 73.9480748,48.7220119 74.5048496,46.3561116 L54.7044313,43.1069582 Z M64.7445931,55.5498635 C64.1210296,55.5498635 63.4932159,55.4993049 62.8660094,55.3963602 C59.838053,54.8993018 57.1841132,53.2491413 55.3935691,50.7498393 C53.6024179,48.2505374 52.8889932,45.2011819 53.3844439,42.1634001 L53.4998061,41.4555793 L76.1709238,45.1755981 L76.0561687,45.884028 C75.5607181,48.9218098 73.9158947,51.5843613 71.4246766,53.3807155 C69.4495528,54.8048851 67.1295565,55.5498635 64.7445931,55.5498635 L64.7445931,55.5498635 Z" id="Fill-47" fill="#2F5266"></path>
                <path d="M48.4993368,22.3694528 C48.1987877,22.3694528 47.9055246,22.4644786 47.6541563,22.6453932 C47.3384279,22.8732116 47.1301687,23.2082387 47.0682373,23.5895604 L45.6104223,32.5293009 C45.548491,32.9106226 45.6395665,33.29499 45.866648,33.612352 C46.0937296,33.9291049 46.4276731,34.1380399 46.8077614,34.2001722 C47.188457,34.2629137 47.570974,34.1715426 47.8867024,33.9431151 C48.2030379,33.7159058 48.41069,33.3802696 48.4732285,32.999557 L49.9304363,24.0592075 C50.0597635,23.2679344 49.5230253,22.5180829 48.7337044,22.3889452 C48.6553795,22.3761533 48.5770546,22.3694528 48.4993368,22.3694528 M47.0433434,35.6541897 C46.8897294,35.6541897 46.7336867,35.6413978 46.5770369,35.6158139 C45.0099313,35.3587567 43.9431337,33.8706274 44.1993594,32.2978276 L45.6571744,23.3580872 C45.7804299,22.5984894 46.1939126,21.9320901 46.8199048,21.4807173 C47.445897,21.0287353 48.2054666,20.8484299 48.964429,20.9733036 C50.5315345,21.2297516 51.5983321,22.71849 51.3421064,24.2906807 L49.8842914,33.2310303 C49.6535668,34.6454537 48.4289051,35.6541897 47.0433434,35.6541897" id="Fill-49" fill="#2F5266"></path>
                <path d="M86.7400521,28.6449361 C86.439503,28.6449361 86.1462399,28.739962 85.8948716,28.9208766 C85.5791432,29.148695 85.3708839,29.4837221 85.3089526,29.8650438 L83.8511376,38.8047842 C83.7892063,39.186106 83.8802818,39.5704734 84.1073633,39.8878354 C84.3344449,40.2045883 84.6683883,40.4135233 85.0484767,40.4756556 L85.0484767,40.4756556 C85.4291722,40.538397 85.8116893,40.447026 86.1274176,40.2192076 C86.443146,39.9913892 86.6514053,39.655753 86.7139438,39.2750404 L88.1711516,30.3346908 C88.3004788,29.5434178 87.7637406,28.7935663 86.9744197,28.6644286 C86.8960948,28.6516367 86.8177698,28.6449361 86.7400521,28.6449361 M85.285273,41.9296731 C85.1304446,41.9296731 84.9737948,41.9168811 84.8177521,41.8912973 C83.2506466,41.6342401 82.183849,40.1461108 82.4400747,38.573311 L83.8978897,29.6335706 C84.0211452,28.8739728 84.4346279,28.2075735 85.0606201,27.7562007 C85.6866123,27.3042187 86.4461818,27.1245224 87.2051442,27.248787 C88.7722498,27.505235 89.8390474,28.9939734 89.5828217,30.5661641 L88.1250067,39.5065137 C88.001144,40.2655023 87.5882685,40.9325107 86.9622763,41.3838835 C86.4650041,41.7420579 85.8833353,41.9296731 85.285273,41.9296731" id="Fill-51" fill="#2F5266"></path>
                <path d="M14.4417794,43.6902099 C14.4035277,43.6902099 14.3646689,43.6871642 14.32581,43.6804636 C13.9360069,43.6165039 13.6712808,43.2479741 13.7350337,42.8569062 L15.0021973,35.0861056 C15.0665573,34.6944285 15.4338951,34.4300617 15.823091,34.4934123 C16.2128941,34.557372 16.4776202,34.9265109 16.4138674,35.3169697 L15.1467037,43.0883794 C15.0890226,43.4404624 14.7854376,43.6902099 14.4417794,43.6902099" id="Fill-53" fill="#2F5266"></path>
                <path d="M14.0003062,43.6542706 C13.034906,43.6542706 12.1806179,44.3566092 12.0203251,45.342807 C11.84121,46.4392592 12.5849931,47.4766249 13.6772918,47.6557121 C14.203101,47.7434282 14.7343746,47.6167271 15.171537,47.3011925 C15.6080921,46.9856579 15.8964979,46.5214932 15.982716,45.9933687 C16.0689341,45.4658533 15.9432499,44.9334649 15.6287359,44.494884 C15.3148291,44.0563031 14.8515584,43.7669615 14.3251421,43.6804636 C14.2158515,43.6627986 14.1077753,43.6542706 14.0003062,43.6542706 M14.0045564,49.1176484 C13.8193696,49.1176484 13.6329684,49.1024199 13.4459601,49.0719629 C11.5758767,48.7649562 10.3032485,46.9887036 10.6092622,45.1119429 C10.9146687,43.2351822 12.6863905,41.9584245 14.5564738,42.264822 L14.5564738,42.264822 C15.4593355,42.4134522 16.2529066,42.9080739 16.790252,43.6573163 C17.3269902,44.4071678 17.5419283,45.3190506 17.3937789,46.2254511 C17.2462366,47.1312424 16.7532146,47.9273886 16.0057884,48.4658684 C15.4131906,48.8934848 14.717981,49.1176484 14.0045564,49.1176484" id="Fill-55" fill="#2F5266"></path>
                <path d="M112.67999,59.811956 C112.641739,59.811956 112.60288,59.8089103 112.564021,59.8022098 C112.174218,59.7382501 111.909492,59.3697203 111.973245,58.9786523 L113.240408,51.2078518 C113.304768,50.8161747 113.672106,50.5542444 114.061302,50.6151584 C114.451105,50.6791182 114.715831,51.0482571 114.652078,51.4387159 L113.384915,59.2101256 C113.327234,59.5622086 113.023649,59.811956 112.67999,59.811956" id="Fill-57" fill="#2F5266"></path>
                <path d="M112.239124,59.7759558 C111.822606,59.7759558 111.417016,59.906921 111.069715,60.1572776 C110.632553,60.4728121 110.344147,60.9369769 110.258536,61.4644923 C110.172318,61.9926168 110.298002,62.5250052 110.611909,62.9635861 C110.926423,63.402167 111.389087,63.6915086 111.915503,63.7773973 C113.01023,63.9558754 114.042419,63.210897 114.220927,62.1150539 C114.399435,61.0192108 113.655652,59.9812361 112.56396,59.8021489 L112.563353,59.8021489 C112.455277,59.7844838 112.346593,59.7759558 112.239124,59.7759558 M112.241553,65.2387245 C112.057581,65.2387245 111.871787,65.2241051 111.684778,65.1936481 C110.781309,65.0450179 109.987738,64.5503961 109.451,63.8005446 C108.913655,63.0513023 108.699324,62.1394195 108.847473,61.233019 C108.995016,60.3272277 109.488037,59.5310815 110.234856,58.9919925 C110.982283,58.4541218 111.890609,58.237877 112.794685,58.3865072 C114.664768,58.6935138 115.938004,60.4697664 115.63199,62.3465272 C115.356335,64.0356727 113.894877,65.2387245 112.241553,65.2387245" id="Fill-59" fill="#2F5266"></path>
                <path d="M29.4932789,92.6944973 C29.3985604,92.6944973 29.3056634,92.7243451 29.2273385,92.7809952 C29.1277626,92.8528737 29.0621883,92.9588641 29.0427588,93.0794738 C29.0227222,93.2006927 29.0512592,93.3225207 29.1229053,93.4218106 C29.1939442,93.5211004 29.2995917,93.5868875 29.4204185,93.6069892 C29.5412454,93.6264816 29.6620722,93.5984612 29.7610409,93.5265827 C29.8606167,93.4553133 29.9261911,93.3493229 29.9456205,93.228104 L29.9456205,93.2274949 C29.9656571,93.1068851 29.9371201,92.9856662 29.8654741,92.8857673 C29.7944352,92.7864774 29.6887876,92.7206903 29.5679608,92.7005887 C29.5430669,92.6963247 29.5181729,92.6944973 29.4932789,92.6944973 M29.4981363,95.0482147 C29.3955246,95.0482147 29.2923057,95.0396867 29.189694,95.0226308 C28.6918146,94.941006 28.2558666,94.6699387 27.9619964,94.2593782 C27.667519,93.8488178 27.549728,93.3474955 27.6316959,92.8480006 C27.7124495,92.3491148 27.9832473,91.9117522 28.3924799,91.6163192 C28.8017124,91.3214954 29.3001989,91.2033222 29.7986854,91.284947 C30.8260169,91.4536788 31.5248695,92.4289122 31.3566834,93.4595772 C31.2759298,93.9590721 31.005132,94.3964348 30.5958995,94.6912586 C30.2716708,94.9257775 29.8903681,95.0482147 29.4981363,95.0482147" id="Fill-61" fill="#2F5266"></path>
                <path d="M28.6055965,98.1431338 C28.385801,98.1431338 28.1908994,98.3033377 28.1538621,98.5281104 C28.1131817,98.7778578 28.2831893,99.0148133 28.5321289,99.0556257 C28.6529558,99.0763365 28.7737826,99.0464886 28.8727513,98.9752192 C28.9723271,98.9039498 29.0372943,98.7973503 29.0573309,98.6761314 C29.0773675,98.5555217 29.0488305,98.4336937 28.9771845,98.3344038 C28.9061456,98.2345048 28.800498,98.1687177 28.6796712,98.1492252 C28.6547773,98.1449612 28.6298833,98.1431338 28.6055965,98.1431338 M28.6098467,100.496242 C28.507235,100.496242 28.4040161,100.488323 28.3007972,100.471267 C27.2740729,100.302536 26.5752203,99.3266931 26.7427992,98.2966371 C26.9109853,97.2659721 27.8824571,96.56607 28.9103958,96.7335836 C29.9377273,96.9017063 30.6365799,97.8775487 30.4683938,98.9082138 C30.3870331,99.4070996 30.1168424,99.8444622 29.7076099,100.139895 C29.382774,100.373805 29.0014713,100.496242 28.6098467,100.496242" id="Fill-63" fill="#2F5266"></path>
                <path d="M67.6987176,98.9646202 C67.4783149,98.9646202 67.2840206,99.1248241 67.2469832,99.3495968 C67.2275538,99.4702065 67.2560907,99.5920345 67.3271296,99.6913244 C67.3987757,99.7912233 67.5044232,99.8570105 67.6246429,99.876503 C67.7454697,99.8959954 67.8669037,99.867975 67.9658724,99.7960965 C68.0654483,99.7248271 68.1304154,99.6188367 68.150452,99.4976178 C68.1704887,99.3763989 68.1419517,99.25518 68.0703056,99.1552811 C67.9992667,99.0559912 67.8936192,98.9902041 67.7727924,98.9707116 C67.7478984,98.9664476 67.7230044,98.9646202 67.6987176,98.9646202 M67.7029678,101.317728 C67.6003561,101.317728 67.4971372,101.309201 67.3939183,101.292145 C66.367194,101.124022 65.6683414,100.148789 65.8359203,99.1175144 C66.0041064,98.0874584 66.9743639,97.3845107 68.0035169,97.55507 C68.5007891,97.6360856 68.9373443,97.9077621 69.2312145,98.3183225 C69.5256919,98.728883 69.6434829,99.2302053 69.5615149,99.7290911 C69.4801542,100.228586 69.2099636,100.665949 68.800731,100.960772 C68.4758951,101.195291 68.0945924,101.317728 67.7029678,101.317728" id="Fill-65" fill="#2F5266"></path>
                <path d="M66.809578,104.412709 C66.7142523,104.412709 66.6219625,104.442556 66.5436376,104.499206 C66.4440617,104.570476 66.3790945,104.677075 66.3590579,104.798294 C66.3390213,104.918904 66.3675583,105.040123 66.4392043,105.140022 C66.5102432,105.239312 66.6158908,105.305099 66.7367176,105.3252 C66.8563301,105.345911 66.9783712,105.316672 67.0773399,105.244794 C67.1769158,105.173525 67.2424901,105.066925 67.2625268,104.945706 C67.2819562,104.825096 67.2534192,104.703878 67.1823803,104.603979 C67.1107343,104.50408 67.0050867,104.438292 66.8848671,104.4188 C66.8599731,104.414536 66.834472,104.412709 66.809578,104.412709 M66.8113995,106.765817 C66.7106093,106.765817 66.6086047,106.757898 66.505993,106.740842 C66.0087209,106.659217 65.5721657,106.38815 65.2782954,105.97698 C64.983818,105.56642 64.8660271,105.065098 64.947995,104.566212 C65.0293558,104.067326 65.2995464,103.629354 65.7087789,103.334531 C66.1186186,103.039098 66.6195338,102.922143 67.1155916,103.003158 C67.6128638,103.084783 68.0488118,103.35585 68.3432892,103.766411 C68.6377666,104.176971 68.7549504,104.678294 68.6735896,105.177179 L68.6735896,105.177789 C68.5217972,106.1049 67.7197257,106.765817 66.8113995,106.765817" id="Fill-67" fill="#2F5266"></path>
                <path d="M104.117316,79.6172943 C104.02199,79.6172943 103.9297,79.6471422 103.851376,79.7037922 C103.7518,79.7750616 103.686832,79.8816612 103.666796,80.00288 C103.647366,80.1234898 103.675296,80.2447087 103.746942,80.3446076 C103.817981,80.4438975 103.923629,80.5096846 104.044456,80.5297862 C104.295217,80.5718169 104.529584,80.4006485 104.570265,80.1509011 C104.589694,80.0296822 104.561157,79.9084633 104.490118,79.8085643 C104.418472,79.7086654 104.312825,79.6428782 104.192605,79.6233857 C104.167711,79.6191218 104.14221,79.6172943 104.117316,79.6172943 M104.119137,81.9704026 C104.018347,81.9704026 103.916343,81.9624838 103.813731,81.9454279 C103.316459,81.8638031 102.879904,81.5927358 102.586033,81.1815662 C102.291556,80.7716149 102.174372,80.2702926 102.255733,79.7707977 C102.337094,79.2719119 102.607284,78.8339401 103.016517,78.5391163 C103.426357,78.2436834 103.927272,78.1267285 104.42333,78.2077441 C105.450054,78.3758668 106.148907,79.3511001 105.981328,80.3823743 L105.981328,80.3823743 C105.829535,81.3094856 105.027464,81.9704026 104.119137,81.9704026" id="Fill-69" fill="#2F5266"></path>
                <path d="M103.229087,85.0656873 C103.133761,85.0656873 103.041472,85.0955351 102.963147,85.1521852 C102.863571,85.2234546 102.797996,85.3300541 102.778567,85.4506638 C102.75853,85.5718827 102.787067,85.6931016 102.858713,85.7930006 C102.929752,85.8922904 103.0354,85.9580775 103.156227,85.9781792 C103.276446,85.9976717 103.39788,85.9690421 103.496849,85.8977727 C103.596425,85.8265033 103.661999,85.7205129 103.681429,85.599294 L103.681429,85.5986849 C103.701465,85.4780751 103.672928,85.3568562 103.601282,85.2569573 C103.530243,85.1570583 103.424596,85.0912711 103.304376,85.0717787 C103.279482,85.0675147 103.253981,85.0656873 103.229087,85.0656873 M103.233944,87.4187956 C103.131333,87.4187956 103.028114,87.4108767 102.925502,87.3938208 C102.42823,87.312196 101.991675,87.0411287 101.697805,86.6299591 C101.403327,86.2193987 101.285536,85.7180763 101.367504,85.2191906 C101.448258,84.7203048 101.719055,84.2823331 102.128288,83.9869001 C102.537521,83.6920763 103.037829,83.5745122 103.535101,83.656137 C104.032373,83.7377618 104.468321,84.0088291 104.762798,84.4193896 C105.056669,84.8305592 105.17446,85.3318815 105.092492,85.8307673 C105.011738,86.329653 104.74094,86.7670156 104.331708,87.0624486 C104.007479,87.2963584 103.626176,87.4187956 103.233944,87.4187956" id="Fill-71" fill="#2F5266"></path>
                <path d="M5.82579539,63.4870202 C5.73046972,63.4870202 5.63817989,63.5168681 5.55985497,63.5735181 C5.4602791,63.6447875 5.39531192,63.751387 5.37527531,63.8719968 C5.35584588,63.9932157 5.38377569,64.1144345 5.45542174,64.2143335 C5.52646062,64.3136234 5.63210819,64.3794105 5.752935,64.3995121 C5.87254748,64.4196137 5.9951958,64.390375 6.0941645,64.3191056 C6.1931332,64.2478362 6.25870755,64.1418459 6.27874416,64.020627 L6.27874416,64.0200178 C6.29817359,63.8994081 6.26963661,63.7781892 6.19859773,63.6782902 C6.12755885,63.5783912 6.02130411,63.5126041 5.90108447,63.4931116 C5.8761905,63.4888476 5.85068936,63.4870202 5.82579539,63.4870202 M5.83125992,65.8401285 C5.72864821,65.8401285 5.62482215,65.8322097 5.52221043,65.8151538 C5.02493827,65.733529 4.5883831,65.4624616 4.29451285,65.0512921 C4.00003544,64.6407316 3.88285165,64.1394093 3.96421242,63.6405235 C4.04557319,63.1416378 4.3157638,62.7042752 4.7256035,62.4088422 C5.13422885,62.1134092 5.63453687,61.9958452 6.13180904,62.07747 C6.6290812,62.1590948 7.06563637,62.4301621 7.35950662,62.8407225 C7.65398403,63.2518921 7.77116782,63.7532145 7.68980705,64.2521002 C7.60844628,64.7515951 7.33825567,65.1883486 6.92841597,65.4837815 C6.60418723,65.7176914 6.22288452,65.8401285 5.83125992,65.8401285" id="Fill-73" fill="#2F5266"></path>
                <path d="M4.93756652,68.9353522 C4.84224084,68.9353522 4.74995101,68.9652001 4.67162609,69.0218501 C4.57205022,69.0931195 4.50708304,69.199719 4.48704644,69.3209379 C4.467617,69.4415477 4.49554681,69.5627666 4.56719287,69.6626655 C4.63823175,69.7619554 4.74387931,69.8277425 4.86470613,69.8478441 C5.11486013,69.8892657 5.34983489,69.7180973 5.39051528,69.468959 C5.43058849,69.2192115 5.26118809,68.982256 5.01224842,68.9414436 C4.98735445,68.9371796 4.96246048,68.9353522 4.93756652,68.9353522 M4.93938803,71.2884605 C4.83859782,71.2884605 4.73659327,71.2805417 4.63398156,71.2634858 C4.13670939,71.181861 3.70015422,70.9107936 3.40628398,70.4996241 C3.11180656,70.0896728 2.99462277,69.5883504 3.07598354,69.0888555 C3.15734431,68.5899698 3.42753492,68.151998 3.83676745,67.8571742 C4.24660715,67.5623504 4.74691516,67.4441772 5.24358016,67.525802 C6.27030449,67.6945338 6.96915707,68.6697671 6.80157818,69.7004322 L6.80157818,69.7004322 C6.6497857,70.6275435 5.84771423,71.2884605 4.93938803,71.2884605" id="Fill-75" fill="#2F5266"></path>
                <path d="M25.2750873,118.565409 C25.1797617,118.565409 25.0874718,118.595257 25.0091469,118.651907 C24.909571,118.723177 24.8439967,118.829167 24.8245673,118.950386 C24.8045306,119.071605 24.8330676,119.192824 24.9047137,119.292723 C24.9757526,119.392012 25.0814001,119.4578 25.2022269,119.477901 C25.3224466,119.498003 25.4438806,119.469373 25.5428493,119.397495 C25.6424251,119.326225 25.7079995,119.219626 25.7274289,119.098407 L25.7274289,119.098407 C25.7474655,118.977797 25.7189285,118.856578 25.6472825,118.756679 C25.5762436,118.65678 25.470596,118.590993 25.3503764,118.571501 C25.3254824,118.567237 25.2999813,118.565409 25.2750873,118.565409 M25.2799447,120.918518 C25.177333,120.918518 25.0741141,120.910599 24.9715024,120.893543 C24.4742302,120.811918 24.037675,120.540851 23.7431976,120.129681 C23.4493274,119.719121 23.3315364,119.217798 23.4135044,118.718303 C23.494258,118.220027 23.7650557,117.782055 24.1742883,117.486622 C24.584128,117.192407 25.0832216,117.073625 25.581101,117.155859 C26.0783731,117.237484 26.5143211,117.508551 26.8087986,117.919112 C27.1026688,118.330281 27.2204598,118.830994 27.1384918,119.32988 L27.1384918,119.330489 C27.0577382,119.829375 26.7869404,120.266738 26.3777079,120.562171 C26.0534792,120.79608 25.6721765,120.918518 25.2799447,120.918518" id="Fill-77" fill="#2F5266"></path>
                <path d="M24.3874656,124.014046 C24.1670629,124.014046 23.9727686,124.17425 23.9357312,124.399022 C23.8950508,124.64877 24.0644512,124.885116 24.3133909,124.925929 C24.4330034,124.94603 24.5556517,124.917401 24.6546204,124.845522 C24.7541963,124.774253 24.8191634,124.668262 24.8392,124.547043 C24.8592367,124.425825 24.8306997,124.304606 24.7590536,124.204707 C24.6880147,124.105417 24.5823672,124.03963 24.4615404,124.020137 C24.4366464,124.015873 24.4117524,124.014046 24.3874656,124.014046 M24.3917158,126.367154 C24.2891041,126.367154 24.1858852,126.358626 24.0826663,126.34157 C23.055942,126.173448 22.3570894,125.198214 22.5246683,124.16694 C22.6928544,123.136884 23.6612904,122.433936 24.6922649,122.604496 C25.1895371,122.685511 25.6260923,122.957188 25.9199625,123.367748 C26.2144399,123.778309 26.3322309,124.279631 26.2502629,124.778517 C26.1689022,125.278012 25.8987116,125.715374 25.489479,126.010198 C25.1646431,126.244717 24.7833404,126.367154 24.3917158,126.367154" id="Fill-79" fill="#2F5266"></path>
                <path d="M63.4796153,124.834984 C63.3848968,124.834984 63.2919998,124.864832 63.2136748,124.921482 C63.114099,124.992751 63.0491318,125.099351 63.0290952,125.219961 C63.0096658,125.341179 63.0375956,125.463007 63.1092416,125.562297 C63.1808877,125.661587 63.2865352,125.727983 63.4067549,125.747476 C63.6532659,125.788288 63.8912765,125.618338 63.932564,125.367982 C63.9519935,125.247372 63.9234565,125.126153 63.8524176,125.026254 C63.7813787,124.926964 63.675124,124.861177 63.5542972,124.841075 C63.5294032,124.836811 63.5045092,124.834984 63.4796153,124.834984 M63.4814368,127.188092 C63.3806466,127.188092 63.278642,127.180173 63.1760303,127.163118 C62.678151,127.081493 62.242203,126.810425 61.9483327,126.399256 C61.6538553,125.988695 61.5366715,125.487373 61.6180323,124.988487 C61.6993931,124.489602 61.9695837,124.052239 62.3794234,123.756806 C62.7886559,123.461373 63.2877496,123.343809 63.7856289,123.425434 C64.2829011,123.507059 64.7194563,123.778735 65.0133265,124.188686 C65.3078039,124.599856 65.4249877,125.101178 65.3436269,125.600064 C65.1918345,126.527175 64.3891558,127.188092 63.4814368,127.188092" id="Fill-81" fill="#2F5266"></path>
                <path d="M62.5914471,130.283316 C62.4961214,130.283316 62.4038316,130.313164 62.3255067,130.369814 C62.2259308,130.441692 62.1609636,130.547683 62.140927,130.668902 C62.0996395,130.918649 62.2696471,131.154996 62.5191939,131.195808 C62.7650977,131.23662 63.0031083,131.06667 63.0443959,130.816314 C63.0844691,130.566566 62.9150687,130.33022 62.666129,130.289407 C62.641235,130.285753 62.6163411,130.283316 62.5914471,130.283316 M62.5932686,132.636424 C62.4924784,132.636424 62.3904739,132.628505 62.2878622,132.61145 C61.2605306,132.442109 60.5616781,131.466875 60.7298641,130.436819 C60.8112249,129.937934 61.0814155,129.499962 61.490648,129.205138 C61.9004877,128.909705 62.4001886,128.792141 62.8974608,128.873766 C63.9241851,129.042498 64.6230377,130.017731 64.4554588,131.047787 L64.4554588,131.048396 C64.3036663,131.975507 63.5009877,132.636424 62.5932686,132.636424" id="Fill-83" fill="#2F5266"></path>
                <path d="M69.3215614,13.6476017 C68.9487591,13.7810034 68.7538575,14.1927821 68.8868277,14.5667942 C69.0197979,14.9408062 69.4302448,15.1363402 69.8030471,15.0029385 C70.1764566,14.8695368 70.370751,14.4577581 70.2377808,14.0837461 C70.1048106,13.7091249 69.6943637,13.5142 69.3215614,13.6476017" id="Fill-85" fill="#2F5266"></path>
                <path d="M111.998685,61.1123484 C111.625883,61.24575 111.430981,61.6575288 111.563951,62.0315408 C111.696922,62.4055528 112.107369,62.6010868 112.480171,62.4676851 C112.85358,62.3342834 113.047875,61.9225047 112.914905,61.5484927 C112.781934,61.1738715 112.371487,60.9789467 111.998685,61.1123484" id="Fill-87" fill="#2F5266"></path>
                <path d="M13.7605955,44.9907849 C13.3877932,45.1241866 13.1928916,45.5359654 13.3258618,45.9099774 C13.4588321,46.2839894 13.8692789,46.4795234 14.2420813,46.3461217 C14.6154908,46.21272 14.8097851,45.8009413 14.6768149,45.4269293 C14.5438447,45.0523081 14.1333978,44.8573833 13.7605955,44.9907849" id="Fill-89" fill="#2F5266"></path>
                <path d="M42.7540522,8.61531242 C42.4759683,8.61531242 42.2112423,8.45084459 42.09588,8.17794981 L39.0600304,0.997406038 C38.9058092,0.632531104 39.0752096,0.211615279 39.4389044,0.0568936875 C39.8038135,-0.0972187637 40.2221536,0.0727313307 40.3757676,0.436997125 L43.4116172,7.6175409 C43.5658383,7.98241583 43.3964379,8.40333166 43.0327432,8.55805325 C42.9416677,8.59703822 42.8469492,8.61531242 42.7540522,8.61531242" id="Fill-91" fill="#2F5266"></path>
                <path d="M37.5050682,11.3332347 C37.2676648,11.3332347 37.0357258,11.2144524 36.8997198,10.9982077 L33.4837818,5.56224121 C33.2730938,5.22721414 33.3732769,4.78436927 33.7072203,4.57299765 C34.0411638,4.36223517 34.4825763,4.46274329 34.6932643,4.79777035 L38.1092023,10.2331277 C38.3198902,10.5687639 38.2197072,11.0116088 37.8857637,11.2223712 C37.7673656,11.2972955 37.6356097,11.3332347 37.5050682,11.3332347" id="Fill-93" fill="#2F5266"></path>
                <path d="M102.057188,15.1995689 C101.662528,15.1995689 101.341942,14.8785521 101.341942,14.4820019 L101.341942,8.69517069 C101.341942,8.29922961 101.662528,7.97821277 102.057188,7.97821277 C102.451849,7.97821277 102.772435,8.29922961 102.772435,8.69517069 L102.772435,14.4820019 C102.772435,14.8785521 102.451849,15.1995689 102.057188,15.1995689" id="Fill-95" fill="#2F5266"></path>
                <path d="M104.941246,12.3061533 L99.1731313,12.3061533 C98.7784708,12.3061533 98.4578851,11.9851365 98.4578851,11.5885863 C98.4578851,11.1926452 98.7784708,10.8716284 99.1731313,10.8716284 L104.941246,10.8716284 C105.335906,10.8716284 105.656492,11.1926452 105.656492,11.5885863 C105.656492,11.9851365 105.335906,12.3061533 104.941246,12.3061533" id="Fill-97" fill="#2F5266"></path>
            </g>
        </g>
    </g>
</svg>