<?xml version="1.0" encoding="UTF-8"?>
<svg width="113px" height="106px" viewBox="0 0 113 106" version="1.1" xmlns="http://www.w3.org/2000/svg" xmlns:xlink="http://www.w3.org/1999/xlink">
    <!-- Generator: Sketch 43.2 (39069) - http://www.bohemiancoding.com/sketch -->
    <title>Page 1</title>
    <desc>Created with Sketch.</desc>
    <defs></defs>
    <g id="Design-1" stroke="none" stroke-width="1" fill="none" fill-rule="evenodd">
        <g id="Page-1">
            <path d="M51.9208516,10.5938167 C51.6542422,10.5938167 51.3885156,10.4922333 51.1854687,10.2881833 C48.4355078,7.53571667 48.4355078,3.05721667 51.1854687,0.30475 C51.5924453,-0.1007 52.2492578,-0.1007 52.6562344,0.30475 C53.0614453,0.711083333 53.0614453,1.37005 52.6562344,1.77638333 C50.7158125,3.71706667 50.7158125,6.87586667 52.6562344,8.81831667 C53.0623281,9.22465 53.0614453,9.88273333 52.6553516,10.2890667 C52.4531875,10.4922333 52.1874609,10.5938167 51.9208516,10.5938167" id="Fill-1" fill="#2F5266"></path>
            <path d="M46.1730359,10.5938167 C45.9064266,10.5938167 45.6407,10.4922333 45.4376531,10.2881833 C42.6876922,7.53571667 42.6876922,3.05721667 45.4376531,0.30475 C45.8446297,-0.1007 46.5014422,-0.1007 46.9084187,0.30475 C47.3136297,0.711083333 47.3136297,1.37005 46.9084187,1.77638333 C44.9679969,3.71706667 44.9679969,6.87586667 46.9084187,8.81831667 C47.3145125,9.22465 47.3136297,9.88273333 46.9075359,10.2890667 C46.7053719,10.4922333 46.4396453,10.5938167 46.1730359,10.5938167" id="Fill-3" fill="#2F5266"></path>
            <path d="M93.6466312,91.0927783 C86.9266625,91.0927783 81.4585219,85.622295 81.4585219,78.8974783 C81.4585219,78.3233117 81.9246469,77.857795 82.498475,77.857795 C83.0723031,77.857795 83.5384281,78.3233117 83.5384281,78.8974783 C83.5384281,84.474845 88.0734359,89.0125283 93.6466312,89.0125283 C99.2207094,89.0125283 103.755717,84.474845 103.755717,78.8974783 C103.755717,78.3233117 104.221842,77.857795 104.79567,77.857795 C105.369498,77.857795 105.835623,78.3233117 105.835623,78.8974783 C105.835623,85.622295 100.367483,91.0927783 93.6466312,91.0927783" id="Fill-5" fill="#2F5266"></path>
            <path d="M59.2049375,104.806175 L37.1266797,104.806175 C37.1266797,100.495508 40.6190859,97.001925 44.9263281,97.001925 L44.9263281,75.542225" id="Fill-7" fill="#FEFEFE"></path>
            <path d="M59.2049375,105.8463 L37.1266797,105.8463 C36.5528516,105.8463 36.0867266,105.380783 36.0867266,104.805733 C36.0867266,100.280417 39.5014453,96.5386167 43.886375,96.02275 L43.886375,75.5426667 C43.886375,74.9685 44.3525,74.5029833 44.9263281,74.5029833 C45.5010391,74.5029833 45.9662812,74.9685 45.9662812,75.5426667 L45.9662812,97.0014833 C45.9662812,97.5765333 45.5010391,98.04205 44.9263281,98.04205 C41.5522187,98.04205 38.7475234,100.52775 38.2460859,103.76605 L59.2049375,103.76605 C59.7787656,103.76605 60.2448906,104.231567 60.2448906,104.805733 C60.2448906,105.380783 59.7787656,105.8463 59.2049375,105.8463" id="Fill-9" fill="#2F5266"></path>
            <path d="M78.7787445,84.6075217 C78.7787445,84.6075217 87.228143,79.8525383 86.9632992,75.174405 L86.9624164,75.169105 C86.6975727,70.4909717 90.5625258,66.6237383 95.2387836,66.8887383 L95.241432,66.8887383 C99.9176898,67.155505 103.782643,63.2873883 103.516916,58.609255 C103.25119,53.929355 107.117026,50.0612383 111.794166,50.328005 L60.2599867,50.328005 L78.7787445,84.6075217 Z" id="Fill-11" fill="#E14E3A"></path>
            <path d="M62.002482,51.3685717 L79.1758336,83.1553217 C81.7086227,81.5485383 86.067068,78.160955 85.9275836,75.2574383 C85.9267008,75.2468383 85.925818,75.2371217 85.9249352,75.2282883 C85.7819195,72.701955 86.7256461,70.2277383 88.5133414,68.4389883 C90.3001539,66.6511217 92.7640836,65.705955 95.2977555,65.8508217 C97.2337633,65.9674217 99.1273961,65.2386717 100.496638,63.8686217 C101.86588,62.4985717 102.589787,60.6029383 102.479435,58.667555 C102.335537,56.1412217 103.27838,53.667005 105.066959,51.8773717 C105.244404,51.6989383 105.429795,51.5302217 105.621365,51.3685717 L62.002482,51.3685717 Z M78.778568,85.6480883 C78.6823414,85.6480883 78.5843492,85.633955 78.4898883,85.6065717 C78.2223961,85.5297217 77.9963961,85.347755 77.8639742,85.101305 L59.3443336,50.8226717 C59.1704195,50.5011383 59.1792477,50.1098217 59.3664039,49.7962383 C59.554443,49.4808883 59.8925602,49.2883217 60.2589273,49.2883217 L110.872334,49.2883217 C111.198974,49.270655 111.525615,49.2724217 111.853138,49.289205 C112.414607,49.3218883 112.848951,49.795355 112.832177,50.357155 C112.81717,50.9207217 112.356341,51.3685717 111.793107,51.3685717 L110.931482,51.3685717 C109.284154,51.4692717 107.716279,52.1688717 106.536841,53.3481217 C105.167599,54.719055 104.444576,56.613805 104.554927,58.5491883 C104.697943,61.0755217 103.755099,63.5506217 101.967404,65.3393717 C100.177943,67.1281217 97.7034195,68.0679883 95.182107,67.9275383 C93.2372711,67.8082883 91.3515836,68.5405717 89.9832242,69.9097383 C88.6192789,71.273605 87.8971383,73.1595217 87.9986617,75.0851883 L88.0013102,75.116105 C88.2944039,80.291555 80.2104898,84.9944217 79.2879508,85.5138217 C79.1308102,85.602155 78.9551305,85.6480883 78.778568,85.6480883 L78.778568,85.6480883 Z" id="Fill-13" fill="#2F5266"></path>
            <path d="M88.7633539,77.5683267 C72.3245023,61.2946767 54.7565336,44.1491767 54.7565336,44.1491767 L49.9787523,48.9297767 C38.8800336,60.0350433 38.8800336,78.04091 49.9796352,89.1461767 L65.6301352,104.80591 L77.5675258,104.80591 C91.7834555,104.80591 98.8697914,87.57296 88.7633539,77.5683267" id="Fill-15" fill="#FEFEFE"></path>
            <path d="M66.0605063,103.765608 L77.5679672,103.765608 C83.7167562,103.765608 88.9880297,100.230508 91.3257172,94.5409583 C93.6634047,88.8522917 92.4009828,82.6327417 88.0328266,78.3079417 C73.6694672,64.0898083 58.2670375,49.0325083 54.7649203,45.6113583 L50.7136938,49.664975 C45.5421781,54.8386583 42.6933422,61.7189417 42.6933422,69.0382417 C42.694225,76.3566583 45.5421781,83.2369417 50.7145766,88.410625 L66.0605063,103.765608 Z M77.5679672,105.845858 L65.6305766,105.845858 C65.3542562,105.845858 65.0902953,105.736325 64.8951937,105.541992 L49.2438109,89.8822583 C43.6794437,84.3146083 40.6152016,76.912275 40.6152016,69.0382417 C40.6152016,61.163325 43.6785609,53.761875 49.2429281,48.1933417 L54.0207094,43.413625 C54.4241547,43.0125917 55.0756703,43.0072917 55.4826469,43.4047917 C55.6583266,43.5761583 73.2413031,60.739325 89.4947641,76.8292417 C94.4747094,81.7582417 95.9119281,88.847875 93.2493656,95.3315417 C90.5841547,101.816975 84.5757328,105.845858 77.5679672,105.845858 L77.5679672,105.845858 Z" id="Fill-17" fill="#2F5266"></path>
            <path d="M68.2433484,104.806175 L46.1650906,104.806175 C46.1650906,100.495508 49.6574969,97.001925 53.9647391,97.001925 L53.9647391,78.4501583" id="Fill-19" fill="#FEFEFE"></path>
            <path d="M68.2433484,105.8463 L46.1650906,105.8463 C45.5912625,105.8463 45.1251375,105.380783 45.1251375,104.805733 C45.1251375,100.280417 48.5398562,96.5386167 52.9247859,96.02275 L52.9247859,78.4497167 C52.9247859,77.87555 53.3909109,77.4100333 53.9647391,77.4100333 C54.53945,77.4100333 55.0046922,77.87555 55.0046922,78.4497167 L55.0046922,97.0014833 C55.0046922,97.5765333 54.53945,98.04205 53.9647391,98.04205 C50.5906297,98.04205 47.7859344,100.52775 47.2844969,103.76605 L68.2433484,103.76605 C68.8171766,103.76605 69.2833016,104.231567 69.2833016,104.805733 C69.2833016,105.380783 68.8171766,105.8463 68.2433484,105.8463" id="Fill-21" fill="#2F5266"></path>
            <path d="M72.1186305,105.8463 L58.4332711,105.8463 C57.859443,105.8463 57.393318,105.380783 57.393318,104.805733 C57.393318,100.280417 60.8071539,96.5386167 65.1929664,96.02275 L65.1929664,90.63 C65.1929664,82.4856667 71.814943,75.8589 79.955357,75.8589 C80.5291852,75.8589 80.9953102,76.3244167 80.9953102,76.8985833 C80.9953102,77.4736333 80.5291852,77.93915 79.955357,77.93915 C72.9617164,77.93915 67.2728727,83.6331167 67.2728727,90.63 L67.2728727,97.0014833 C67.2728727,97.5765333 66.8067477,98.04205 66.2329195,98.04205 C62.8588102,98.04205 60.0541148,100.52775 59.5526773,103.76605 L72.1186305,103.76605 C72.6924586,103.76605 73.1585836,104.231567 73.1585836,104.805733 C73.1585836,105.380783 72.6924586,105.8463 72.1186305,105.8463" id="Fill-23" fill="#2F5266"></path>
            <path d="M57.4176836,52.648875 L51.5390352,58.5309917 C39.6387227,70.438325 20.3439727,70.438325 8.44366016,58.5309917 L1.03951172,51.1215917 L37.885457,14.2539083 C40.8817227,11.255875 44.9408945,9.56694167 49.1775117,9.55369167 C55.6114492,9.533375 61.483918,13.3423083 63.9725664,19.277425 C68.6188086,30.3579583 66.4338477,43.6273917 57.4176836,52.648875" id="Fill-25" fill="#FEFEFE"></path>
            <path d="M9.0527125,43.10331 L1.03942344,51.1213267 L8.44357188,58.5307267 C8.6430875,58.7294767 8.84966563,58.9176267 9.0527125,59.1101933 L9.0527125,43.10331 Z" id="Fill-27" fill="#E14E3A"></path>
            <path d="M2.50921797,51.121945 L9.17974922,57.7955283 C20.6554289,69.2788617 39.3295617,69.2788617 50.8034758,57.7955283 L56.6821242,51.9134117 C65.1756633,43.4139783 67.6616633,30.761995 63.0136555,19.6805783 C60.6971555,14.1562117 55.2899289,10.5937283 49.2285383,10.5937283 L49.1808664,10.5937283 C45.1923195,10.606095 41.442132,12.1660617 38.6197805,14.989195 L2.50921797,51.121945 Z M29.9911711,68.4865117 C21.921382,68.4865117 13.8524758,65.413395 7.70898359,59.2671617 L0.303952344,51.8577617 C-0.101258594,51.4514283 -0.101258594,50.7924617 0.303952344,50.3861283 L37.1498977,13.5175617 C40.3624523,10.3048783 44.6326164,8.52672833 49.1738039,8.51347833 L49.2285383,8.51347833 C56.1303664,8.51347833 62.2897492,12.575045 64.9311242,18.8758617 C69.9066555,30.7399117 67.2458586,44.2858283 58.1528898,53.385045 L52.2742414,59.2671617 C46.1307492,65.413395 38.0609602,68.4865117 29.9911711,68.4865117 L29.9911711,68.4865117 Z" id="Fill-29" fill="#2F5266"></path>
            <path d="M13.3278203,38.825945 L65.3431328,38.825945 C66.8147812,33.189395 66.6488125,27.2171783 64.8452266,21.656595 L30.4870469,21.656595 L13.3278203,38.825945 Z" id="Fill-31" fill="#E14E3A"></path>
            <path d="M2.50921797,51.121945 L9.17974922,57.7955283 C20.6554289,69.2788617 39.3295617,69.2788617 50.8034758,57.7955283 L56.6821242,51.9134117 C65.1756633,43.4139783 67.6616633,30.761995 63.0136555,19.6805783 C60.6971555,14.1562117 55.2899289,10.5937283 49.2285383,10.5937283 L49.1808664,10.5937283 C45.1923195,10.606095 41.442132,12.1660617 38.6197805,14.989195 L2.50921797,51.121945 Z M29.9911711,68.4865117 C21.921382,68.4865117 13.8524758,65.413395 7.70898359,59.2671617 L0.303952344,51.8577617 C-0.101258594,51.4514283 -0.101258594,50.7924617 0.303952344,50.3861283 L37.1498977,13.5175617 C40.3624523,10.3048783 44.6326164,8.52672833 49.1738039,8.51347833 L49.2285383,8.51347833 C56.1303664,8.51347833 62.2897492,12.575045 64.9311242,18.8758617 C69.9066555,30.7399117 67.2458586,44.2858283 58.1528898,53.385045 L52.2742414,59.2671617 C46.1307492,65.413395 38.0609602,68.4865117 29.9911711,68.4865117 L29.9911711,68.4865117 Z" id="Fill-33" fill="#2F5266"></path>
            <path d="M34.3060055,63.335 C32.5315523,63.335 30.8639195,62.64335 29.609443,61.38725 C29.2033492,60.9809167 29.204232,60.3228333 29.6103258,59.9165 C30.0164195,59.5101667 30.6741148,59.51105 31.0802086,59.9173833 C31.9418336,60.7795167 33.0877242,61.25475 34.3060055,61.25475 C35.5251695,61.25475 36.6710602,60.7795167 37.5326852,59.9165 C39.3124352,58.1365833 39.3124352,55.2401333 37.5326852,53.45845 C37.1265914,53.0521167 37.1274742,52.3940333 37.533568,51.9877 C37.9396617,51.5813667 38.597357,51.58225 39.0034508,51.9885833 C41.5927398,54.5802833 41.5927398,58.7964333 39.0034508,61.3881333 C37.7480914,62.64335 36.0804586,63.335 34.3060055,63.335" id="Fill-35" fill="#2F5266"></path>
            <path d="M34.8174188,30.24127 C34.8174188,31.7296867 33.6114969,32.9372033 32.123075,32.9372033 C30.6364187,32.9372033 29.4304969,31.7296867 29.4304969,30.24127 C29.4304969,28.7528533 30.6364187,27.5453367 32.123075,27.5453367 C33.6114969,27.5453367 34.8174188,28.7528533 34.8174188,30.24127" id="Fill-37" fill="#FEFEFE"></path>
            <path d="M46.1311023,30.24127 C46.1311023,31.7296867 44.9251805,32.9372033 43.4367586,32.9372033 C41.9501023,32.9372033 40.7441805,31.7296867 40.7441805,30.24127 C40.7441805,28.7528533 41.9501023,27.5453367 43.4367586,27.5453367 C44.9251805,27.5453367 46.1311023,28.7528533 46.1311023,30.24127" id="Fill-39" fill="#FEFEFE"></path>
            <path d="M65.0072227,45.689975 L62.1407305,45.689975 C56.3274102,45.689975 51.6140742,40.9738583 51.6140742,35.156225 L51.6140742,16.7325417 L66.6986914,16.7325417 C71.5779961,16.7325417 75.5347617,20.6916417 75.5347617,25.573825 L75.5347617,35.156225 C75.5347617,40.9738583 70.8214258,45.689975 65.0072227,45.689975" id="Fill-41" fill="#FEFEFE"></path>
            <path d="M52.6536742,17.7734617 L52.6536742,35.1565783 C52.6536742,40.3903283 56.9088305,44.6497617 62.1403773,44.6497617 L65.0068695,44.6497617 C70.2384164,44.6497617 74.4944555,40.3903283 74.4944555,35.1565783 L74.4944555,25.5741783 C74.4944555,21.2732283 70.9967523,17.7734617 66.6983383,17.7734617 L52.6536742,17.7734617 Z M65.0068695,46.7300117 L62.1403773,46.7300117 C55.7629398,46.7300117 50.5746508,41.5377783 50.5746508,35.1565783 L50.5746508,16.732895 C50.5746508,16.1587283 51.039893,15.6932117 51.6137211,15.6932117 L66.6983383,15.6932117 C72.1435258,15.6932117 76.5743617,20.1257783 76.5743617,25.5741783 L76.5743617,35.1565783 C76.5743617,41.5377783 71.3851898,46.7300117 65.0068695,46.7300117 L65.0068695,46.7300117 Z" id="Fill-43" fill="#2F5266"></path>
        </g>
    </g>
</svg>