<?xml version="1.0" encoding="UTF-8"?>
<svg width="160px" height="160px" viewBox="0 0 160 160" version="1.1" xmlns="http://www.w3.org/2000/svg" xmlns:xlink="http://www.w3.org/1999/xlink">
    <!-- Generator: Sketch 43.2 (39069) - http://www.bohemiancoding.com/sketch -->
    <title>Group 18</title>
    <desc>Created with Sketch.</desc>
    <defs>
        <polygon id="path-1" points="2.78842857 2.46933111 2.78842857 0.313239079 0.632439701 0.313239079 0.632439701 2.46933111 2.78842857 2.46933111"></polygon>
        <polygon id="path-3" points="2.75680288e-21 0.313239079 2.75680288e-21 2.46933111 2.15607024 2.46933111 2.15607024 0.313239079 0 0.313239079"></polygon>
    </defs>
    <g id="Design-1" stroke="none" stroke-width="1" fill="none" fill-rule="evenodd">
        <g id="Group-18">
            <circle id="Oval-1-Copy-4" fill="#FFFEF3" cx="80" cy="80" r="80"></circle>
            <g id="Page-1" transform="translate(35.000000, 14.000000)">
                <path d="M56.4219441,74.4372106 L53.8670373,74.4372106 C53.3373416,74.4372106 52.9085404,74.0084093 52.9085404,73.4787137 C52.9085404,72.9498317 53.3373416,72.5210304 53.8670373,72.5210304 L56.4219441,72.5210304 C59.1664348,72.5210304 61.3991304,70.2875211 61.3991304,67.5430304 L61.3991304,52.1135087 C61.3991304,46.5268876 58.6033789,41.3186205 53.9191118,38.1835708 L53.3422236,37.7970801 L62.8295528,3.88109876 C62.9719441,3.37174472 63.4991988,3.07231615 64.0109938,3.21633478 C64.5203478,3.35872609 64.8173354,3.88760807 64.6749441,4.39696211 L55.5578323,36.9899248 C60.4284286,40.5155335 63.3161242,46.1176143 63.3161242,52.1135087 L63.3161242,67.5430304 C63.3161242,71.3444714 60.2233851,74.4372106 56.4219441,74.4372106" id="Fill-1" fill="#2F5266"></path>
                <path d="M41.088272,74.4372106 L30.0273155,74.4372106 C22.2332224,74.4372106 15.8923342,68.0963224 15.8923342,60.3022292 L15.8923342,52.1135087 C15.8923342,46.1176143 18.7800298,40.5155335 23.6506261,36.9899248 L14.5335143,4.39696211 C14.391123,3.88760807 14.6889242,3.35872609 15.1982783,3.21633478 C15.7076323,3.07231615 16.2365143,3.37093106 16.3789056,3.88109876 L25.8662348,37.7970801 L25.2893466,38.1835708 C20.6050795,41.3194342 17.809328,46.5268876 17.809328,52.1135087 L17.809328,60.3022292 C17.809328,67.0401857 23.2901727,72.5210304 30.0273155,72.5210304 L41.088272,72.5210304 C41.617154,72.5210304 42.0467689,72.9498317 42.0467689,73.4787137 C42.0467689,74.0084093 41.617154,74.4372106 41.088272,74.4372106" id="Fill-3" fill="#2F5266"></path>
                <path d="M47.4775733,130.728236 C37.7412627,130.728236 30.1147845,126.376758 30.1147845,120.82187 L30.1147845,113.663248 L32.0309646,113.663248 L32.0309646,120.82187 C32.0309646,125.153006 39.1041509,128.812056 47.4775733,128.812056 C55.8509957,128.812056 62.924182,125.153006 62.924182,120.82187 L62.924182,113.663248 L64.8403621,113.663248 L64.8403621,120.82187 C64.8403621,126.376758 57.2138839,130.728236 47.4775733,130.728236" id="Fill-5" fill="#2F5266"></path>
                <path d="M47.4775733,105.673469 C39.1041509,105.673469 32.0309646,109.332519 32.0309646,113.663655 C32.0309646,117.994792 39.1041509,121.653028 47.4775733,121.653028 C55.8509957,121.653028 62.924182,117.994792 62.924182,113.663655 C62.924182,109.332519 55.8509957,105.673469 47.4775733,105.673469 M47.4775733,123.570022 C37.7412627,123.570022 30.1147845,119.21773 30.1147845,113.663655 C30.1147845,108.108767 37.7412627,103.757289 47.4775733,103.757289 C57.2138839,103.757289 64.8403621,108.108767 64.8403621,113.663655 C64.8403621,119.21773 57.2138839,123.570022 47.4775733,123.570022" id="Fill-7" fill="#2F5266"></path>
                <path d="M47.4775733,101.551932 C43.4263373,101.551932 40.130182,98.255777 40.130182,94.204541 L40.130182,70.6595286 C40.130182,70.1298329 40.5589832,69.7010317 41.0878652,69.7010317 C41.6175609,69.7010317 42.0463621,70.1298329 42.0463621,70.6595286 L42.0463621,94.204541 C42.0463621,97.1988267 44.4824739,99.6357522 47.4775733,99.6357522 C50.4726727,99.6357522 52.9087845,97.1988267 52.9087845,94.204541 L52.9087845,56.6612429 C52.9087845,56.1323609 53.3375857,55.702746 53.8672814,55.702746 C54.3961634,55.702746 54.8249646,56.1323609 54.8249646,56.6612429 L54.8249646,94.204541 C54.8249646,98.255777 51.5288093,101.551932 47.4775733,101.551932" id="Fill-9" fill="#2F5266"></path>
                <path d="M90.1965919,120.059222 L67.8208155,120.059222 C67.2919335,120.059222 66.8623186,119.63042 66.8623186,119.100725 C66.8623186,118.571843 67.2919335,118.143042 67.8208155,118.143042 L90.1965919,118.143042 C90.7254739,118.143042 91.1550888,118.571843 91.1550888,119.100725 C91.1550888,119.63042 90.7254739,120.059222 90.1965919,120.059222" id="Fill-11" fill="#2F5266"></path>
                <path d="M79.0087037,125.929649 L67.8208155,125.929649 C67.2919335,125.929649 66.8623186,125.500848 66.8623186,124.971152 C66.8623186,124.44227 67.2919335,124.013469 67.8208155,124.013469 L79.0087037,124.013469 C79.5375857,124.013469 79.9672006,124.44227 79.9672006,124.971152 C79.9672006,125.500848 79.5375857,125.929649 79.0087037,125.929649" id="Fill-13" fill="#2F5266"></path>
                <path d="M27.0044702,120.059222 L4.62869379,120.059222 C4.0998118,120.059222 3.67019689,119.63042 3.67019689,119.100725 C3.67019689,118.571843 4.0998118,118.143042 4.62869379,118.143042 L27.0044702,118.143042 C27.5333522,118.143042 27.9629671,118.571843 27.9629671,119.100725 C27.9629671,119.63042 27.5333522,120.059222 27.0044702,120.059222" id="Fill-15" fill="#2F5266"></path>
                <path d="M23.2412714,125.929649 L12.0533832,125.929649 C11.5245012,125.929649 11.0948863,125.500848 11.0948863,124.971152 C11.0948863,124.44227 11.5245012,124.013469 12.0533832,124.013469 L23.2412714,124.013469 C23.7701534,124.013469 24.1997683,124.44227 24.1997683,124.971152 C24.1997683,125.500848 23.7701534,125.929649 23.2412714,125.929649" id="Fill-17" fill="#2F5266"></path>
                <path d="M39.0040702,37.9553379 C38.4751882,37.9553379 38.0455733,37.5265366 38.0455733,36.996841 L38.0455733,10.6495677 C38.0455733,10.1206857 38.4751882,9.69107081 39.0040702,9.69107081 C39.5329522,9.69107081 39.9625671,10.1206857 39.9625671,10.6495677 L39.9625671,36.996841 C39.9625671,37.5265366 39.5329522,37.9553379 39.0040702,37.9553379" id="Fill-19" fill="#2F5266"></path>
                <path d="M44.5129863,37.9553379 C43.9841043,37.9553379 43.5544894,37.5265366 43.5544894,36.996841 L43.5544894,25.7503689 C43.5544894,25.2206733 43.9841043,24.791872 44.5129863,24.791872 C45.0418683,24.791872 45.4714832,25.2206733 45.4714832,25.7503689 L45.4714832,36.996841 C45.4714832,37.5265366 45.0418683,37.9553379 44.5129863,37.9553379" id="Fill-21" fill="#2F5266"></path>
                <path d="M33.495154,37.9553379 C32.966272,37.9553379 32.5366571,37.5265366 32.5366571,36.996841 L32.5366571,25.7503689 C32.5366571,25.2206733 32.966272,24.791872 33.495154,24.791872 C34.024036,24.791872 34.4536509,25.2206733 34.4536509,25.7503689 L34.4536509,36.996841 C34.4536509,37.5265366 34.024036,37.9553379 33.495154,37.9553379" id="Fill-23" fill="#2F5266"></path>
                <g id="Group-27" transform="translate(91.944099, 117.709602)">
                    <mask id="mask-2" fill="white">
                        <use xlink:href="#path-1"></use>
                    </mask>
                    <g id="Clip-26"></g>
                    <path d="M1.18933354,0.447840994 C0.668588199,0.735878261 0.479004348,1.39169193 0.767041615,1.91243727 C1.05507888,2.43318261 1.71089255,2.62276646 2.23163789,2.33472919 C2.75238323,2.04669193 2.94196708,1.39087826 2.65392981,0.870132919 C2.36589255,0.349387578 1.71007888,0.159803727 1.18933354,0.447840994" id="Fill-25" fill="#2F5266" mask="url(#mask-2)"></path>
                </g>
                <path d="M64.1681938,0.134824224 C63.6474484,0.422861491 63.4578646,1.07867516 63.7459019,1.5994205 C64.0339391,2.12016584 64.6897528,2.30974969 65.2104981,2.02171242 C65.7312435,1.73367516 65.9208273,1.07786149 65.6327901,0.557116149 C65.3447528,0.0363708075 64.6889391,-0.153213043 64.1681938,0.134824224" id="Fill-28" fill="#2F5266"></path>
                <path d="M38.4828366,5.22706273 C37.9620913,5.5151 37.7725075,6.17091366 38.0605447,6.69165901 C38.348582,7.21240435 39.0043957,7.4019882 39.525141,7.11395093 C40.0458863,6.82591366 40.2354702,6.1701 39.9474329,5.64935466 C39.6593957,5.12860932 39.003582,4.93902547 38.4828366,5.22706273" id="Fill-30" fill="#2F5266"></path>
                <path d="M43.9919155,20.849423 C43.4711702,21.1374602 43.2815863,21.7932739 43.5696236,22.3140193 C43.8576609,22.8347646 44.5134745,23.0243484 45.0342199,22.7363112 C45.5549652,22.4482739 45.7445491,21.7924602 45.4565118,21.2717149 C45.1684745,20.7509696 44.5126609,20.5613857 43.9919155,20.849423" id="Fill-32" fill="#2F5266"></path>
                <path d="M32.9737578,20.849423 C32.4530124,21.1374602 32.2634286,21.7932739 32.5514658,22.3140193 C32.8395031,22.8347646 33.4953168,23.0243484 34.0160621,22.7363112 C34.5368075,22.4482739 34.7263913,21.7924602 34.438354,21.2717149 C34.1503168,20.7509696 33.4945031,20.5613857 32.9737578,20.849423" id="Fill-34" fill="#2F5266"></path>
                <g id="Group-38" transform="translate(0.000000, 117.709602)">
                    <mask id="mask-4" fill="white">
                        <use xlink:href="#path-3"></use>
                    </mask>
                    <g id="Clip-37"></g>
                    <path d="M0.55687205,0.447840994 C0.0361267081,0.735878261 -0.153457143,1.39169193 0.134580124,1.91243727 C0.422617391,2.43318261 1.07843106,2.62276646 1.5991764,2.33472919 C2.11992174,2.04669193 2.30950559,1.39087826 2.02146832,0.870132919 C1.73343106,0.349387578 1.07761739,0.159803727 0.55687205,0.447840994" id="Fill-36" fill="#2F5266" mask="url(#mask-4)"></path>
                </g>
                <path d="M26.4832366,124.027871 C25.9624913,124.315908 25.7729075,124.971722 26.0609447,125.492467 C26.348982,126.013212 27.0047957,126.202796 27.525541,125.914759 C28.0462863,125.626722 28.2358702,124.970908 27.9478329,124.450163 C27.6597957,123.929417 27.003982,123.739834 26.4832366,124.027871" id="Fill-39" fill="#2F5266"></path>
                <path d="M81.9911099,124.027871 C81.4703646,124.315908 81.2807807,124.971722 81.568818,125.492467 C81.8568553,126.013212 82.5126689,126.202796 83.0334143,125.914759 C83.5541596,125.626722 83.7437435,124.970908 83.4557062,124.450163 C83.1676689,123.929417 82.5118553,123.739834 81.9911099,124.027871" id="Fill-41" fill="#2F5266"></path>
                <path d="M85.6744068,124.027871 C85.1536615,124.315908 84.9640776,124.971722 85.2521149,125.492467 C85.5401522,126.013212 86.1959658,126.202796 86.7167112,125.914759 C87.2374565,125.626722 87.4270404,124.970908 87.1390031,124.450163 C86.8509658,123.929417 86.1951522,123.739834 85.6744068,124.027871" id="Fill-43" fill="#2F5266"></path>
                <path d="M79.0087037,30.5732031 C78.4798217,30.5732031 78.0502068,30.1444019 78.0502068,29.6147062 L78.0502068,21.8848925 C78.0502068,21.3560106 78.4798217,20.9272093 79.0087037,20.9272093 C79.5375857,20.9272093 79.9672006,21.3560106 79.9672006,21.8848925 L79.9672006,29.6147062 C79.9672006,30.1444019 79.5375857,30.5732031 79.0087037,30.5732031" id="Fill-45" fill="#2F5266"></path>
                <path d="M82.8736106,26.7082963 L75.1437969,26.7082963 C74.6149149,26.7082963 74.1853,26.279495 74.1853,25.7497994 C74.1853,25.2209174 74.6149149,24.7921161 75.1437969,24.7921161 L82.8736106,24.7921161 C83.4024925,24.7921161 83.8321075,25.2209174 83.8321075,25.7497994 C83.8321075,26.279495 83.4024925,26.7082963 82.8736106,26.7082963" id="Fill-47" fill="#2F5266"></path>
                <path d="M15.816582,106.682983 C15.2877,106.682983 14.8580851,106.254181 14.8580851,105.724486 L14.8580851,97.994672 C14.8580851,97.4657901 15.2877,97.0369888 15.816582,97.0369888 C16.345464,97.0369888 16.7750789,97.4657901 16.7750789,97.994672 L16.7750789,105.724486 C16.7750789,106.254181 16.345464,106.682983 15.816582,106.682983" id="Fill-49" fill="#2F5266"></path>
                <path d="M19.6814888,102.818076 L11.9516752,102.818076 C11.4227932,102.818076 10.9931783,102.389275 10.9931783,101.859579 C10.9931783,101.330697 11.4227932,100.901896 11.9516752,100.901896 L19.6814888,100.901896 C20.2103708,100.901896 20.6399857,101.330697 20.6399857,101.859579 C20.6399857,102.389275 20.2103708,102.818076 19.6814888,102.818076" id="Fill-51" fill="#2F5266"></path>
            </g>
        </g>
    </g>
</svg>