<?xml version="1.0" encoding="UTF-8"?>
<svg width="160px" height="160px" viewBox="0 0 160 160" version="1.1" xmlns="http://www.w3.org/2000/svg" xmlns:xlink="http://www.w3.org/1999/xlink">
    <!-- Generator: Sketch 43.2 (39069) - http://www.bohemiancoding.com/sketch -->
    <title>Group 26</title>
    <desc>Created with Sketch.</desc>
    <defs>
        <polygon id="path-1" points="0 124.518548 106.660484 124.518548 106.660484 0 0 0"></polygon>
    </defs>
    <g id="Design-1" stroke="none" stroke-width="1" fill="none" fill-rule="evenodd">
        <g id="Group-26">
            <circle id="Oval-1-Copy-8" fill="#FFFEF3" cx="80" cy="80" r="80"></circle>
            <g id="Page-1" transform="translate(28.000000, 13.000000)">
                <path d="M50.1790323,111.658629 C40.5290323,111.658629 32.9693548,107.345726 32.9693548,101.840081 L32.9693548,94.7449194 L34.8693548,94.7449194 L34.8693548,101.840081 C34.8693548,106.132016 41.8798387,109.759435 50.1790323,109.759435 C58.4782258,109.759435 65.4887097,106.132016 65.4887097,101.840081 L65.4887097,94.7449194 L67.3879032,94.7449194 L67.3879032,101.840081 C67.3879032,107.345726 59.8290323,111.658629 50.1790323,111.658629 L50.1790323,111.658629 Z" id="Fill-1" fill="#2F5266"></path>
                <path d="M50.1790323,104.563629 C40.5290323,104.563629 32.9701613,100.250726 32.9701613,94.7450806 C32.9701613,93.6708871 33.2637097,92.6168548 33.8435484,91.6104032 L35.4895161,92.5579839 C35.0774194,93.2725 34.8693548,94.0079839 34.8693548,94.7450806 C34.8693548,99.0370161 41.8798387,102.664435 50.1790323,102.664435 C58.4782258,102.664435 65.4887097,99.0370161 65.4887097,94.7450806 C65.4887097,94.0079839 65.2806452,93.2725 64.8685484,92.5579839 L66.5145161,91.6104032 C67.0943548,92.6168548 67.3879032,93.6708871 67.3879032,94.7450806 C67.3879032,100.250726 59.8290323,104.563629 50.1790323,104.563629" id="Fill-3" fill="#2F5266"></path>
                <path d="M50.1790323,124.518548 C40.5290323,124.518548 32.9693548,120.205645 32.9693548,114.7 L32.9693548,107.604839 L34.8693548,107.604839 L34.8693548,114.7 C34.8693548,118.991935 41.8798387,122.619355 50.1790323,122.619355 C58.4782258,122.619355 65.4887097,118.991935 65.4887097,114.7 L65.4887097,107.604839 L67.3879032,107.604839 L67.3879032,114.7 C67.3879032,120.205645 59.8290323,124.518548 50.1790323,124.518548" id="Fill-5" fill="#2F5266"></path>
                <path d="M50.1790323,117.423468 C40.5290323,117.423468 32.9701613,113.110565 32.9701613,107.604919 C32.9701613,106.530726 33.2637097,105.476694 33.8435484,104.470242 L35.4895161,105.417823 C35.0774194,106.132339 34.8693548,106.867823 34.8693548,107.604919 C34.8693548,111.896855 41.8798387,115.524274 50.1790323,115.524274 C58.4782258,115.524274 65.4887097,111.896855 65.4887097,107.604919 C65.4887097,106.867823 65.2806452,106.132339 64.8685484,105.417823 L66.5145161,104.470242 C67.0943548,105.476694 67.3879032,106.530726 67.3879032,107.604919 C67.3879032,113.110565 59.8290323,117.423468 50.1790323,117.423468" id="Fill-7" fill="#2F5266"></path>
                <path d="M50.1790323,98.5057258 C40.5290323,98.5057258 32.9693548,94.1928226 32.9693548,88.6871774 L32.9693548,81.5920161 L34.8693548,81.5920161 L34.8693548,88.6871774 C34.8693548,92.9791129 41.8798387,96.6065323 50.1790323,96.6065323 C58.4782258,96.6065323 65.4887097,92.9791129 65.4887097,88.6871774 L65.4887097,81.5920161 L67.3879032,81.5920161 L67.3879032,88.6871774 C67.3879032,94.1928226 59.8290323,98.5057258 50.1790323,98.5057258" id="Fill-9" fill="#2F5266"></path>
                <path d="M50.1790323,91.4107258 C40.5290323,91.4107258 32.9693548,87.0978226 32.9693548,81.5921774 C32.9693548,78.2962097 35.7870968,75.2494355 40.5072581,73.4421774 C40.9951613,73.2534677 41.5451613,73.4994355 41.7330645,73.9889516 C41.9209677,74.4792742 41.6758065,75.0284677 41.1862903,75.2155645 C37.2306452,76.7308871 34.8693548,79.1139516 34.8693548,81.5921774 C34.8693548,85.8849194 41.8798387,89.5115323 50.1790323,89.5115323 C58.4782258,89.5115323 65.4887097,85.8849194 65.4887097,81.5921774 C65.4887097,79.0566935 63.041129,76.6405645 58.941129,75.1292742 C58.4491935,74.9478226 58.1975806,74.4018548 58.3782258,73.9099194 C58.5604839,73.4179839 59.1056452,73.1647581 59.5983871,73.3478226 C64.4758065,75.1445968 67.3879032,78.2268548 67.3879032,81.5921774 C67.3879032,87.0978226 59.8290323,91.4107258 50.1790323,91.4107258" id="Fill-11" fill="#2F5266"></path>
                <mask id="mask-2" fill="white">
                    <use xlink:href="#path-1"></use>
                </mask>
                <g id="Clip-14"></g>
                <polygon id="Fill-13" fill="#2F5266" mask="url(#mask-2)" points="37.0653226 94.283871 38.9645161 94.283871 38.9645161 87.2790323 37.0653226 87.2790323"></polygon>
                <polygon id="Fill-15" fill="#2F5266" mask="url(#mask-2)" points="37.0653226 107.344355 38.9645161 107.344355 38.9645161 100.340323 37.0653226 100.340323"></polygon>
                <polygon id="Fill-16" fill="#2F5266" mask="url(#mask-2)" points="37.0653226 120.491129 38.9645161 120.491129 38.9645161 113.48629 37.0653226 113.48629"></polygon>
                <polygon id="Fill-17" fill="#2F5266" mask="url(#mask-2)" points="61.3935484 94.283871 63.2927419 94.283871 63.2927419 87.2790323 61.3935484 87.2790323"></polygon>
                <polygon id="Fill-18" fill="#2F5266" mask="url(#mask-2)" points="61.3935484 107.344355 63.2927419 107.344355 63.2927419 100.340323 61.3935484 100.340323"></polygon>
                <polygon id="Fill-19" fill="#2F5266" mask="url(#mask-2)" points="61.3935484 120.491129 63.2927419 120.491129 63.2927419 113.48629 61.3935484 113.48629"></polygon>
                <path d="M92.6607258,111.527097 L70.4833065,111.527097 C69.9591129,111.527097 69.5333065,111.102097 69.5333065,110.577097 C69.5333065,110.052903 69.9591129,109.627903 70.4833065,109.627903 L92.6607258,109.627903 C93.1849194,109.627903 93.6107258,110.052903 93.6107258,110.577097 C93.6107258,111.102097 93.1849194,111.527097 92.6607258,111.527097" id="Fill-20" fill="#2F5266" mask="url(#mask-2)"></path>
                <path d="M81.5720161,117.345565 L70.4833065,117.345565 C69.9591129,117.345565 69.5333065,116.920565 69.5333065,116.395565 C69.5333065,115.871371 69.9591129,115.446371 70.4833065,115.446371 L81.5720161,115.446371 C82.0962097,115.446371 82.5220161,115.871371 82.5220161,116.395565 C82.5220161,116.920565 82.0962097,117.345565 81.5720161,117.345565" id="Fill-21" fill="#2F5266" mask="url(#mask-2)"></path>
                <path d="M30.0287903,111.527097 L7.85137097,111.527097 C7.32717742,111.527097 6.90137097,111.102097 6.90137097,110.577097 C6.90137097,110.052903 7.32717742,109.627903 7.85137097,109.627903 L30.0287903,109.627903 C30.5529839,109.627903 30.9787903,110.052903 30.9787903,110.577097 C30.9787903,111.102097 30.5529839,111.527097 30.0287903,111.527097" id="Fill-22" fill="#2F5266" mask="url(#mask-2)"></path>
                <path d="M26.2989516,117.345565 L15.2102419,117.345565 C14.6860484,117.345565 14.2602419,116.920565 14.2602419,116.395565 C14.2602419,115.871371 14.6860484,115.446371 15.2102419,115.446371 L26.2989516,115.446371 C26.8231452,115.446371 27.2489516,115.871371 27.2489516,116.395565 C27.2489516,116.920565 26.8231452,117.345565 26.2989516,117.345565" id="Fill-23" fill="#2F5266" mask="url(#mask-2)"></path>
                <path d="M95.5715323,109.6425 C95.0554032,109.927984 94.8675,110.577984 95.1529839,111.094113 C95.4384677,111.610242 96.0884677,111.798145 96.6045968,111.512661 C97.1207258,111.227177 97.308629,110.577177 97.0231452,110.061048 C96.7376613,109.544919 96.0876613,109.357016 95.5715323,109.6425" id="Fill-24" fill="#2F5266" mask="url(#mask-2)"></path>
                <path d="M99.0802419,14.0878226 C98.5641129,14.3733065 98.3762097,15.0233065 98.6616935,15.5394355 C98.9471774,16.0555645 99.5971774,16.2434677 100.113306,15.9579839 C100.629435,15.6725 100.817339,15.0225 100.531855,14.506371 C100.246371,13.9902419 99.596371,13.8023387 99.0802419,14.0878226" id="Fill-25" fill="#2F5266" mask="url(#mask-2)"></path>
                <path d="M92.7791935,14.0878226 C92.2630645,14.3733065 92.0751613,15.0233065 92.3606452,15.5394355 C92.646129,16.0555645 93.296129,16.2434677 93.8122581,15.9579839 C94.3283871,15.6725 94.5162903,15.0225 94.2308065,14.506371 C93.9453226,13.9902419 93.2953226,13.8023387 92.7791935,14.0878226" id="Fill-26" fill="#2F5266" mask="url(#mask-2)"></path>
                <path d="M0.551935484,14.0878226 C0.0358064516,14.3733065 -0.152096774,15.0233065 0.133387097,15.5394355 C0.418870968,16.0555645 1.06887097,16.2434677 1.585,15.9579839 C2.10112903,15.6725 2.28903226,15.0225 2.00354839,14.506371 C1.71806452,13.9902419 1.06806452,13.8023387 0.551935484,14.0878226" id="Fill-27" fill="#2F5266" mask="url(#mask-2)"></path>
                <path d="M3.81564516,109.6425 C3.29951613,109.927984 3.1116129,110.577984 3.39709677,111.094113 C3.68258065,111.610242 4.33258065,111.798145 4.84870968,111.512661 C5.36483871,111.227177 5.55274194,110.577177 5.26725806,110.061048 C4.98177419,109.544919 4.33177419,109.357016 3.81564516,109.6425" id="Fill-28" fill="#2F5266" mask="url(#mask-2)"></path>
                <path d="M29.5121774,115.460887 C28.9960484,115.746371 28.8081452,116.396371 29.093629,116.9125 C29.3791129,117.428629 30.0291129,117.616532 30.5452419,117.331048 C31.061371,117.045565 31.2492742,116.395565 30.9637903,115.879435 C30.6783065,115.363306 30.0283065,115.175403 29.5121774,115.460887" id="Fill-29" fill="#2F5266" mask="url(#mask-2)"></path>
                <path d="M84.5280645,115.460887 C84.0119355,115.746371 83.8240323,116.396371 84.1095161,116.9125 C84.395,117.428629 85.045,117.616532 85.561129,117.331048 C86.0772581,117.045565 86.2651613,116.395565 85.9796774,115.879435 C85.6941935,115.363306 85.0441935,115.175403 84.5280645,115.460887" id="Fill-30" fill="#2F5266" mask="url(#mask-2)"></path>
                <path d="M50.1790323,82.5420968 C49.8782258,82.5420968 49.5951613,82.3993548 49.416129,82.1574194 L3.19677419,19.8098387 C2.88467742,19.3880645 2.97258065,18.7937097 3.39435484,18.4808065 C3.81532258,18.1695161 4.41048387,18.2574194 4.72258065,18.6791935 L50.1790323,79.9977419 L95.6354839,18.6791935 C95.9467742,18.2574194 96.5419355,18.1687097 96.9637097,18.4808065 C97.3846774,18.7937097 97.4733871,19.3880645 97.1604839,19.8098387 L50.9419355,82.1574194 C50.7629032,82.3993548 50.4798387,82.5420968 50.1790323,82.5420968" id="Fill-31" fill="#2F5266" mask="url(#mask-2)"></path>
                <path d="M93.4816935,32.8775806 C93.2849194,32.8775806 93.0873387,32.8170968 92.9171774,32.6912903 C92.4954032,32.3783871 92.4075,31.7840323 92.7195968,31.3622581 L104.947823,14.8662903 C105.259919,14.4453226 105.854274,14.3558065 106.276048,14.6687097 C106.697823,14.9816129 106.785726,15.5759677 106.473629,15.9969355 L94.2454032,32.4929032 C94.0591129,32.7445161 93.7720161,32.8775806 93.4816935,32.8775806" id="Fill-32" fill="#2F5266" mask="url(#mask-2)"></path>
                <path d="M83.5645161,29.0304032 C83.3677419,29.0304032 83.1701613,28.9699194 83,28.8441129 C82.5782258,28.5312097 82.4903226,27.9368548 82.8024194,27.5150806 L89.3274194,18.7134677 C89.6395161,18.2925 90.233871,18.2029839 90.6556452,18.5158871 C91.0766129,18.8287903 91.1653226,19.4231452 90.8532258,19.8441129 L84.3282258,28.6457258 C84.1419355,28.8973387 83.8548387,29.0304032 83.5645161,29.0304032" id="Fill-33" fill="#2F5266" mask="url(#mask-2)"></path>
                <path d="M14.2155645,24.5949194 C13.9252419,24.5949194 13.6381452,24.4618548 13.4518548,24.2102419 L6.92685484,15.408629 C6.61475806,14.9876613 6.70266129,14.3933065 7.12443548,14.0804032 C7.54540323,13.7675 8.13975806,13.8570161 8.45266129,14.2779839 L14.9776613,23.0795968 C15.2897581,23.501371 15.2018548,24.0957258 14.7800806,24.408629 C14.6099194,24.5344355 14.4123387,24.5949194 14.2155645,24.5949194" id="Fill-34" fill="#2F5266" mask="url(#mask-2)"></path>
                <path d="M74.6533871,25.6943548 L65.488871,25.6943548 L65.488871,16.6806452 C65.488871,16.1564516 65.913871,15.7314516 66.4380645,15.7314516 C66.9630645,15.7314516 67.3880645,16.1564516 67.3880645,16.6806452 L67.3880645,23.7951613 L74.6533871,23.7951613 C75.1775806,23.7951613 75.6033871,24.2201613 75.6033871,24.7443548 C75.6033871,25.2693548 75.1775806,25.6943548 74.6533871,25.6943548" id="Fill-35" fill="#2F5266" mask="url(#mask-2)"></path>
                <path d="M59.1732258,37.0091129 L73.703871,37.0091129 L73.703871,23.5720161 L67.7619355,17.6308871 L59.1732258,17.6308871 L59.1732258,37.0091129 Z M75.6030645,38.9083065 L57.2740323,38.9083065 L57.2740323,15.7308871 L68.5482258,15.7308871 L75.6030645,22.7857258 L75.6030645,38.9083065 Z" id="Fill-36" fill="#2F5266" mask="url(#mask-2)"></path>
                <path d="M56.9767742,57.8350806 C56.4525806,57.8350806 56.0267742,57.4100806 56.0267742,56.8850806 L56.0267742,46.4504032 L47.7275806,46.4504032 L47.7275806,56.8850806 C47.7275806,57.4100806 47.3017742,57.8350806 46.7775806,57.8350806 C46.2533871,57.8350806 45.8275806,57.4100806 45.8275806,56.8850806 L45.8275806,44.5504032 L57.9267742,44.5504032 L57.9267742,56.8850806 C57.9267742,57.4100806 57.5009677,57.8350806 56.9767742,57.8350806" id="Fill-37" fill="#2F5266" mask="url(#mask-2)"></path>
                <path d="M43.8125,54.8707258 C42.7012097,54.8707258 41.7971774,55.7739516 41.7971774,56.8852419 C41.7971774,57.9965323 42.7012097,58.9005645 43.8125,58.9005645 C44.9237903,58.9005645 45.8278226,57.9965323 45.8278226,56.8852419 C45.8278226,55.7739516 44.9237903,54.8707258 43.8125,54.8707258 M43.8125,60.8005645 C41.6544355,60.8005645 39.8979839,59.0441129 39.8979839,56.8852419 C39.8979839,54.7271774 41.6544355,52.9715323 43.8125,52.9715323 C45.971371,52.9715323 47.7270161,54.7271774 47.7270161,56.8852419 C47.7270161,59.0441129 45.971371,60.8005645 43.8125,60.8005645" id="Fill-38" fill="#2F5266" mask="url(#mask-2)"></path>
                <path d="M54.0116935,54.8707258 C52.9004032,54.8707258 51.996371,55.7739516 51.996371,56.8852419 C51.996371,57.9965323 52.9004032,58.9005645 54.0116935,58.9005645 C55.1229839,58.9005645 56.0270161,57.9965323 56.0270161,56.8852419 C56.0270161,55.7739516 55.1229839,54.8707258 54.0116935,54.8707258 M54.0116935,60.8005645 C51.853629,60.8005645 50.0971774,59.0441129 50.0971774,56.8852419 C50.0971774,54.7271774 51.853629,52.9715323 54.0116935,52.9715323 C56.1705645,52.9715323 57.9262097,54.7271774 57.9262097,56.8852419 C57.9262097,59.0441129 56.1705645,60.8005645 54.0116935,60.8005645" id="Fill-39" fill="#2F5266" mask="url(#mask-2)"></path>
                <path d="M56.9767742,50.5179839 L46.7775806,50.5179839 C46.2533871,50.5179839 45.8275806,50.0929839 45.8275806,49.5679839 C45.8275806,49.0437903 46.2533871,48.6187903 46.7775806,48.6187903 L56.9767742,48.6187903 C57.5009677,48.6187903 57.9267742,49.0437903 57.9267742,49.5679839 C57.9267742,50.0929839 57.5009677,50.5179839 56.9767742,50.5179839" id="Fill-40" fill="#2F5266" mask="url(#mask-2)"></path>
                <path d="M24.1185484,36.5766129 L42.8629032,36.5766129 L42.8629032,17.8322581 L24.1185484,17.8322581 L24.1185484,36.5766129 Z M22.2185484,38.4766129 L44.7620968,38.4766129 L44.7620968,15.9330645 L22.2185484,15.9330645 L22.2185484,38.4766129 Z" id="Fill-41" fill="#2F5266" mask="url(#mask-2)"></path>
                <path d="M23.1684677,35.3552419 C22.9515323,35.3552419 22.7329839,35.2810484 22.5547581,35.1302419 C22.1547581,34.7907258 22.1055645,34.1915323 22.4450806,33.7915323 L30.2491129,24.5858871 L37.1668548,32.4399194 C37.513629,32.8334677 37.4757258,33.4334677 37.0821774,33.7802419 C36.688629,34.1278226 36.088629,34.0891129 35.7418548,33.6947581 L30.2765323,27.4907258 L23.8926613,35.0197581 C23.7055645,35.2407258 23.4378226,35.3552419 23.1684677,35.3552419" id="Fill-42" fill="#2F5266" mask="url(#mask-2)"></path>
                <path d="M43.8129032,32.3814516 C43.5451613,32.3814516 43.2790323,32.2685484 43.091129,32.0491935 L39.208871,27.5137097 L36.2185484,31.1274194 C35.8830645,31.5314516 35.283871,31.5879032 34.8814516,31.2540323 C34.4774194,30.9193548 34.4209677,30.3201613 34.7548387,29.916129 L39.183871,24.5637097 L44.533871,30.8145161 C44.875,31.2129032 44.8282258,31.8120968 44.4298387,32.1532258 C44.2508065,32.3064516 44.0314516,32.3814516 43.8129032,32.3814516" id="Fill-43" fill="#2F5266" mask="url(#mask-2)"></path>
                <path d="M35.6967742,22.5504839 C35.4467742,22.5504839 35.2048387,22.4537097 35.0274194,22.2762903 C34.85,22.0908065 34.7532258,21.8569355 34.7532258,21.598871 C34.7532258,21.348871 34.85,21.1069355 35.0274194,20.9295161 C35.3903226,20.5746774 36.0193548,20.5746774 36.3741935,20.9295161 C36.5516129,21.1069355 36.6483871,21.348871 36.6483871,21.598871 C36.6483871,21.8569355 36.5516129,22.0908065 36.3741935,22.2762903 C36.1967742,22.4537097 35.9548387,22.5504839 35.6967742,22.5504839" id="Fill-44" fill="#2F5266" mask="url(#mask-2)"></path>
                <path d="M85.0446774,56.1891129 C84.5204839,56.1891129 84.0946774,55.7641129 84.0946774,55.2391129 L84.0946774,47.5778226 C84.0946774,47.053629 84.5204839,46.628629 85.0446774,46.628629 C85.568871,46.628629 85.9946774,47.053629 85.9946774,47.5778226 L85.9946774,55.2391129 C85.9946774,55.7641129 85.568871,56.1891129 85.0446774,56.1891129" id="Fill-45" fill="#2F5266" mask="url(#mask-2)"></path>
                <path d="M88.8753226,52.3584677 L81.2140323,52.3584677 C80.6898387,52.3584677 80.2640323,51.9334677 80.2640323,51.4084677 C80.2640323,50.8842742 80.6898387,50.4592742 81.2140323,50.4592742 L88.8753226,50.4592742 C89.3995161,50.4592742 89.8253226,50.8842742 89.8253226,51.4084677 C89.8253226,51.9334677 89.3995161,52.3584677 88.8753226,52.3584677" id="Fill-46" fill="#2F5266" mask="url(#mask-2)"></path>
                <path d="M31.0970968,9.56056452 C30.5729032,9.56056452 30.1470968,9.13556452 30.1470968,8.61056452 L30.1470968,0.949274194 C30.1470968,0.425080645 30.5729032,8.06451613e-05 31.0970968,8.06451613e-05 C31.6212903,8.06451613e-05 32.0470968,0.425080645 32.0470968,0.949274194 L32.0470968,8.61056452 C32.0470968,9.13556452 31.6212903,9.56056452 31.0970968,9.56056452" id="Fill-47" fill="#2F5266" mask="url(#mask-2)"></path>
                <path d="M34.9277419,5.72991935 L27.2664516,5.72991935 C26.7422581,5.72991935 26.3164516,5.30491935 26.3164516,4.77991935 C26.3164516,4.25572581 26.7422581,3.83072581 27.2664516,3.83072581 L34.9277419,3.83072581 C35.4519355,3.83072581 35.8777419,4.25572581 35.8777419,4.77991935 C35.8777419,5.30491935 35.4519355,5.72991935 34.9277419,5.72991935" id="Fill-48" fill="#2F5266" mask="url(#mask-2)"></path>
            </g>
        </g>
    </g>
</svg>