<?xml version="1.0" encoding="UTF-8"?>
<svg width="102px" height="150px" viewBox="0 0 102 150" version="1.1" xmlns="http://www.w3.org/2000/svg" xmlns:xlink="http://www.w3.org/1999/xlink">
    <!-- Generator: Sketch 43.2 (39069) - http://www.bohemiancoding.com/sketch -->
    <title>Page 1</title>
    <desc>Created with Sketch.</desc>
    <defs>
        <polygon id="path-1" points="9.09646552 9.29920588 9.09646552 0.467955882 0.632047917 0.467955882 0.632047917 9.29920588 9.09646552 9.29920588"></polygon>
        <polygon id="path-3" points="0 0.467647059 0 9.3 8.46481293 9.3 8.46481293 0.467647059 1.19168773e-20 0.467647059"></polygon>
    </defs>
    <g id="Design-1" stroke="none" stroke-width="1" fill="none" fill-rule="evenodd">
        <g id="Page-1">
            <path d="M54.8736259,123.744088 C54.3020741,123.744088 53.8377983,123.279088 53.8377983,122.704676 L53.8377983,118.347618 C53.8377983,117.773206 54.3020741,117.308206 54.8736259,117.308206 C55.4451776,117.308206 55.9094534,117.773206 55.9094534,118.347618 L55.9094534,122.704676 C55.9094534,123.279088 55.4451776,123.744088 54.8736259,123.744088" id="Fill-1" fill="#D3D0CA"></path>
            <path d="M50.8059362,143.875324 C50.2343845,143.875324 49.7701086,143.410324 49.7701086,142.835912 L49.7701086,120.479735 C49.7701086,119.906206 50.2343845,119.441206 50.8059362,119.441206 C51.3774879,119.441206 51.8417638,119.906206 51.8417638,120.479735 L51.8417638,142.835912 C51.8417638,143.410324 51.3774879,143.875324 50.8059362,143.875324" id="Fill-3" fill="#D3D0CA"></path>
            <path d="M46.7382466,123.744088 C46.1666948,123.744088 45.702419,123.279088 45.702419,122.704676 L45.702419,118.347618 C45.702419,117.773206 46.1666948,117.308206 46.7382466,117.308206 C47.3097983,117.308206 47.7740741,117.773206 47.7740741,118.347618 L47.7740741,122.704676 C47.7740741,123.279088 47.3097983,123.744088 46.7382466,123.744088" id="Fill-5" fill="#D3D0CA"></path>
            <path d="M46.7408845,126.808235 C46.4595052,126.808235 46.2053845,126.702353 46.0022638,126.508235 C45.8088155,126.314118 45.7032983,126.050294 45.7032983,125.775882 C45.7032983,125.503235 45.8088155,125.228824 46.0022638,125.034706 C46.3979534,124.656176 47.0750224,124.656176 47.4707121,125.034706 C47.6641603,125.228824 47.7696776,125.503235 47.7696776,125.775882 C47.7696776,126.050294 47.6641603,126.314118 47.4707121,126.508235 C47.26935,126.702353 47.01435,126.808235 46.7408845,126.808235" id="Fill-7" fill="#D3D0CA"></path>
            <path d="M46.7408845,129.861088 C46.4595052,129.861088 46.1957121,129.755206 46.0022638,129.552265 C45.8088155,129.366971 45.7032983,129.103147 45.7032983,128.819912 C45.7032983,128.546382 45.8176086,128.281676 46.0022638,128.087559 C46.3900397,127.699324 47.0846948,127.699324 47.4707121,128.087559 C47.6641603,128.281676 47.7696776,128.546382 47.7696776,128.819912 C47.7696776,129.103147 47.6641603,129.359029 47.4707121,129.561088 C47.2772638,129.755206 47.01435,129.861088 46.7408845,129.861088" id="Fill-9" fill="#D3D0CA"></path>
            <path d="M54.8745052,126.808235 C54.5931259,126.808235 54.3390052,126.702353 54.1446776,126.508235 C53.9424362,126.314118 53.836919,126.050294 53.836919,125.775882 C53.836919,125.503235 53.9512293,125.228824 54.1446776,125.034706 C54.5403672,124.646471 55.2183155,124.656176 55.6043328,125.034706 C55.797781,125.228824 55.9032983,125.493529 55.9032983,125.775882 C55.9032983,126.050294 55.797781,126.314118 55.6043328,126.508235 C55.4108845,126.702353 55.1479707,126.808235 54.8745052,126.808235" id="Fill-11" fill="#D3D0CA"></path>
            <path d="M50.8033862,146.935147 C50.5308,146.935147 50.2670069,146.829265 50.0735586,146.625441 C49.8801103,146.432206 49.7658,146.176324 49.7658,145.893088 C49.7658,145.620441 49.8801103,145.355735 50.0735586,145.160735 C50.4516621,144.773382 51.1551103,144.773382 51.5332138,145.160735 C51.7266621,145.355735 51.8409724,145.620441 51.8409724,145.893088 C51.8409724,146.176324 51.7354552,146.432206 51.5332138,146.625441 C51.3397655,146.829265 51.0847655,146.935147 50.8033862,146.935147" id="Fill-13" fill="#D3D0CA"></path>
            <path d="M50.8033862,149.784706 C50.5308,149.784706 50.2670069,149.678824 50.0735586,149.484706 C49.8801103,149.281765 49.7658,149.025882 49.7658,148.752353 C49.7658,148.479706 49.8801103,148.205294 50.0735586,148.011176 C50.4516621,147.632647 51.1551103,147.622941 51.5332138,148.011176 C51.7266621,148.205294 51.8409724,148.479706 51.8409724,148.752353 C51.8409724,149.025882 51.7354552,149.290588 51.5332138,149.484706 C51.3397655,149.678824 51.0847655,149.784706 50.8033862,149.784706" id="Fill-15" fill="#D3D0CA"></path>
            <path d="M50.8127948,112.551794 C50.2412431,112.551794 49.7769672,112.086794 49.7769672,111.512382 L49.7769672,101.628265 C49.7769672,101.054735 50.2412431,100.588853 50.8127948,100.588853 C51.3843466,100.588853 51.8486224,101.054735 51.8486224,101.628265 L51.8486224,111.512382 C51.8486224,112.086794 51.3843466,112.551794 50.8127948,112.551794" id="Fill-17" fill="#2F5266"></path>
            <g id="Group-21" transform="translate(43.086207, 0.667059)" fill="#2F5266">
                <path d="M7.76096897,23.4383824 C7.52971034,23.4383824 7.29933103,23.3607353 7.1094,23.2063235 L0.929606897,18.1830882 C0.686917241,17.9854412 0.546227586,17.6889706 0.546227586,17.3757353 L0.546227586,7.24985294 C0.546227586,3.99838235 2.72691724,1.12632353 5.85022759,0.266911765 C6.39979655,0.116029412 6.97222759,0.441617647 7.12258966,0.993970588 C7.27383103,1.54720588 6.94936552,2.11985294 6.39803793,2.27161765 C4.17162414,2.88397059 2.61700345,4.93102941 2.61700345,7.24985294 L2.61700345,16.8798529 L7.76096897,21.0622059 L12.9058138,16.8798529 L12.9058138,7.24985294 C12.9058138,4.90720588 11.330969,2.85485294 9.07641724,2.25838235 C8.52333103,2.11191176 8.19271034,1.54455882 8.33867586,0.989558824 C8.48552069,0.434558824 9.05531379,0.104558824 9.60400345,0.249264706 C12.7668828,1.08573529 14.9765897,3.96485294 14.9765897,7.24985294 L14.9765897,17.3757353 C14.9765897,17.6889706 14.8359,17.9854412 14.5932103,18.1830882 L8.41253793,23.2063235 C8.2226069,23.3607353 7.99222759,23.4383824 7.76096897,23.4383824" id="Fill-19"></path>
            </g>
            <path d="M76.8331707,79.8513529 C76.360981,79.8513529 75.9353948,79.5257647 75.825481,79.044 L62.5901017,21.0416471 C62.0088776,18.4942941 60.8798431,18.1510588 59.8536879,18.1510588 C59.2821362,18.1510588 58.8187397,17.6860588 58.8187397,17.1125294 C58.8187397,16.5381176 59.2821362,16.0731176 59.8536879,16.0731176 C62.3263086,16.0731176 63.9257741,17.589 64.608119,20.5775294 L77.842619,78.5807647 C77.9709983,79.1392941 77.6219121,79.6969412 77.0653086,79.8248824 C76.9879293,79.8425294 76.9096707,79.8513529 76.8331707,79.8513529" id="Fill-22" fill="#E14E3A"></path>
            <path d="M24.7787017,79.8513529 C24.7022017,79.8513529 24.6239431,79.8425294 24.5465638,79.8248824 C23.9899603,79.6969412 23.6408741,79.1392941 23.7692534,78.5807647 L37.0046328,20.5775294 C37.6869776,17.589 39.2855638,16.0731176 41.7581845,16.0731176 C42.3297362,16.0731176 42.7931328,16.5381176 42.7931328,17.1125294 C42.7931328,17.6860588 42.3297362,18.1510588 41.7581845,18.1510588 C40.7320293,18.1510588 39.6038741,18.4942941 39.02265,21.0416471 L25.7863914,79.044 C25.6764776,79.5257647 25.2508914,79.8513529 24.7787017,79.8513529" id="Fill-24" fill="#E14E3A"></path>
            <path d="M65.8744138,82.7715882 C64.1870172,82.7715882 63.2857241,81.8583529 62.6271207,81.1912941 C62.001931,80.5577647 61.6387759,80.2268824 60.8509138,80.2268824 C60.063931,80.2268824 59.7007759,80.5577647 59.0755862,81.1912941 C58.4169828,81.8583529 57.5148103,82.7715882 55.8274138,82.7715882 C54.1400172,82.7715882 53.2387241,81.8583529 52.5801207,81.1912941 C51.954931,80.5577647 51.5917759,80.2268824 50.8039138,80.2268824 C50.016931,80.2268824 49.6537759,80.5577647 49.0285862,81.1912941 C48.3699828,81.8583529 47.4678103,82.7715882 45.7804138,82.7715882 C44.0930172,82.7715882 43.1926034,81.8583529 42.534,81.1912941 C41.9088103,80.5577647 41.5456552,80.2268824 40.7586724,80.2268824 C39.9708103,80.2268824 39.6076552,80.5577647 38.9824655,81.1912941 C38.3238621,81.8583529 37.4234483,82.7715882 35.7360517,82.7715882 C34.0486552,82.7715882 33.1473621,81.8583529 32.4887586,81.1912941 C31.863569,80.5577647 31.5004138,80.2268824 30.713431,80.2268824 C30.141,80.2268824 29.6776034,79.7618824 29.6776034,79.1874706 C29.6776034,78.6139412 30.141,78.1489412 30.713431,78.1489412 C32.4017069,78.1489412 33.3021207,79.0621765 33.9607241,79.7292353 C34.5859138,80.3636471 34.949069,80.6936471 35.7360517,80.6936471 C36.5221552,80.6936471 36.8853103,80.3636471 37.5105,79.7292353 C38.1691034,79.0621765 39.0712759,78.1489412 40.7586724,78.1489412 C42.446069,78.1489412 43.3473621,79.0621765 44.0059655,79.7292353 C44.6311552,80.3636471 44.9943103,80.6936471 45.7804138,80.6936471 C46.5682759,80.6936471 46.931431,80.3627647 47.5566207,79.7292353 C48.2152241,79.0621765 49.1165172,78.1489412 50.8039138,78.1489412 C52.4913103,78.1489412 53.3934828,79.0621765 54.0520862,79.7292353 C54.6772759,80.3627647 55.040431,80.6936471 55.8274138,80.6936471 C56.6152759,80.6936471 56.978431,80.3627647 57.6036207,79.7292353 C58.2622241,79.0621765 59.1635172,78.1489412 60.8509138,78.1489412 C62.5383103,78.1489412 63.4396034,79.0621765 64.0982069,79.7292353 C64.7233966,80.3627647 65.0865517,80.6936471 65.8744138,80.6936471 C66.6622759,80.6936471 67.0263103,80.3627647 67.6515,79.7292353 C68.3101034,79.0621765 69.2113966,78.1489412 70.8987931,78.1489412 C71.4703448,78.1489412 71.9346207,78.6139412 71.9346207,79.1874706 C71.9346207,79.7618824 71.4703448,80.2268824 70.8987931,80.2268824 C70.110931,80.2268824 69.7477759,80.5577647 69.1225862,81.1912941 C68.4639828,81.8583529 67.5626897,82.7715882 65.8744138,82.7715882" id="Fill-26" fill="#E14E3A"></path>
            <g id="Group-30" transform="translate(92.327586, 43.902353)">
                <mask id="mask-2" fill="white">
                    <use xlink:href="#path-1"></use>
                </mask>
                <g id="Clip-29"></g>
                <path d="M4.60609138,9.29920588 C4.04597069,9.29920588 3.48672931,9.08655882 3.06026379,8.65861765 L0.93497069,6.52508824 C0.530487931,6.11920588 0.531367241,5.46185294 0.93585,5.05597059 C1.34033276,4.65008824 1.99541897,4.65097059 2.39990172,5.05685294 L4.52431552,7.1895 C4.56916034,7.23273529 4.64390172,7.23361765 4.68874655,7.18861765 L6.99341897,4.87508824 C7.0391431,4.83097059 7.0391431,4.75685294 6.99341897,4.71097059 L4.86812586,2.57920588 C4.82328103,2.53420588 4.74853966,2.53420588 4.70369483,2.57920588 C4.29745345,2.98420588 3.64236724,2.98508824 3.2396431,2.57832353 C2.83516034,2.17155882 2.83603966,1.51420588 3.24052241,1.10920588 C4.09257414,0.254205882 5.48012586,0.254205882 6.33217759,1.10920588 L8.45835,3.24185294 C9.30952241,4.09773529 9.30952241,5.48920588 8.45835,6.34420588 L6.15279828,8.65861765 C5.72545345,9.08567647 5.16621207,9.29920588 4.60609138,9.29920588" id="Fill-28" fill="#2F5266" mask="url(#mask-2)"></path>
            </g>
            <path d="M91.5418345,48.3847941 C91.2604552,48.3847941 91.0054552,48.2789118 90.8120069,48.0759706 C90.6185586,47.8906765 90.5042483,47.6259706 90.5042483,47.3436176 C90.5042483,47.0700882 90.6185586,46.8053824 90.8120069,46.6112647 C91.1901103,46.2230294 91.8847655,46.2230294 92.2716621,46.6112647 C92.4651103,46.8053824 92.5794207,47.0700882 92.5794207,47.3436176 C92.5794207,47.6259706 92.4739034,47.8818529 92.2716621,48.0759706 C92.0782138,48.2789118 91.8232138,48.3847941 91.5418345,48.3847941" id="Fill-31" fill="#2F5266"></path>
            <path d="M89.5642655,46.9242353 C89.355869,46.9242353 89.1439552,46.8607059 88.9610586,46.7292353 L68.7756103,31.9648235 C68.3113345,31.6295294 68.2049379,30.981 68.5381966,30.5151176 C68.8732138,30.0492353 69.5186276,29.9433529 69.9829034,30.276 L90.1683517,45.0404118 C90.6335069,45.3757059 90.7399034,46.0242353 90.4066448,46.491 C90.2044034,46.7733529 89.8860931,46.9242353 89.5642655,46.9242353" id="Fill-33" fill="#2F5266"></path>
            <path d="M94.1505724,44.8932353 C93.5922103,44.8932353 93.2686241,44.4114706 93.1015552,44.1617647 C93.0171414,44.0347059 92.9635034,43.8970588 92.9397621,43.7567647 C91.9056931,42.0882353 88.1862103,36.8382353 84.0763138,35.1494118 C83.546969,34.9314706 83.2937276,34.3244118 83.5100379,33.7941176 C83.7272276,33.2611765 84.3330724,33.0097059 84.8615379,33.2258824 C90.0916759,35.3761765 95.2681759,42.8497059 95.2022276,43.9111765 C95.174969,44.3558824 94.8654517,44.7361765 94.4381069,44.8535294 C94.3361069,44.8808824 94.2402621,44.8932353 94.1505724,44.8932353" id="Fill-35" fill="#2F5266"></path>
            <path d="M80.4689431,31.6209706 C80.117219,31.6209706 79.7742879,31.4409706 79.5799603,31.1162647 C76.9332362,26.6877353 72.4619431,25.4947941 72.4170983,25.4833235 C72.1031845,25.4030294 71.8455466,25.1797941 71.7198052,24.8815588 C70.4562362,21.8833235 68.5173569,20.2827353 65.6173914,19.8433235 C65.0528741,19.7586176 64.6624603,19.2292059 64.7486328,18.6609706 C64.8339259,18.0953824 65.3474431,17.7045 65.9269086,17.7892059 C69.4080983,18.3159706 71.86665,20.2262647 73.4300638,23.6242059 C74.8264086,24.0989118 78.7982534,25.7674412 81.3561672,30.0477353 C81.6507362,30.5392059 81.4907017,31.1771471 81.0000466,31.4727353 C80.8338569,31.5724412 80.650081,31.6209706 80.4689431,31.6209706" id="Fill-37" fill="#2F5266"></path>
            <path d="M81.7037586,38.3299412 C81.1322069,38.3299412 80.667931,37.8649412 80.667931,37.2905294 L80.667931,32.9387647 C80.667931,32.3643529 81.1322069,31.8993529 81.7037586,31.8993529 C82.2753103,31.8993529 82.7395862,32.3643529 82.7395862,32.9387647 L82.7395862,37.2905294 C82.7395862,37.8649412 82.2753103,38.3299412 81.7037586,38.3299412" id="Fill-39" fill="#2F5266"></path>
            <g id="Group-43" transform="translate(0.000000, 43.902353)">
                <mask id="mask-4" fill="white">
                    <use xlink:href="#path-3"></use>
                </mask>
                <g id="Clip-42"></g>
                <path d="M4.49011034,9.3 C3.93086897,9.3 3.37162759,9.08647059 2.94428276,8.65852941 L0.638731034,6.345 C-0.21332069,5.49 -0.21332069,4.09764706 0.638731034,3.24176471 L2.76314483,1.11 C3.61695517,0.253235294 5.0045069,0.254117647 5.85655862,1.10911765 C6.26016207,1.515 6.26016207,2.17323529 5.85655862,2.57911765 C5.45119655,2.98411765 4.79698966,2.98411765 4.39162759,2.57911765 C4.34678276,2.53235294 4.27204138,2.53411765 4.22719655,2.57911765 L2.10366207,4.71088235 C2.05705862,4.75764706 2.05705862,4.83 2.10366207,4.875 L4.40921379,7.18852941 C4.45493793,7.23617647 4.52792069,7.23441176 4.57188621,7.18852941 L6.69717931,5.05588235 C7.10254138,4.65088235 7.75674828,4.65088235 8.16211034,5.05588235 C8.56571379,5.46176471 8.56571379,6.12 8.16211034,6.52588235 L6.03681724,8.65852941 C5.60947241,9.08647059 5.05023103,9.3 4.49011034,9.3" id="Fill-41" fill="#2F5266" mask="url(#mask-4)"></path>
            </g>
            <path d="M32.3901879,32.2025294 C32.1176017,32.2025294 31.8546879,32.0966471 31.6612397,31.9025294 C31.4669121,31.7075294 31.3613948,31.4437059 31.3613948,31.1701765 C31.3613948,30.8966471 31.4669121,30.6231176 31.6612397,30.429 C32.0472569,30.0495882 32.7419121,30.0495882 33.1200155,30.429 C33.3143431,30.6231176 33.4286534,30.8966471 33.4286534,31.1701765 C33.4286534,31.4437059 33.3231362,31.7075294 33.1200155,31.9025294 C32.9265672,32.0966471 32.6636534,32.2025294 32.3901879,32.2025294" id="Fill-44" fill="#2F5266"></path>
            <path d="M9.88019483,48.3847941 C9.60760862,48.3847941 9.34381552,48.2789118 9.15036724,48.0847941 C8.94812586,47.8818529 8.84260862,47.6259706 8.84260862,47.3436176 C8.84260862,47.0700882 8.95691897,46.8053824 9.15036724,46.6112647 C9.53726379,46.2230294 10.2231259,46.2230294 10.6100224,46.6112647 C10.8034707,46.8053824 10.917781,47.0700882 10.917781,47.3436176 C10.917781,47.6259706 10.8131431,47.8818529 10.6100224,48.0847941 C10.4165741,48.2789118 10.1536603,48.3847941 9.88019483,48.3847941" id="Fill-46" fill="#2F5266"></path>
            <path d="M11.8595224,46.9242353 C11.5376948,46.9242353 11.2193845,46.7733529 11.0171431,46.491 C10.6838845,46.0242353 10.790281,45.3757059 11.2554362,45.0404118 L29.2320569,32.0936471 C29.6954534,31.7601176 30.3435052,31.8668824 30.6767638,32.3327647 C31.0100224,32.7986471 30.9036259,33.4480588 30.43935,33.7824706 L12.4627293,46.7292353 C12.2798328,46.8607059 12.067919,46.9242353 11.8595224,46.9242353" id="Fill-48" fill="#2F5266"></path>
            <path d="M7.27321552,44.8932353 C7.18352586,44.8932353 7.08768103,44.8808824 6.98568103,44.8535294 C6.55833621,44.7361765 6.24881897,44.3558824 6.22156034,43.9111765 C6.15561207,42.8497059 11.3329914,35.3761765 16.5631293,33.2258824 C17.0924741,33.0105882 17.6974397,33.2620588 17.9146293,33.7941176 C18.1309397,34.3244118 17.8776983,34.9314706 17.3483534,35.1494118 C13.2384569,36.8382353 9.51809483,42.0891176 8.48402586,43.7567647 C8.46028448,43.8979412 8.40664655,44.0355882 8.32223276,44.1617647 C8.15516379,44.4114706 7.83157759,44.8932353 7.27321552,44.8932353" id="Fill-50" fill="#2F5266"></path>
            <path d="M20.9557241,31.6209706 C20.7745862,31.6209706 20.5908103,31.5733235 20.4246207,31.4727353 C19.9339655,31.1780294 19.773931,30.5392059 20.0685,30.0477353 C22.6255345,25.7674412 26.5982586,24.0989118 27.9946034,23.6242059 C29.5571379,20.2262647 32.0156897,18.3159706 35.4968793,17.7892059 C36.068431,17.7027353 36.5889828,18.0953824 36.6751552,18.6609706 C36.7613276,19.2292059 36.3709138,19.7586176 35.8063966,19.8433235 C32.906431,20.2827353 30.9675517,21.8833235 29.7048621,24.8815588 C29.5791207,25.1797941 29.3214828,25.4030294 29.007569,25.4833235 C28.9653621,25.4947941 24.4720862,26.7186176 21.8447069,31.1162647 C21.6503793,31.4409706 21.3074483,31.6209706 20.9557241,31.6209706" id="Fill-52" fill="#2F5266"></path>
            <path d="M19.7201172,38.3299412 C19.1485655,38.3299412 18.6842897,37.8649412 18.6842897,37.2905294 L18.6842897,32.9387647 C18.6842897,32.3643529 19.1485655,31.8993529 19.7201172,31.8993529 C20.291669,31.8993529 20.7559448,32.3643529 20.7559448,32.9387647 L20.7559448,37.2905294 C20.7559448,37.8649412 20.291669,38.3299412 19.7201172,38.3299412" id="Fill-54" fill="#2F5266"></path>
            <path d="M35.9899086,76.0642941 C35.9635293,76.0642941 35.9353914,76.0634118 35.9081328,76.0607647 C35.3383397,76.0157647 34.9118741,75.5163529 34.956719,74.9437059 L36.4937534,55.2425294 C36.5385983,54.6707647 37.03365,54.2269412 37.6069603,54.2878235 C38.1767534,54.3328235 38.603219,54.8331176 38.5583741,55.4048824 L37.0213397,75.1060588 C36.9791328,75.6504706 36.5245293,76.0642941 35.9899086,76.0642941" id="Fill-56" fill="#E14E3A"></path>
            <path d="M63.8599138,72.129 C63.3472759,72.129 62.9014655,71.7460588 62.8346379,71.2228235 L58.1839655,34.9687059 C58.1109828,34.3987059 58.5119483,33.8781176 59.0791034,33.8048824 C59.6357069,33.729 60.1650517,34.1331176 60.2380345,34.7031176 L64.8887069,70.9572353 C64.9616897,71.5263529 64.5607241,72.0469412 63.993569,72.1201765 C63.9496034,72.1263529 63.9047586,72.129 63.8599138,72.129" id="Fill-58" fill="#E14E3A"></path>
            <path d="M53.1699621,76.0642941 C52.6063241,76.0642941 52.1455655,75.6116471 52.1341345,75.0451765 L51.7199793,53.1469412 C51.7094276,52.5734118 52.1631517,52.0995882 52.7355828,52.0881176 L52.7549276,52.0881176 C53.3185655,52.0881176 53.7793241,52.5407647 53.7907552,53.1072353 L54.2057897,75.0054706 C54.2154621,75.579 53.7617379,76.0528235 53.1893069,76.0642941 L53.1699621,76.0642941 Z" id="Fill-60" fill="#E14E3A"></path>
            <path d="M52.6942552,46.9242353 C52.1314966,46.9242353 51.6707379,46.4724706 51.6584276,45.9068824 L51.3902379,32.9601176 C51.3788069,32.3857059 51.832531,31.911 52.4040828,31.8995294 L52.4260655,31.8995294 C52.9879448,31.8995294 53.4487034,32.3504118 53.4610138,32.9168824 L53.7300828,45.8636471 C53.7406345,46.4371765 53.2877897,46.9118824 52.7153586,46.9242353 L52.6942552,46.9242353 Z" id="Fill-62" fill="#E14E3A"></path>
            <path d="M52.7551914,50.6346176 C52.4826052,50.6346176 52.2196914,50.5199118 52.0253638,50.3257941 C51.8231224,50.1325588 51.7176052,49.8669706 51.7176052,49.5934412 C51.7176052,49.3199118 51.8319155,49.0552059 52.0253638,48.8610882 C52.4043466,48.4728529 53.0990017,48.4640294 53.485019,48.8610882 C53.6793466,49.0552059 53.7936569,49.3199118 53.7936569,49.5934412 C53.7936569,49.8669706 53.6793466,50.1325588 53.485019,50.3257941 C53.2915707,50.5199118 53.0286569,50.6346176 52.7551914,50.6346176" id="Fill-64" fill="#E14E3A"></path>
            <path d="M64.2651879,75.3938824 C63.9846879,75.3938824 63.7296879,75.288 63.5265672,75.0938824 C63.333119,74.8909412 63.2276017,74.6350588 63.2276017,74.3518235 C63.2276017,74.088 63.3419121,73.8144706 63.5265672,73.6194706 C63.9143431,73.2321176 64.6089983,73.2321176 64.9950155,73.6194706 C65.1893431,73.8144706 65.2948603,74.0791765 65.2948603,74.3518235 C65.2948603,74.6350588 65.1893431,74.8909412 64.9950155,75.0938824 C64.8015672,75.288 64.5386534,75.3938824 64.2651879,75.3938824" id="Fill-66" fill="#E14E3A"></path>
            <path d="M47.3299345,8.23773529 C47.0573483,8.23773529 46.7944345,8.13185294 46.6001069,7.93773529 C46.4066586,7.73479412 46.2923483,7.47891176 46.2923483,7.19655882 C46.2923483,6.92302941 46.4066586,6.65832353 46.6001069,6.46420588 C46.9870034,6.07597059 47.6737448,6.07597059 48.0597621,6.46420588 C48.2532103,6.65832353 48.3684,6.92302941 48.3684,7.19655882 C48.3684,7.47891176 48.2532103,7.73479412 48.0597621,7.93773529 C47.8663138,8.13185294 47.6113138,8.23773529 47.3299345,8.23773529" id="Fill-68" fill="#2F5266"></path>
            <path d="M37.7459793,53.4583235 C37.4646,53.4583235 37.2096,53.3524412 37.0064793,53.1495 C36.813031,52.9553824 36.7075138,52.6995 36.7075138,52.4171471 C36.7075138,52.1436176 36.813031,51.8789118 37.0064793,51.6847941 C37.3854621,51.3053824 38.0889103,51.2965588 38.4758069,51.6847941 C38.6692552,51.8789118 38.7747724,52.1436176 38.7747724,52.4171471 C38.7747724,52.6995 38.6692552,52.9553824 38.4758069,53.1495 C38.2814793,53.3524412 38.0185655,53.4583235 37.7459793,53.4583235" id="Fill-70" fill="#E14E3A"></path>
            <path d="M73.7006276,79.9642059 C73.4280414,79.9642059 73.1642483,79.8583235 72.9708,79.6642059 C72.7685586,79.4612647 72.6630414,79.2053824 72.6630414,78.9318529 C72.6630414,78.6583235 72.7773517,78.3847941 72.9708,78.1906765 C73.3576966,77.8024412 74.0435586,77.8024412 74.4304552,78.1906765 C74.6239034,78.3847941 74.7382138,78.6495 74.7382138,78.9318529 C74.7382138,79.2053824 74.6326966,79.4612647 74.4304552,79.6642059 C74.2370069,79.8583235 73.9732138,79.9642059 73.7006276,79.9642059" id="Fill-72" fill="#E14E3A"></path>
            <path d="M54.8745052,97.0020882 C54.5931259,97.0020882 54.3390052,96.8970882 54.1446776,96.7020882 C53.9424362,96.5079706 53.836919,96.2441471 53.836919,95.9697353 C53.836919,95.6970882 53.9512293,95.4226765 54.1446776,95.2285588 C54.5315741,94.8500294 55.2183155,94.8500294 55.6043328,95.2285588 C55.797781,95.4226765 55.9032983,95.6970882 55.9032983,95.9697353 C55.9032983,96.2441471 55.797781,96.5079706 55.6043328,96.7020882 C55.4108845,96.8970882 55.1479707,97.0020882 54.8745052,97.0020882" id="Fill-74" fill="#2F5266"></path>
            <path d="M50.8033862,115.346206 C50.5308,115.346206 50.2670069,115.241206 50.0735586,115.046206 C49.8801103,114.844147 49.7658,114.588265 49.7658,114.305029 C49.7658,114.032382 49.8801103,113.766794 50.0735586,113.572676 C50.4516621,113.185324 51.1463172,113.185324 51.5332138,113.572676 C51.7266621,113.766794 51.8409724,114.032382 51.8409724,114.305029 C51.8409724,114.588265 51.7354552,114.852088 51.5332138,115.046206 C51.3397655,115.241206 51.0759724,115.346206 50.8033862,115.346206" id="Fill-76" fill="#2F5266"></path>
            <path d="M27.7566621,79.8495882 C27.4840759,79.8495882 27.2202828,79.7437059 27.0268345,79.5495882 C26.8333862,79.3545882 26.7190759,79.0907647 26.7190759,78.8084118 C26.7190759,78.5348824 26.8333862,78.2701765 27.0268345,78.0760588 C27.413731,77.6878235 28.0995931,77.6878235 28.4864897,78.0760588 C28.6799379,78.2701765 28.7942483,78.5348824 28.7942483,78.8084118 C28.7942483,79.0907647 28.688731,79.3466471 28.4952828,79.5398824 C28.2930414,79.7437059 28.0292483,79.8495882 27.7566621,79.8495882" id="Fill-78" fill="#E14E3A"></path>
            <path d="M47.9052672,115.347971 C47.8103017,115.347971 47.7135776,115.334735 47.6186121,115.307382 C47.4506638,115.258853 43.5333362,114.080029 43.2334914,109.913559 C42.9740948,106.310912 43.5139914,101.922088 44.4618879,99.9217941 C45.5135431,97.7017941 47.4190086,97.5473824 48.4451638,97.9859118 C48.9709914,98.2109118 49.2154397,98.8215 48.9912155,99.3491471 C48.7678707,99.8759118 48.1620259,100.122088 47.632681,99.8970882 C47.4295603,99.8265 46.8377845,99.7462059 46.332181,100.813853 C45.6287328,102.297971 45.04575,106.248265 45.2989914,109.763559 C45.4959569,112.500618 48.1637845,113.302676 48.1901638,113.309735 C48.7397328,113.468559 49.0580431,114.044735 48.8997672,114.595324 C48.76875,115.0515 48.3545948,115.347971 47.9052672,115.347971" id="Fill-80" fill="#2F5266"></path>
            <path d="M53.719531,115.347971 C53.2702034,115.347971 52.8560483,115.0515 52.725031,114.595324 C52.5676345,114.045618 52.8833069,113.472088 53.4293586,113.3115 C53.5524621,113.274441 56.1314793,112.460912 56.3258069,109.763559 C56.5790483,106.248265 55.9960655,102.297971 55.2926172,100.813853 C54.7184276,99.6023824 54.0220138,99.8873824 53.9929966,99.8970882 C53.4610138,100.122088 52.8578069,99.8759118 52.6344621,99.3491471 C52.4102379,98.8215 52.6546862,98.2109118 53.1805138,97.9859118 C54.2075483,97.5491471 56.1121345,97.7026765 57.1629103,99.9217941 C58.1108069,101.922088 58.6507034,106.310912 58.3913069,109.913559 C58.0914621,114.080029 54.1741345,115.258853 54.0061862,115.307382 C53.9112207,115.334735 53.8144966,115.347971 53.719531,115.347971" id="Fill-82" fill="#2F5266"></path>
            <path d="M46.7365759,97.2829412 C46.2318517,97.2829412 45.7895586,96.9114706 45.7139379,96.3952941 L44.0986448,85.3914706 C44.0151103,84.8241176 44.4064034,84.2955882 44.9718,84.2126471 C45.5345586,84.1270588 46.0639034,84.5205882 46.1474379,85.0888235 L47.762731,96.0917647 C47.8462655,96.66 47.4549724,97.1885294 46.8895759,97.2714706 C46.8376966,97.2794118 46.7875759,97.2829412 46.7365759,97.2829412" id="Fill-84" fill="#2F5266"></path>
            <path d="M55.3252397,94.3102059 C55.2742397,94.3102059 55.224119,94.3066765 55.1722397,94.2987353 C54.6068431,94.2157941 54.21555,93.6872647 54.2990845,93.1190294 L55.4782397,85.0887353 C55.5617741,84.5205 56.0902397,84.1269706 56.6538776,84.2125588 C57.2192741,84.2955 57.6105672,84.8240294 57.5270328,85.3922647 L56.3478776,93.4225588 C56.2722569,93.9387353 55.8299638,94.3102059 55.3252397,94.3102059" id="Fill-86" fill="#2F5266"></path>
            <path d="M50.8127948,99.6594706 C50.2412431,99.6594706 49.7769672,99.1944706 49.7769672,98.6200588 L49.7769672,83.0297647 C49.7769672,82.4562353 50.2412431,81.9912353 50.8127948,81.9912353 C51.3843466,81.9912353 51.8486224,82.4562353 51.8486224,83.0297647 L51.8486224,98.6200588 C51.8486224,99.1944706 51.3843466,99.6594706 50.8127948,99.6594706" id="Fill-88" fill="#2F5266"></path>
            <path d="M47.3316052,17.3567647 C46.7600534,17.3567647 46.2957776,16.8917647 46.2957776,16.3173529 L46.2957776,10.7285294 C46.2957776,10.155 46.7600534,9.69 47.3316052,9.69 C47.9031569,9.69 48.3674328,10.155 48.3674328,10.7285294 L48.3674328,16.3173529 C48.3674328,16.8917647 47.9031569,17.3567647 47.3316052,17.3567647" id="Fill-90" fill="#2F5266"></path>
        </g>
    </g>
</svg>