<?xml version="1.0" encoding="UTF-8"?>
<svg width="160px" height="160px" viewBox="0 0 160 160" version="1.1" xmlns="http://www.w3.org/2000/svg" xmlns:xlink="http://www.w3.org/1999/xlink">
    <!-- Generator: Sketch 43.2 (39069) - http://www.bohemiancoding.com/sketch -->
    <title>Group 12</title>
    <desc>Created with Sketch.</desc>
    <defs>
        <polygon id="path-1" points="17.519 17.5345 17.519 0.0905 0.0751 0.0905 0.0751 17.5345 17.519 17.5345"></polygon>
        <polygon id="path-3" points="22.6659 0.085 0.1389 0.085 0.1389 22.6121 22.6659 22.6121 22.6659 0.085"></polygon>
    </defs>
    <g id="Design-1" stroke="none" stroke-width="1" fill="none" fill-rule="evenodd">
        <g id="Group-12">
            <circle id="Oval-1" fill="#FFFEF3" cx="80" cy="80" r="80"></circle>
            <g id="Page-1" transform="translate(31.000000, 24.000000)">
                <path d="M10.1854,79.8164 L48.4024,101.8814 L86.6194,79.8164 L86.6194,35.6874 L48.4024,13.6224 L10.1854,35.6874 L10.1854,79.8164 Z M48.4024,104.4194 C48.1994,104.4194 47.9954,104.3664 47.8134,104.2604 L8.4184,81.5154 C8.0544,81.3054 7.8304,80.9174 7.8304,80.4964 L7.8304,35.0074 C7.8304,34.5874 8.0544,34.1984 8.4184,33.9884 L47.8134,11.2434 C48.1774,11.0324 48.6264,11.0324 48.9914,11.2434 L88.3854,33.9884 C88.7494,34.1984 88.9744,34.5874 88.9744,35.0074 L88.9744,80.4964 C88.9744,80.9174 88.7494,81.3054 88.3854,81.5154 L48.9914,104.2604 C48.8094,104.3664 48.6054,104.4194 48.4024,104.4194 L48.4024,104.4194 Z" id="Fill-1" fill="#2F5266"></path>
                <path d="M9.8534,36.6738 C9.6534,36.6738 9.4514,36.6228 9.2664,36.5168 L8.4194,36.0278 C7.8564,35.7028 7.6634,34.9828 7.9874,34.4198 C8.3114,33.8568 9.0314,33.6628 9.5964,33.9868 L10.4424,34.4758 C11.0064,34.8008 11.1994,35.5218 10.8744,36.0838 C10.6564,36.4618 10.2604,36.6738 9.8534,36.6738 M14.1834,39.1738 C13.9834,39.1738 13.7814,39.1228 13.5954,39.0158 L12.7294,38.5158 C12.1664,38.1908 11.9734,37.4708 12.2984,36.9068 C12.6234,36.3438 13.3434,36.1498 13.9074,36.4768 L14.7734,36.9768 C15.3364,37.3018 15.5294,38.0218 15.2044,38.5848 C14.9864,38.9628 14.5904,39.1738 14.1834,39.1738 M18.5134,41.6738 C18.3134,41.6738 18.1114,41.6228 17.9254,41.5158 L17.0594,41.0158 C16.4964,40.6908 16.3034,39.9708 16.6284,39.4068 C16.9534,38.8438 17.6734,38.6498 18.2374,38.9768 L19.1034,39.4768 C19.6664,39.8018 19.8594,40.5218 19.5344,41.0848 C19.3164,41.4628 18.9204,41.6738 18.5134,41.6738 M22.8434,44.1738 C22.6444,44.1738 22.4414,44.1228 22.2554,44.0158 L21.3894,43.5158 C20.8264,43.1908 20.6334,42.4708 20.9584,41.9068 C21.2834,41.3438 22.0024,41.1498 22.5674,41.4768 L23.4334,41.9768 C23.9964,42.3018 24.1894,43.0218 23.8644,43.5848 C23.6464,43.9628 23.2504,44.1738 22.8434,44.1738 M27.1734,46.6738 C26.9734,46.6738 26.7714,46.6228 26.5854,46.5158 L25.7204,46.0158 C25.1574,45.6908 24.9644,44.9708 25.2894,44.4068 C25.6144,43.8438 26.3344,43.6508 26.8974,43.9768 L27.7634,44.4768 C28.3264,44.8018 28.5194,45.5218 28.1944,46.0848 C27.9764,46.4628 27.5804,46.6738 27.1734,46.6738 M31.5034,49.1738 C31.3034,49.1738 31.1014,49.1228 30.9154,49.0158 L30.0504,48.5158 C29.4874,48.1908 29.2944,47.4708 29.6194,46.9068 C29.9444,46.3438 30.6654,46.1508 31.2284,46.4768 L32.0934,46.9768 C32.6564,47.3018 32.8494,48.0218 32.5244,48.5848 C32.3064,48.9628 31.9104,49.1738 31.5034,49.1738 M35.8334,51.6738 C35.6334,51.6738 35.4314,51.6228 35.2464,51.5158 L34.3804,51.0158 C33.8174,50.6908 33.6244,49.9708 33.9494,49.4068 C34.2744,48.8428 34.9954,48.6518 35.5584,48.9768 L36.4234,49.4768 C36.9864,49.8018 37.1794,50.5218 36.8544,51.0848 C36.6364,51.4628 36.2404,51.6738 35.8334,51.6738 M40.1644,54.1738 C39.9644,54.1738 39.7624,54.1228 39.5764,54.0158 L38.7104,53.5158 C38.1474,53.1908 37.9544,52.4708 38.2794,51.9068 C38.6044,51.3438 39.3244,51.1508 39.8884,51.4768 L40.7544,51.9768 C41.3174,52.3018 41.5104,53.0218 41.1854,53.5848 C40.9674,53.9628 40.5714,54.1738 40.1644,54.1738 M44.4944,56.6738 C44.2944,56.6738 44.0924,56.6228 43.9064,56.5158 L43.0404,56.0158 C42.4774,55.6908 42.2844,54.9708 42.6094,54.4068 C42.9344,53.8438 43.6534,53.6508 44.2184,53.9768 L45.0844,54.4768 C45.6474,54.8018 45.8404,55.5218 45.5154,56.0848 C45.2974,56.4628 44.9014,56.6738 44.4944,56.6738 M48.8244,59.1738 C48.6244,59.1738 48.4224,59.1228 48.2364,59.0158 L47.3704,58.5158 C46.8074,58.1908 46.6144,57.4708 46.9394,56.9068 C47.2644,56.3438 47.9834,56.1508 48.5484,56.4768 L49.4144,56.9768 C49.9774,57.3018 50.1704,58.0218 49.8454,58.5848 C49.6274,58.9628 49.2314,59.1738 48.8244,59.1738 M53.1544,61.6738 C52.9554,61.6738 52.7524,61.6228 52.5664,61.5158 L51.7004,61.0158 C51.1374,60.6908 50.9444,59.9708 51.2694,59.4068 C51.5944,58.8428 52.3144,58.6498 52.8784,58.9768 L53.7444,59.4768 C54.3074,59.8018 54.5004,60.5218 54.1754,61.0848 C53.9574,61.4628 53.5614,61.6738 53.1544,61.6738 M57.4844,64.1738 C57.2854,64.1738 57.0824,64.1228 56.8964,64.0158 L56.0304,63.5158 C55.4674,63.1908 55.2744,62.4708 55.5994,61.9068 C55.9244,61.3428 56.6444,61.1498 57.2084,61.4768 L58.0744,61.9768 C58.6374,62.3018 58.8304,63.0218 58.5054,63.5848 C58.2874,63.9628 57.8914,64.1738 57.4844,64.1738 M61.8144,66.6738 C61.6144,66.6738 61.4124,66.6228 61.2274,66.5158 L60.3614,66.0158 C59.7984,65.6908 59.6054,64.9708 59.9304,64.4068 C60.2554,63.8428 60.9764,63.6518 61.5394,63.9768 L62.4044,64.4768 C62.9674,64.8018 63.1604,65.5218 62.8354,66.0848 C62.6174,66.4628 62.2214,66.6738 61.8144,66.6738 M66.1454,69.1738 C65.9444,69.1738 65.7424,69.1228 65.5574,69.0158 L64.6914,68.5158 C64.1284,68.1908 63.9354,67.4708 64.2604,66.9068 C64.5854,66.3428 65.3064,66.1518 65.8694,66.4768 L66.7344,66.9768 C67.2974,67.3018 67.4904,68.0218 67.1654,68.5848 C66.9474,68.9628 66.5514,69.1738 66.1454,69.1738 M70.4754,71.6738 C70.2744,71.6738 70.0724,71.6228 69.8874,71.5158 L69.0214,71.0158 C68.4584,70.6908 68.2654,69.9708 68.5904,69.4068 C68.9154,68.8438 69.6364,68.6508 70.1994,68.9768 L71.0644,69.4768 C71.6274,69.8018 71.8204,70.5218 71.4954,71.0848 C71.2774,71.4628 70.8814,71.6738 70.4754,71.6738 M74.8054,74.1738 C74.6054,74.1738 74.4034,74.1228 74.2174,74.0158 L73.3514,73.5158 C72.7884,73.1908 72.5954,72.4708 72.9204,71.9068 C73.2454,71.3438 73.9644,71.1498 74.5294,71.4768 L75.3954,71.9768 C75.9584,72.3018 76.1514,73.0218 75.8264,73.5848 C75.6084,73.9628 75.2124,74.1738 74.8054,74.1738 M79.1354,76.6738 C78.9364,76.6738 78.7334,76.6228 78.5474,76.5158 L77.6814,76.0158 C77.1184,75.6908 76.9254,74.9708 77.2504,74.4068 C77.5754,73.8438 78.2954,73.6498 78.8594,73.9768 L79.7254,74.4768 C80.2884,74.8018 80.4814,75.5218 80.1564,76.0848 C79.9384,76.4628 79.5424,76.6738 79.1354,76.6738 M83.4654,79.1738 C83.2664,79.1738 83.0634,79.1228 82.8774,79.0158 L82.0114,78.5158 C81.4484,78.1908 81.2554,77.4708 81.5804,76.9068 C81.9064,76.3438 82.6244,76.1498 83.1894,76.4768 L84.0554,76.9768 C84.6184,77.3018 84.8114,78.0218 84.4864,78.5848 C84.2684,78.9628 83.8724,79.1738 83.4654,79.1738 M87.7954,81.6738 C87.5964,81.6738 87.3934,81.6228 87.2084,81.5158 L86.3414,81.0158 C85.7784,80.6908 85.5854,79.9708 85.9104,79.4068 C86.2354,78.8438 86.9544,78.6498 87.5194,78.9768 L88.3854,79.4768 C88.9484,79.8018 89.1414,80.5218 88.8164,81.0848 C88.5984,81.4628 88.2024,81.6738 87.7954,81.6738" id="Fill-3" fill="#2F5266"></path>
                <path d="M71.3627,45.6738 C70.9557,45.6738 70.5597,45.4628 70.3417,45.0848 C70.0167,44.5218 70.2097,43.8018 70.7727,43.4768 L81.1657,37.4768 C81.7287,37.1508 82.4487,37.3438 82.7737,37.9068 C83.0987,38.4708 82.9057,39.1908 82.3427,39.5158 L71.9507,45.5158 C71.7647,45.6228 71.5627,45.6738 71.3627,45.6738 M50.5777,57.6738 C50.1717,57.6738 49.7757,57.4628 49.5577,57.0848 C49.2327,56.5218 49.4247,55.8018 49.9877,55.4768 L60.3807,49.4768 C60.9437,49.1508 61.6647,49.3428 61.9887,49.9068 C62.3147,50.4708 62.1217,51.1908 61.5587,51.5158 L51.1657,57.5158 C50.9807,57.6228 50.7777,57.6738 50.5777,57.6738 M29.7937,69.6738 C29.3867,69.6738 28.9907,69.4628 28.7727,69.0848 C28.4477,68.5218 28.6407,67.8018 29.2037,67.4768 L39.5957,61.4768 C40.1597,61.1508 40.8807,61.3438 41.2047,61.9068 C41.5297,62.4708 41.3367,63.1908 40.7737,63.5158 L30.3817,69.5158 C30.1957,69.6228 29.9927,69.6738 29.7937,69.6738 M9.0087,81.6738 C8.6017,81.6738 8.2057,81.4628 7.9877,81.0848 C7.6627,80.5218 7.8557,79.8018 8.4187,79.4768 L18.8117,73.4768 C19.3747,73.1508 20.0947,73.3438 20.4197,73.9068 C20.7447,74.4708 20.5517,75.1908 19.9887,75.5158 L9.5967,81.5158 C9.4107,81.6228 9.2087,81.6738 9.0087,81.6738" id="Fill-5" fill="#2F5266"></path>
                <path d="M48.4022,104.4189 C47.7522,104.4189 47.2242,103.8919 47.2242,103.2409 L47.2242,12.2629 C47.2242,11.6119 47.7522,11.0849 48.4022,11.0849 C49.0522,11.0849 49.5802,11.6119 49.5802,12.2629 L49.5802,103.2409 C49.5802,103.8919 49.0522,104.4189 48.4022,104.4189" id="Fill-7" fill="#2F5266"></path>
                <g id="Group-11" transform="translate(0.000000, 25.915000)" fill="#E14E3A">
                    <path d="M18.0159,9.0925 C18.0159,4.1175 13.9829,0.0845 9.0079,0.0845 C4.0329,0.0845 -0.0001,4.1175 -0.0001,9.0925 C-0.0001,14.0675 4.0329,18.1005 9.0079,18.1005 C13.9829,18.1005 18.0159,14.0675 18.0159,9.0925" id="Fill-9"></path>
                </g>
                <g id="Group-14" transform="translate(79.000000, 71.915000)">
                    <mask id="mask-2" fill="white">
                        <use xlink:href="#path-1"></use>
                    </mask>
                    <g id="Clip-13"></g>
                    <path d="M17.5191,8.8125 C17.5191,3.9955 13.6141,0.0905 8.7971,0.0905 C3.9801,0.0905 0.0751,3.9955 0.0751,8.8125 C0.0751,13.6295 3.9801,17.5345 8.7971,17.5345 C13.6141,17.5345 17.5191,13.6295 17.5191,8.8125" id="Fill-12" fill="#6E8898" mask="url(#mask-2)"></path>
                </g>
                <g id="Group-17" transform="translate(0.000000, 70.915000)" fill="#6E8898">
                    <path d="M18.0159,9.5814 C18.0159,4.6064 13.9829,0.5734 9.0079,0.5734 C4.0329,0.5734 -0.0001,4.6064 -0.0001,9.5814 C-0.0001,14.5564 4.0329,18.5894 9.0079,18.5894 C13.9829,18.5894 18.0159,14.5564 18.0159,9.5814" id="Fill-15"></path>
                </g>
                <path d="M13.9995,80.4964 C13.9995,77.7394 11.7645,75.5044 9.0075,75.5044 C6.2515,75.5044 4.0165,77.7394 4.0165,80.4964 C4.0165,83.2534 6.2515,85.4884 9.0075,85.4884 C11.7645,85.4884 13.9995,83.2534 13.9995,80.4964" id="Fill-18" fill="#FEFEFE"></path>
                <path d="M9.0077,76.6826 C6.9047,76.6826 5.1947,78.3936 5.1947,80.4956 C5.1947,82.5996 6.9047,84.3106 9.0077,84.3106 C11.1107,84.3106 12.8217,82.5996 12.8217,80.4956 C12.8217,78.3936 11.1107,76.6826 9.0077,76.6826 M9.0077,86.6656 C5.6067,86.6656 2.8387,83.8986 2.8387,80.4956 C2.8387,77.0946 5.6067,74.3276 9.0077,74.3276 C12.4097,74.3276 15.1767,77.0946 15.1767,80.4956 C15.1767,83.8986 12.4097,86.6656 9.0077,86.6656" id="Fill-20" fill="#2F5266"></path>
                <path d="M14.2307,35.0075 C14.2307,32.1235 11.8927,29.7845 9.0077,29.7845 C6.1237,29.7845 3.7857,32.1235 3.7857,35.0075 C3.7857,37.8915 6.1237,40.2305 9.0077,40.2305 C11.8927,40.2305 14.2307,37.8915 14.2307,35.0075" id="Fill-22" fill="#FBF9E4"></path>
                <path d="M60.0184,57.7519 C60.0184,51.3369 54.8174,46.1359 48.4024,46.1359 C41.9874,46.1359 36.7864,51.3369 36.7864,57.7519 C36.7864,64.1669 41.9874,69.3679 48.4024,69.3679 C54.8174,69.3679 60.0184,64.1669 60.0184,57.7519" id="Fill-24" fill="#E14E3A"></path>
                <path d="M48.4024,64.4868 C44.6824,64.4868 41.6674,61.4718 41.6674,57.7518 C41.6674,54.0328 44.6824,51.0168 48.4024,51.0168 L48.4024,64.4868 Z" id="Fill-26" fill="#FBF9E4"></path>
                <path d="M95.2937,35.0075 C95.2937,30.8675 91.9377,27.5105 87.7967,27.5105 C83.6567,27.5105 80.2997,30.8675 80.2997,35.0075 C80.2997,39.1475 83.6567,42.5045 87.7967,42.5045 C91.9377,42.5045 95.2937,39.1475 95.2937,35.0075" id="Fill-28" fill="#FEFEFE"></path>
                <path d="M87.7968,28.6884 C84.3128,28.6884 81.4778,31.5234 81.4778,35.0074 C81.4778,38.4924 84.3128,41.3264 87.7968,41.3264 C91.2818,41.3264 94.1158,38.4924 94.1158,35.0074 C94.1158,31.5234 91.2818,28.6884 87.7968,28.6884 M87.7968,43.6814 C83.0138,43.6814 79.1228,39.7904 79.1228,35.0074 C79.1228,30.2244 83.0138,26.3334 87.7968,26.3334 C92.5798,26.3334 96.4718,30.2244 96.4718,35.0074 C96.4718,39.7904 92.5798,43.6814 87.7968,43.6814" id="Fill-30" fill="#2F5266"></path>
                <path d="M90.6704,35.0075 C90.6704,33.4205 89.3844,32.1345 87.7974,32.1345 C86.2104,32.1345 84.9234,33.4205 84.9234,35.0075 C84.9234,36.5945 86.2104,37.8805 87.7974,37.8805 C89.3844,37.8805 90.6704,36.5945 90.6704,35.0075" id="Fill-32" fill="#6E8898"></path>
                <path d="M55.8992,103.2408 C55.8992,99.1008 52.5432,95.7438 48.4022,95.7438 C44.2622,95.7438 40.9052,99.1008 40.9052,103.2408 C40.9052,107.3808 44.2622,110.7378 48.4022,110.7378 C52.5432,110.7378 55.8992,107.3808 55.8992,103.2408" id="Fill-34" fill="#FEFEFE"></path>
                <path d="M48.4022,96.9218 C44.9182,96.9218 42.0832,99.7568 42.0832,103.2408 C42.0832,106.7258 44.9182,109.5598 48.4022,109.5598 C51.8872,109.5598 54.7212,106.7258 54.7212,103.2408 C54.7212,99.7568 51.8872,96.9218 48.4022,96.9218 M48.4022,111.9148 C43.6192,111.9148 39.7282,108.0238 39.7282,103.2408 C39.7282,98.4578 43.6192,94.5668 48.4022,94.5668 C53.1852,94.5668 57.0772,98.4578 57.0772,103.2408 C57.0772,108.0238 53.1852,111.9148 48.4022,111.9148" id="Fill-36" fill="#6E8898"></path>
                <path d="M51.2759,103.2408 C51.2759,101.6538 49.9899,100.3678 48.4029,100.3678 C46.8159,100.3678 45.5289,101.6538 45.5289,103.2408 C45.5289,104.8278 46.8159,106.1138 48.4029,106.1138 C49.9899,106.1138 51.2759,104.8278 51.2759,103.2408" id="Fill-38" fill="#2F5266"></path>
                <g id="Group-42" transform="translate(37.000000, 0.915000)">
                    <mask id="mask-4" fill="white">
                        <use xlink:href="#path-3"></use>
                    </mask>
                    <g id="Clip-41"></g>
                    <path d="M22.6659,11.3481 C22.6659,5.1271 17.6229,0.0841 11.4019,0.0841 C5.1819,0.0841 0.1389,5.1271 0.1389,11.3481 C0.1389,17.5691 5.1819,22.6121 11.4019,22.6121 C17.6229,22.6121 22.6659,17.5691 22.6659,11.3481" id="Fill-40" fill="#FEFEFE" mask="url(#mask-4)"></path>
                </g>
                <path d="M55.8993,13.4755 C55.2493,13.4755 54.7213,12.9845 54.7213,12.3335 C54.7213,12.3255 54.7223,12.2465 54.7223,12.2375 C54.7213,8.7875 51.8933,5.9525 48.4173,5.9445 C47.7663,5.9425 47.2403,5.4135 47.2423,4.7635 C47.2443,4.1145 47.7713,3.5885 48.4203,3.5885 L48.4223,3.5885 C53.1943,3.6005 57.0773,7.4915 57.0773,12.2625 C57.0773,12.9135 56.5493,13.4755 55.8993,13.4755 M48.3493,20.9375 L48.3403,20.9375 C43.5913,20.9045 39.7283,17.0135 39.7283,12.2625 C39.7283,11.6125 40.2553,11.0675 40.9053,11.0675 C41.5563,11.0675 42.0833,11.5775 42.0833,12.2275 L42.0833,12.2625 C42.0833,15.7235 44.8983,18.5585 48.3573,18.5815 C49.0073,18.5865 49.5313,19.1175 49.5263,19.7675 C49.5223,20.4145 48.9953,20.9375 48.3493,20.9375" id="Fill-43" fill="#6E8898"></path>
                <path d="M51.2759,12.2631 C51.2759,10.6761 49.9899,9.3901 48.4029,9.3901 C46.8159,9.3901 45.5289,10.6761 45.5289,12.2631 C45.5289,13.8501 46.8159,15.1361 48.4029,15.1361 C49.9899,15.1361 51.2759,13.8501 51.2759,12.2631" id="Fill-45" fill="#E14E3A"></path>
                <path d="M92.018,81.9052 L83.576,81.9052 C82.926,81.9052 82.398,81.3782 82.398,80.7272 C82.398,80.0772 82.926,79.5502 83.576,79.5502 L92.018,79.5502 C92.668,79.5502 93.196,80.0772 93.196,80.7272 C93.196,81.3782 92.668,81.9052 92.018,81.9052" id="Fill-47" fill="#2F5266"></path>
                <path d="M87.7968,86.1259 C87.1468,86.1259 86.6188,85.5989 86.6188,84.9479 L86.6188,76.5069 C86.6188,75.8559 87.1468,75.3289 87.7968,75.3289 C88.4468,75.3289 88.9748,75.8559 88.9748,76.5069 L88.9748,84.9479 C88.9748,85.5989 88.4468,86.1259 87.7968,86.1259" id="Fill-49" fill="#2F5266"></path>
            </g>
        </g>
    </g>
</svg>