<?xml version="1.0" encoding="UTF-8"?>
<svg width="209px" height="160px" viewBox="0 0 209 160" version="1.1" xmlns="http://www.w3.org/2000/svg" xmlns:xlink="http://www.w3.org/1999/xlink">
    <!-- Generator: Sketch 43.2 (39069) - http://www.bohemiancoding.com/sketch -->
    <title>Group 23</title>
    <desc>Created with Sketch.</desc>
    <defs>
        <polygon id="path-1" points="2.186284 0.00872093023 0.260518328 0.00872093023 0.260518328 1.93424911 2.186284 1.93424911 2.186284 0.00872093023"></polygon>
    </defs>
    <g id="Design-1" stroke="none" stroke-width="1" fill="none" fill-rule="evenodd">
        <g id="Group-23">
            <circle id="Oval-1-Copy-7" fill="#FFFEF3" cx="106" cy="80" r="80"></circle>
            <g id="Page-1" transform="translate(0.000000, 13.000000)">
                <path d="M167.590843,81.256032 C167.125727,81.5132994 166.956395,82.0990552 167.213663,82.5641715 C167.47093,83.0292878 168.056686,83.1986192 168.521802,82.9413517 C168.986919,82.6840843 169.15625,82.0983285 168.898983,81.6332122 C168.641715,81.1680959 168.055959,80.9987645 167.590843,81.256032" id="Fill-1" fill="#2F5266"></path>
                <path d="M74.4238372,123.185683 C73.9587209,123.442951 73.7893895,124.028706 74.046657,124.493823 C74.3039244,124.958939 74.8896802,125.12827 75.3547965,124.871003 C75.8199128,124.613735 75.9892442,124.02798 75.7319767,123.562863 C75.4747093,123.097747 74.8889535,122.928416 74.4238372,123.185683" id="Fill-3" fill="#2F5266"></path>
                <path d="M138.801453,122.22282 C138.336337,122.480087 138.167006,123.065843 138.424273,123.530959 C138.681541,123.996076 139.267297,124.165407 139.732413,123.90814 C140.197529,123.650872 140.36686,123.065116 140.109593,122.6 C139.852326,122.134884 139.26657,121.965552 138.801453,122.22282" id="Fill-5" fill="#2F5266"></path>
                <g id="Group-9" transform="translate(117.005814, 0.718023)">
                    <mask id="mask-2" fill="white">
                        <use xlink:href="#path-1"></use>
                    </mask>
                    <g id="Clip-8"></g>
                    <path d="M0.757921512,0.128706395 C0.292805233,0.385973837 0.123473837,0.971729651 0.380741279,1.43684593 C0.638008721,1.90196221 1.22376453,2.0712936 1.68888081,1.81402616 C2.15399709,1.55675872 2.32332849,0.971002907 2.06606105,0.505886628 C1.8087936,0.0407703488 1.22303779,-0.128561047 0.757921512,0.128706395" id="Fill-7" fill="#2F5266" mask="url(#mask-2)"></path>
                </g>
                <path d="M153.827471,23.4676599 C153.362355,23.7249273 153.193023,24.3106831 153.450291,24.7757994 C153.707558,25.2409157 154.293314,25.4102471 154.75843,25.1529797 C155.223547,24.8957122 155.392878,24.3099564 155.13561,23.8448401 C154.878343,23.3797238 154.292587,23.2103924 153.827471,23.4676599" id="Fill-10" fill="#2F5266"></path>
                <path d="M47.4518895,40.7693314 C46.9867733,41.0265988 46.8174419,41.6123547 47.0747093,42.0774709 C47.3319767,42.5425872 47.9177326,42.7119186 48.3828488,42.4546512 C48.8479651,42.1973837 49.0172965,41.6116279 48.7600291,41.1465116 C48.5027616,40.6813953 47.9170058,40.512064 47.4518895,40.7693314" id="Fill-12" fill="#2F5266"></path>
                <path d="M194.23452,31.6047238 C193.769404,31.8619913 193.600073,32.4477471 193.85734,32.9128634 C194.114608,33.3779797 194.700363,33.547311 195.16548,33.2900436 C195.630596,33.0327762 195.799927,32.4470203 195.54266,31.9819041 C195.285392,31.5167878 194.699637,31.3474564 194.23452,31.6047238" id="Fill-14" fill="#2F5266"></path>
                <path d="M186.069913,26.4531977 C185.604797,26.7104651 185.435465,27.2962209 185.692733,27.7613372 C185.95,28.2264535 186.535756,28.3957849 187.000872,28.1385174 C187.465988,27.88125 187.63532,27.2954942 187.378052,26.8303779 C187.120785,26.3652616 186.535029,26.1959302 186.069913,26.4531977" id="Fill-16" fill="#2F5266"></path>
                <path d="M182.729651,76.4364099 C182.257267,76.4364099 181.873547,76.0534157 181.873547,75.5803052 L181.873547,68.6762355 C181.873547,68.2038517 182.257267,67.8208576 182.729651,67.8208576 C183.202035,67.8208576 183.585756,68.2038517 183.585756,68.6762355 L183.585756,75.5803052 C183.585756,76.0534157 183.202035,76.4364099 182.729651,76.4364099" id="Fill-18" fill="#2F5266"></path>
                <path d="M186.181686,72.984375 L179.277616,72.984375 C178.805233,72.984375 178.421512,72.6013808 178.421512,72.1282703 C178.421512,71.6558866 178.805233,71.2728924 179.277616,71.2728924 L186.181686,71.2728924 C186.65407,71.2728924 187.037791,71.6558866 187.037791,72.1282703 C187.037791,72.6013808 186.65407,72.984375 186.181686,72.984375" id="Fill-20" fill="#2F5266"></path>
                <path d="M150.840916,13.2835029 C150.368532,13.2835029 149.984811,12.9005087 149.984811,12.4273983 L149.984811,5.52332849 C149.984811,5.05094477 150.368532,4.66795058 150.840916,4.66795058 C151.313299,4.66795058 151.69702,5.05094477 151.69702,5.52332849 L151.69702,12.4273983 C151.69702,12.9005087 151.313299,13.2835029 150.840916,13.2835029" id="Fill-22" fill="#2F5266"></path>
                <path d="M154.292951,9.83146802 L147.388881,9.83146802 C146.916497,9.83146802 146.532776,9.44847384 146.532776,8.97536337 C146.532776,8.50297965 146.916497,8.11998547 147.388881,8.11998547 L154.292951,8.11998547 C154.765334,8.11998547 155.149055,8.50297965 155.149055,8.97536337 C155.149055,9.44847384 154.765334,9.83146802 154.292951,9.83146802" id="Fill-24" fill="#2F5266"></path>
                <path d="M64.7181686,122.578997 C64.2457849,122.578997 63.862064,122.196003 63.862064,121.722892 L63.862064,114.818823 C63.862064,114.346439 64.2457849,113.963445 64.7181686,113.963445 C65.1905523,113.963445 65.5742733,114.346439 65.5742733,114.818823 L65.5742733,121.722892 C65.5742733,122.196003 65.1905523,122.578997 64.7181686,122.578997" id="Fill-26" fill="#2F5266"></path>
                <path d="M68.1702035,119.126962 L61.2661337,119.126962 C60.79375,119.126962 60.4100291,118.743968 60.4100291,118.270858 C60.4100291,117.798474 60.79375,117.41548 61.2661337,117.41548 L68.1702035,117.41548 C68.6425872,117.41548 69.0263081,117.798474 69.0263081,118.270858 C69.0263081,118.743968 68.6425872,119.126962 68.1702035,119.126962" id="Fill-28" fill="#2F5266"></path>
                <path d="M32.6853924,56.1833576 C32.2130087,56.1833576 31.8292878,55.8003634 31.8292878,55.3272529 L31.8292878,48.4231831 C31.8292878,47.9507994 32.2130087,47.5678052 32.6853924,47.5678052 C33.1577762,47.5678052 33.5414971,47.9507994 33.5414971,48.4231831 L33.5414971,55.3272529 C33.5414971,55.8003634 33.1577762,56.1833576 32.6853924,56.1833576" id="Fill-30" fill="#2F5266"></path>
                <path d="M36.1374273,52.7313227 L29.2333576,52.7313227 C28.7609738,52.7313227 28.3772529,52.3483285 28.3772529,51.875218 C28.3772529,51.4028343 28.7609738,51.0198401 29.2333576,51.0198401 L36.1374273,51.0198401 C36.609811,51.0198401 36.993532,51.4028343 36.993532,51.875218 C36.993532,52.3483285 36.609811,52.7313227 36.1374273,52.7313227" id="Fill-32" fill="#2F5266"></path>
                <path d="M183.808067,46.747093 C177.583503,46.747093 171.774637,46.3655523 167.452689,45.6722384 C161.930887,44.7856105 159.359666,43.5021802 159.359666,41.6329942 C159.359666,37.3023256 164.598038,33.4622093 173.030451,31.6111919 C173.49266,31.5116279 173.948328,31.8023256 174.049346,32.2630814 C174.15109,32.7252907 173.858939,33.181686 173.397456,33.2834302 C165.909811,34.9265988 161.071148,38.2042151 161.071148,41.6329942 C161.071148,42.7819767 167.937427,45.0356105 183.808067,45.0356105 C199.678706,45.0356105 206.544985,42.7819767 206.544985,41.6329942 C206.544985,38.653343 202.957776,35.7965116 196.949055,33.9890988 C196.496294,33.8531977 196.239753,33.3757267 196.375654,32.9236919 C196.512282,32.4709302 196.989753,32.2143895 197.441788,32.349564 C204.314608,34.4171512 208.256468,37.8001453 208.256468,41.6329942 C208.256468,46.377907 189.543532,46.747093 183.808067,46.747093" id="Fill-34" fill="#2F5266"></path>
                <path d="M183.808067,24.3663517 C179.738299,24.3663517 176.427253,27.6773983 176.427253,31.7471657 C176.427253,33.1570494 179.738299,34.3038517 183.808067,34.3038517 C187.877834,34.3038517 191.188881,33.1570494 191.188881,31.7471657 C191.188881,27.6773983 187.877834,24.3663517 183.808067,24.3663517 M183.808067,36.0146076 C181.552253,36.0146076 179.435974,35.6933866 177.849491,35.1090843 C175.259375,34.1555959 174.715044,32.7544331 174.715044,31.7471657 C174.715044,26.7340843 178.794259,22.6548692 183.808067,22.6548692 C188.821875,22.6548692 192.90109,26.7340843 192.90109,31.7471657 C192.90109,34.6955669 188.33423,36.0146076 183.808067,36.0146076" id="Fill-36" fill="#2F5266"></path>
                <path d="M34.8746366,92.944186 C34.4095203,93.2014535 34.240189,93.7872093 34.4974564,94.2523256 C34.7547238,94.7174419 35.3404797,94.8867733 35.8055959,94.6295058 C36.2707122,94.3722384 36.4400436,93.7864826 36.1827762,93.3213663 C35.9255087,92.85625 35.3397529,92.6869186 34.8746366,92.944186" id="Fill-38" fill="#2F5266"></path>
                <path d="M26.7100291,87.7926599 C26.2449128,88.0499273 26.0755814,88.6356831 26.3328488,89.1007994 C26.5901163,89.5659157 27.1758721,89.7352471 27.6409884,89.4779797 C28.1061047,89.2207122 28.275436,88.6349564 28.0181686,88.1698401 C27.7609012,87.7047238 27.1751453,87.5353924 26.7100291,87.7926599" id="Fill-40" fill="#2F5266"></path>
                <path d="M24.4484738,108.086701 C18.2239099,108.086701 12.4150436,107.70516 8.09309593,107.011846 C2.5712936,106.125218 7.26744186e-05,104.841788 7.26744186e-05,102.972602 C7.26744186e-05,98.6419331 5.23844477,94.8018169 13.6701308,92.9507994 C14.1323401,92.8490552 14.5887355,93.1419331 14.6897529,93.602689 C14.7907703,94.0648983 14.4993459,94.5212936 14.0371366,94.6230378 C6.55021802,96.2662064 1.71155523,99.5438227 1.71155523,102.972602 C1.71155523,104.121584 8.5778343,106.375218 24.4484738,106.375218 C40.3191134,106.375218 47.1853924,104.121584 47.1853924,102.972602 C47.1853924,99.9936773 43.5981831,97.1361192 37.5887355,95.3279797 C37.1359738,95.1920785 36.8794331,94.7146076 37.016061,94.2625727 C37.1519622,93.8090843 37.6272529,93.5539971 38.0821948,93.6884448 C44.9550145,95.7567587 48.896875,99.1404797 48.896875,102.972602 C48.896875,107.717515 30.183939,108.086701 24.4484738,108.086701" id="Fill-42" fill="#2F5266"></path>
                <path d="M24.4484738,85.7059593 C20.3787064,85.7059593 17.0676599,89.0170058 17.0676599,93.0867733 C17.0676599,94.496657 20.3787064,95.6434593 24.4484738,95.6434593 C28.5182413,95.6434593 31.8292878,94.496657 31.8292878,93.0867733 C31.8292878,89.0170058 28.5182413,85.7059593 24.4484738,85.7059593 M24.4484738,97.3542151 C22.1926599,97.3542151 20.0763808,97.0329942 18.4898983,96.4486919 C15.899782,95.4952035 15.3554506,94.0940407 15.3554506,93.0867733 C15.3554506,88.0736919 19.4346657,83.9944767 24.4484738,83.9944767 C29.462282,83.9944767 33.5414971,88.0736919 33.5414971,93.0867733 C33.5414971,96.0351744 28.9746366,97.3542151 24.4484738,97.3542151" id="Fill-44" fill="#2F5266"></path>
                <path d="M44.6742006,27.8126453 C42.1967297,27.8126453 39.8805959,27.6600291 38.1523983,27.3824128 C36.3609738,27.0953488 34.5288517,26.6207849 34.5288517,25.2806686 C34.5288517,23.2872093 36.6938227,21.6229651 40.3195494,20.827907 C40.7803052,20.7261628 41.2374273,21.018314 41.3391715,21.4805233 C41.440189,21.9420058 41.1480378,22.3984012 40.6865552,22.4994186 C38.209811,23.0430233 36.440189,24.0953488 36.2563227,25.1077035 C36.9220203,25.5335756 39.8595203,26.1018895 44.6742006,26.1018895 C49.4888808,26.1018895 52.4263808,25.5335756 53.0920785,25.1077035 C52.9082122,24.0953488 51.1385901,23.0430233 48.6618459,22.4994186 C48.2003634,22.3984012 47.9082122,21.9420058 48.0092297,21.4805233 C48.1109738,21.018314 48.5673692,20.7290698 49.0288517,20.827907 C52.6545785,21.6229651 54.8195494,23.2872093 54.8195494,25.2806686 C54.8195494,26.9609012 51.406032,27.8126453 44.6742006,27.8126453" id="Fill-46" fill="#2F5266"></path>
                <path d="M44.6742006,19.0008721 C43.3573401,19.0008721 42.2868459,20.072093 42.2868459,21.3882267 C42.3885901,21.5110465 43.2403343,21.8758721 44.6742006,21.8758721 C46.056468,21.8758721 46.897311,21.5372093 47.0615552,21.3468023 C47.0390262,20.0488372 45.9765262,19.0008721 44.6742006,19.0008721 M44.6742006,23.5880814 C43.7257994,23.5880814 42.8289971,23.4492733 42.1487645,23.1985465 C40.7795785,22.6949128 40.5746366,21.8482558 40.5746366,21.3882267 C40.5746366,19.1280523 42.4140262,17.2893895 44.6742006,17.2893895 C46.934375,17.2893895 48.7737645,19.1280523 48.7737645,21.3882267 C48.7737645,23.0103198 46.656032,23.5880814 44.6742006,23.5880814" id="Fill-48" fill="#2F5266"></path>
                <path d="M177.732922,95.666061 C176.047602,95.666061 174.469113,95.5614099 173.289608,95.3724564 C171.964753,95.1595203 170.610828,94.7925145 170.610828,93.6791424 C170.610828,92.1944041 172.15298,90.9698401 174.735828,90.4029797 C175.199491,90.3012355 175.653706,90.5941134 175.754724,91.0555959 C175.856468,91.5170785 175.564317,91.9734738 175.102834,92.075218 C173.523619,92.4211483 172.660247,93.0054506 172.404433,93.4313227 C174.094113,94.1478924 181.373183,94.1478924 183.062137,93.4313227 C182.806323,93.0054506 181.942224,92.4211483 180.363735,92.075218 C179.901526,91.9734738 179.610102,91.5170785 179.711119,91.0555959 C179.812137,90.5941134 180.269259,90.3019622 180.730741,90.4029797 C183.312863,90.9698401 184.855015,92.1944041 184.855015,93.6791424 C184.855015,94.2227471 184.855015,95.666061 177.732922,95.666061" id="Fill-50" fill="#2F5266"></path>
                <path d="M176.410756,90.890407 C176.922384,91.171657 178.54375,91.171657 179.055378,90.890407 C178.974709,90.2327035 178.412209,89.7218023 177.73343,89.7218023 C177.053924,89.7218023 176.491424,90.2327035 176.410756,90.890407 M177.732703,92.8148256 C177.061919,92.8148256 176.422384,92.7159884 175.933285,92.5357558 C174.810465,92.1222384 174.689099,91.3606105 174.689099,91.0531977 C174.689099,89.3751453 176.054651,88.009593 177.73343,88.009593 C179.411483,88.009593 180.777035,89.3751453 180.777035,91.0531977 C180.777035,92.140407 179.61061,92.8148256 177.732703,92.8148256" id="Fill-52" fill="#2F5266"></path>
                <path d="M106.62202,17.3479651 C78.3349564,17.3479651 55.321875,40.3610465 55.321875,68.6481105 C55.321875,96.9351744 78.3349564,119.948256 106.62202,119.948256 C134.909084,119.948256 157.922166,96.9351744 157.922166,68.6481105 C157.922166,40.3610465 134.909084,17.3479651 106.62202,17.3479651 M106.62202,121.659738 C77.3909157,121.659738 53.6096657,97.8792151 53.6096657,68.6481105 C53.6096657,39.4170058 77.3909157,15.6364826 106.62202,15.6364826 C135.853125,15.6364826 159.634375,39.4170058 159.634375,68.6481105 C159.634375,97.8792151 135.853125,121.659738 106.62202,121.659738" id="Fill-54" fill="#2F5266"></path>
                <path d="M106.62202,17.3479651 C78.3349564,17.3479651 55.321875,40.3610465 55.321875,68.6481105 C55.321875,96.9351744 78.3349564,119.948256 106.62202,119.948256 C134.909084,119.948256 157.922166,96.9351744 157.922166,68.6481105 C157.922166,40.3610465 134.909084,17.3479651 106.62202,17.3479651 M106.62202,121.659738 C77.3909157,121.659738 53.6096657,97.8792151 53.6096657,68.6481105 C53.6096657,39.4170058 77.3909157,15.6364826 106.62202,15.6364826 C135.853125,15.6364826 159.634375,39.4170058 159.634375,68.6481105 C159.634375,97.8792151 135.853125,121.659738 106.62202,121.659738" id="Fill-56" fill="#2F5266"></path>
                <path d="M106.62202,17.3479651 C87.0231831,17.3479651 71.0784157,40.3610465 71.0784157,68.6481105 C71.0784157,96.9351744 87.0231831,119.948256 106.62202,119.948256 C126.220858,119.948256 142.165625,96.9351744 142.165625,68.6481105 C142.165625,40.3610465 126.220858,17.3479651 106.62202,17.3479651 M106.62202,121.659738 C86.0791424,121.659738 69.3662064,97.8792151 69.3662064,68.6481105 C69.3662064,39.4170058 86.0791424,15.6364826 106.62202,15.6364826 C127.164898,15.6364826 143.877834,39.4170058 143.877834,68.6481105 C143.877834,97.8792151 127.164898,121.659738 106.62202,121.659738" id="Fill-58" fill="#2F5266"></path>
                <path d="M106.62202,17.3479651 C87.0231831,17.3479651 71.0784157,40.3610465 71.0784157,68.6481105 C71.0784157,96.9351744 87.0231831,119.948256 106.62202,119.948256 C126.220858,119.948256 142.165625,96.9351744 142.165625,68.6481105 C142.165625,40.3610465 126.220858,17.3479651 106.62202,17.3479651 M106.62202,121.659738 C86.0791424,121.659738 69.3662064,97.8792151 69.3662064,68.6481105 C69.3662064,39.4170058 86.0791424,15.6364826 106.62202,15.6364826 C127.164898,15.6364826 143.877834,39.4170058 143.877834,68.6481105 C143.877834,97.8792151 127.164898,121.659738 106.62202,121.659738" id="Fill-60" fill="#2F5266"></path>
                <path d="M106.62202,17.3479651 C96.8364099,17.3479651 88.5696948,40.8399709 88.5696948,68.6481105 C88.5696948,96.45625 96.8364099,119.948256 106.62202,119.948256 C116.407631,119.948256 124.674346,96.45625 124.674346,68.6481105 C124.674346,40.8399709 116.407631,17.3479651 106.62202,17.3479651 M106.62202,121.659738 C95.5391715,121.659738 86.8574855,98.3741279 86.8574855,68.6481105 C86.8574855,38.922093 95.5391715,15.6364826 106.62202,15.6364826 C117.704869,15.6364826 126.386555,38.922093 126.386555,68.6481105 C126.386555,98.3741279 117.704869,121.659738 106.62202,121.659738" id="Fill-62" fill="#2F5266"></path>
                <path d="M106.62202,17.3479651 C96.8364099,17.3479651 88.5696948,40.8399709 88.5696948,68.6481105 C88.5696948,96.45625 96.8364099,119.948256 106.62202,119.948256 C116.407631,119.948256 124.674346,96.45625 124.674346,68.6481105 C124.674346,40.8399709 116.407631,17.3479651 106.62202,17.3479651 M106.62202,121.659738 C95.5391715,121.659738 86.8574855,98.3741279 86.8574855,68.6481105 C86.8574855,38.922093 95.5391715,15.6364826 106.62202,15.6364826 C117.704869,15.6364826 126.386555,38.922093 126.386555,68.6481105 C126.386555,98.3741279 117.704869,121.659738 106.62202,121.659738" id="Fill-64" fill="#2F5266"></path>
                <path d="M106.62202,120.600291 C106.149637,120.600291 105.765916,120.217297 105.765916,119.744186 L105.765916,16.4920058 C105.765916,16.0196221 106.149637,15.6359012 106.62202,15.6359012 C107.094404,15.6359012 107.478125,16.0196221 107.478125,16.4920058 L107.478125,119.744186 C107.478125,120.217297 107.094404,120.600291 106.62202,120.600291" id="Fill-66" fill="#2F5266"></path>
                <path d="M158.248547,69.5039244 L54.9956395,69.5039244 C54.5225291,69.5039244 54.1395349,69.1209302 54.1395349,68.6478198 C54.1395349,68.175436 54.5225291,67.7924419 54.9956395,67.7924419 L158.248547,67.7924419 C158.72093,67.7924419 159.104651,68.175436 159.104651,68.6478198 C159.104651,69.1209302 158.72093,69.5039244 158.248547,69.5039244" id="Fill-68" fill="#2F5266"></path>
                <path d="M155.429942,86.8897529 L57.8143895,86.8897529 C57.3412791,86.8897529 56.9582849,86.5067587 56.9582849,86.0336483 C56.9582849,85.5612645 57.3412791,85.1782703 57.8143895,85.1782703 L155.429942,85.1782703 C155.902326,85.1782703 156.286047,85.5612645 156.286047,86.0336483 C156.286047,86.5067587 155.902326,86.8897529 155.429942,86.8897529" id="Fill-70" fill="#2F5266"></path>
                <path d="M145.376526,104.274855 L67.8678052,104.274855 C67.3954215,104.274855 67.0117006,103.89186 67.0117006,103.41875 C67.0117006,102.946366 67.3954215,102.563372 67.8678052,102.563372 L145.376526,102.563372 C145.84891,102.563372 146.232631,102.946366 146.232631,103.41875 C146.232631,103.89186 145.84891,104.274855 145.376526,104.274855" id="Fill-72" fill="#2F5266"></path>
                <path d="M155.429942,52.1188953 L57.8143895,52.1188953 C57.3412791,52.1188953 56.9582849,51.7359012 56.9582849,51.2627907 C56.9582849,50.790407 57.3412791,50.4074128 57.8143895,50.4074128 L155.429942,50.4074128 C155.902326,50.4074128 156.286047,50.790407 156.286047,51.2627907 C156.286047,51.7359012 155.902326,52.1188953 155.429942,52.1188953" id="Fill-74" fill="#2F5266"></path>
                <path d="M145.376526,34.7330669 L67.8678052,34.7330669 C67.3954215,34.7330669 67.0117006,34.3500727 67.0117006,33.8769622 C67.0117006,33.4045785 67.3954215,33.0215843 67.8678052,33.0215843 L145.376526,33.0215843 C145.84891,33.0215843 146.232631,33.4045785 146.232631,33.8769622 C146.232631,34.3500727 145.84891,34.7330669 145.376526,34.7330669" id="Fill-76" fill="#2F5266"></path>
                <path d="M84.5497093,78.7846657 C84.459593,74.528125 80.9872093,71.1029797 76.7088663,71.1029797 C76.7074128,71.1029797 76.7059593,71.1037064 76.7045058,71.1037064 C76.6594477,67.9787064 74.115843,65.4590843 70.9806686,65.4590843 C70.7241279,65.4590843 70.4734012,65.4816134 70.2255814,65.5143169 C68.6710756,59.2635901 63.0235465,54.6305959 56.2917151,54.6305959 C48.3614826,54.6305959 41.9327035,61.059375 41.9327035,68.9903343 C41.9327035,69.1436773 41.9392442,69.2955669 41.9443314,69.4474564 C41.0540698,69.1066134 40.0918605,68.9118459 39.0824128,68.9118459 C34.6623547,68.9118459 31.0787791,72.4954215 31.0787791,76.9154797 C31.0787791,77.5601017 31.1630814,78.184375 31.3069767,78.7846657 L84.5497093,78.7846657 Z" id="Fill-78" fill="#2F5266"></path>
                <path d="M158.248474,111.356395 C158.24048,107.83314 155.382922,104.979942 151.858212,104.979942 C151.036991,104.979942 150.255015,105.139826 149.534084,105.421802 C149.553706,105.178343 149.571148,104.934884 149.571148,104.686337 C149.571148,99.6027616 145.449782,95.4813953 140.366206,95.4813953 C135.281904,95.4813953 131.160538,99.6027616 131.160538,104.686337 C131.160538,105.318605 131.224491,105.93561 131.345858,106.532267 C130.721584,106.36657 130.068968,106.269913 129.392369,106.269913 C126.073328,106.269913 123.257195,108.394913 122.21141,111.356395 L158.248474,111.356395 Z" id="Fill-80" fill="#2F5266"></path>
                <path d="M168.412427,61.4998547 C168.727834,60.7229651 168.905887,59.8748547 168.905887,58.984593 C168.905887,55.2898256 165.910247,52.2949128 162.21548,52.2949128 C161.442951,52.2949128 160.703852,52.4322674 160.012718,52.6735465 C159.518532,46.4831395 154.341933,41.6117733 148.023619,41.6117733 C142.84048,41.6117733 138.422602,44.890843 136.730741,49.4867733 C136.663154,49.4831395 136.59702,49.4765988 136.528706,49.4765988 C134.65734,49.4765988 133.117369,50.887936 132.90952,52.703343 C129.141352,53.3428779 126.268532,56.6146802 126.268532,60.5652616 C126.268532,60.8821221 126.291788,61.1924419 126.328125,61.4998547 L168.412427,61.4998547 Z" id="Fill-82" fill="#2F5266"></path>
            </g>
        </g>
    </g>
</svg>