<?xml version="1.0" encoding="UTF-8"?>
<svg width="162px" height="160px" viewBox="0 0 162 160" version="1.1" xmlns="http://www.w3.org/2000/svg" xmlns:xlink="http://www.w3.org/1999/xlink">
    <!-- Generator: Sketch 43.2 (39069) - http://www.bohemiancoding.com/sketch -->
    <title>Group 28</title>
    <desc>Created with Sketch.</desc>
    <defs>
        <polygon id="path-1" points="0.615789791 2.35251799 2.69373251 2.35251799 2.69373251 0.274596266 0.615789791 0.274596266"></polygon>
        <polygon id="path-3" points="0 108.327964 156.955295 108.327964 156.955295 0 0 0"></polygon>
    </defs>
    <g id="Design-1" stroke="none" stroke-width="1" fill="none" fill-rule="evenodd">
        <g id="Group-28">
            <circle id="Oval-1-Copy-10" fill="#FFFEF3" cx="80" cy="80" r="80"></circle>
            <g id="Page-1" transform="translate(5.000000, 31.000000)">
                <path d="M84.2503345,102.55512 L62.6855863,102.55512 C62.1758741,102.55512 61.7618309,102.141861 61.7618309,101.631365 C61.7618309,101.121653 62.1758741,100.708394 62.6855863,100.708394 L84.2503345,100.708394 C84.7600468,100.708394 85.1740899,101.121653 85.1740899,101.631365 C85.1740899,102.141861 84.7600468,102.55512 84.2503345,102.55512 L84.2503345,102.55512 Z" id="Fill-1" fill="#2F5266"></path>
                <path d="M81.6845216,108.212769 L70.9021475,108.212769 C70.3924353,108.212769 69.9783921,107.79951 69.9783921,107.289014 C69.9783921,106.779301 70.3924353,106.366042 70.9021475,106.366042 L81.6845216,106.366042 C82.1942338,106.366042 82.608277,106.779301 82.608277,107.289014 C82.608277,107.79951 82.1942338,108.212769 81.6845216,108.212769" id="Fill-3" fill="#2F5266"></path>
                <path d="M87.0807273,100.722038 C86.5788568,100.999635 86.3961446,101.631678 86.6737417,102.133549 C86.9513388,102.635419 87.583382,102.818132 88.0852525,102.540535 C88.587123,102.262937 88.7698353,101.630894 88.4922381,101.129024 C88.214641,100.627153 87.5825978,100.444441 87.0807273,100.722038" id="Fill-5" fill="#2F5266"></path>
                <path d="M26.5327173,91.2202964 C26.0308468,91.4978935 25.8481345,92.1299367 26.1257317,92.6318072 C26.4033288,93.1336777 27.0353719,93.3163899 27.5372424,93.0387928 C28.0391129,92.7611957 28.2218252,92.1291525 27.9442281,91.627282 C27.6666309,91.1254115 27.0345878,90.9426993 26.5327173,91.2202964" id="Fill-7" fill="#2F5266"></path>
                <g id="Group-11" transform="translate(65.870504, 105.975446)">
                    <mask id="mask-2" fill="white">
                        <use xlink:href="#path-1"></use>
                    </mask>
                    <g id="Clip-10"></g>
                    <path d="M2.15702374,2.22281583 C2.65889424,1.94521871 2.84160647,1.31317554 2.56400935,0.811305036 C2.28641223,0.309434532 1.65436906,0.126722302 1.15249856,0.404319424 C0.650628058,0.681916547 0.467915827,1.31395971 0.74551295,1.81583022 C1.02311007,2.31770072 1.65515324,2.50041295 2.15702374,2.22281583" id="Fill-9" fill="#2F5266" mask="url(#mask-2)"></path>
                </g>
                <path d="M91.5950525,21.5272647 L85.3216712,21.5272647 L85.3216712,14.9488403 C85.3216712,13.5702647 84.1995201,12.4473295 82.8201604,12.4473295 L68.4878367,12.4473295 C67.108477,12.4473295 65.9855417,13.5702647 65.9855417,14.9488403 L65.9855417,21.5272647 L59.7121604,21.5272647 L59.7121604,14.9488403 C59.7121604,10.1097108 63.6487072,6.1739482 68.4878367,6.1739482 L82.8201604,6.1739482 C87.6585058,6.1739482 91.5950525,10.1097108 91.5950525,14.9488403 L91.5950525,21.5272647 Z" id="Fill-12" fill="#2F5266"></path>
                <mask id="mask-4" fill="white">
                    <use xlink:href="#path-3"></use>
                </mask>
                <g id="Clip-15"></g>
                <path d="M66.5793957,71.1126978 L84.7290719,71.1126978 L84.7290719,60.3271871 L66.5793957,60.3271871 L66.5793957,71.1126978 Z M85.6520432,72.9594245 L65.6556403,72.9594245 C65.1459281,72.9594245 64.7318849,72.5461655 64.7318849,72.0356691 L64.7318849,59.4034317 C64.7318849,58.8937194 65.1459281,58.4796763 65.6556403,58.4796763 L85.6520432,58.4796763 C86.1617554,58.4796763 86.5757986,58.8937194 86.5757986,59.4034317 L86.5757986,72.0356691 C86.5757986,72.5461655 86.1617554,72.9594245 85.6520432,72.9594245 L85.6520432,72.9594245 Z" id="Fill-14" fill="#2F5266" mask="url(#mask-4)"></path>
                <path d="M70.8264748,44.340259 L80.4804245,44.340259 L80.4804245,40.7738417 L70.8264748,40.7738417 L70.8264748,44.340259 Z M81.4041799,46.1869856 L69.9035036,46.1869856 C69.3930072,46.1869856 68.9797482,45.7737266 68.9797482,45.2640144 L68.9797482,39.8500863 C68.9797482,39.3403741 69.3930072,38.9271151 69.9035036,38.9271151 L81.4041799,38.9271151 C81.9138921,38.9271151 82.3279353,39.3403741 82.3279353,39.8500863 L82.3279353,45.2640144 C82.3279353,45.7737266 81.9138921,46.1869856 81.4041799,46.1869856 L81.4041799,46.1869856 Z" id="Fill-16" fill="#2F5266" mask="url(#mask-4)"></path>
                <path d="M66.5793957,38.9271151 L84.7290719,38.9271151 L84.7290719,28.1416043 L66.5793957,28.1416043 L66.5793957,38.9271151 Z M85.6520432,40.7738417 L65.6556403,40.7738417 C65.1459281,40.7738417 64.7318849,40.3605827 64.7318849,39.8500863 L64.7318849,27.2178489 C64.7318849,26.7081367 65.1459281,26.2940935 65.6556403,26.2940935 L85.6520432,26.2940935 C86.1617554,26.2940935 86.5757986,26.7081367 86.5757986,27.2178489 L86.5757986,39.8500863 C86.5757986,40.3605827 86.1617554,40.7738417 85.6520432,40.7738417 L85.6520432,40.7738417 Z" id="Fill-17" fill="#2F5266" mask="url(#mask-4)"></path>
                <path d="M30.9342,39.1825986 L99.4246245,39.1825986 C111.514214,30.0595338 121.583776,26.5385986 128.130049,25.2102101 L128.130049,24.4229007 C128.130049,22.9047424 126.894977,21.6696705 125.376819,21.6696705 L25.9303942,21.6696705 C24.5910273,21.6696705 23.4712288,22.6318504 23.2265669,23.9014259 C24.4310561,24.5891453 25.5288978,25.4258576 26.4997036,26.3966633 C29.8692935,29.7662532 31.4854734,34.4775626 30.9342,39.1825986 M99.7351568,41.0293252 L29.8590993,41.0293252 C29.5838547,41.0293252 29.3235094,40.9069942 29.1478547,40.6952676 C28.9729842,40.4827568 28.9008403,40.2043755 28.9518115,39.933836 C29.7979338,35.474246 28.3926964,30.9009511 25.1940561,27.7023108 C24.2122719,26.7197424 23.0791424,25.8924403 21.8283871,25.2423612 C21.5225597,25.0831741 21.3304374,24.7671525 21.3304374,24.4229007 C21.3304374,21.8861022 23.3943799,19.8229439 25.9303942,19.8229439 L125.376819,19.8229439 C127.912833,19.8229439 129.976776,21.8861022 129.976776,24.4229007 L129.976776,25.9708576 C129.976776,26.4162676 129.659186,26.7981597 129.221617,26.8797137 C122.861977,28.057541 112.680279,31.436541 100.293488,40.8411237 C100.132732,40.9634547 99.9366892,41.0293252 99.7351568,41.0293252" id="Fill-18" fill="#2F5266" mask="url(#mask-4)"></path>
                <path d="M134.995245,26.3234216 C134.759209,26.3234216 134.522389,26.2332417 134.342029,26.052882 C133.982094,25.6921626 133.982094,25.1071698 134.342029,24.7464504 L145.709396,13.3790835 C146.070116,13.0191482 146.654324,13.0191482 147.015044,13.3790835 C147.375763,13.7398029 147.375763,14.3247957 147.015044,14.6855151 L135.648461,26.052882 C135.468101,26.2332417 135.231281,26.3234216 134.995245,26.3234216" id="Fill-19" fill="#2F5266" mask="url(#mask-4)"></path>
                <path d="M141.787435,28.1252935 C141.551399,28.1252935 141.314579,28.0351137 141.134219,27.854754 L132.540471,19.2602216 C132.179752,18.8995022 132.179752,18.3145094 132.540471,17.9537899 C132.900406,17.5938547 133.485399,17.5938547 133.846119,17.9537899 L142.440651,26.5483223 C142.800586,26.9090417 142.800586,27.4940345 142.440651,27.854754 C142.260291,28.0351137 142.023471,28.1252935 141.787435,28.1252935" id="Fill-20" fill="#2F5266" mask="url(#mask-4)"></path>
                <path d="M144.975803,24.937318 C144.739767,24.937318 144.502947,24.8471381 144.322587,24.6667784 L135.728839,16.0714619 C135.368119,15.7107424 135.368119,15.1257496 135.728839,14.7650302 C136.088774,14.405095 136.673767,14.405095 137.034486,14.7650302 L145.629019,23.3603468 C145.988954,23.7210662 145.988954,24.306059 145.629019,24.6667784 C145.448659,24.8471381 145.211839,24.937318 144.975803,24.937318" id="Fill-21" fill="#2F5266" mask="url(#mask-4)"></path>
                <path d="M146.641464,20.2261655 C146.405428,20.2261655 146.168608,20.1359856 145.988248,19.9556259 L140.439442,14.4068201 C140.078723,14.0461007 140.078723,13.4611079 140.439442,13.1003885 C140.800162,12.7404532 141.384371,12.7404532 141.74509,13.1003885 L147.29468,18.6491942 C147.654615,19.0099137 147.654615,19.5949065 147.29468,19.9556259 C147.11432,20.1359856 146.8775,20.2261655 146.641464,20.2261655" id="Fill-22" fill="#2F5266" mask="url(#mask-4)"></path>
                <path d="M109.536453,47.8598612 C108.767963,47.8598612 108.000258,48.1523576 107.414481,48.7373504 C106.24528,49.9065518 106.24528,51.810523 107.414481,52.9797245 C108.585251,54.1497101 110.487654,54.1497101 111.658424,52.9797245 C112.827625,51.810523 112.827625,49.9065518 111.658424,48.7373504 C111.072647,48.1523576 110.304942,47.8598612 109.536453,47.8598612 M109.536453,55.7062928 C108.241783,55.7062928 107.024747,55.2012856 106.108834,54.2861561 C105.193704,53.3702424 104.689481,52.1539906 104.689481,50.8585374 C104.689481,49.5638683 105.193704,48.3468324 106.108834,47.4309187 C107.024747,46.5157892 108.241783,46.0115662 109.536453,46.0115662 C110.831122,46.0115662 112.048158,46.5157892 112.964071,47.4309187 C113.879201,48.3468324 114.383424,49.5638683 114.383424,50.8585374 C114.383424,52.1539906 113.879201,53.3702424 112.964071,54.2861561 C112.048158,55.2012856 110.831122,55.7062928 109.536453,55.7062928" id="Fill-23" fill="#2F5266" mask="url(#mask-4)"></path>
                <path d="M119.42934,39.2860309 C118.999613,39.2860309 118.569102,39.449923 118.241318,39.7777072 C117.58575,40.4324914 117.58575,41.498182 118.241318,42.1529662 C118.896886,42.8093187 119.962577,42.8085345 120.618145,42.1529662 C121.272929,41.498182 121.272929,40.4324914 120.617361,39.776923 C120.290361,39.449923 119.85985,39.2860309 119.42934,39.2860309 M119.42934,44.4905849 C118.525973,44.4905849 117.62339,44.1471173 116.935671,43.4593978 C115.560232,42.083959 115.560232,39.8467144 116.935671,38.4712755 C118.310325,37.0966209 120.54757,37.0950525 121.923793,38.4712755 L121.923793,38.4720597 C123.298447,39.8467144 123.298447,42.083959 121.923793,43.4586137 C121.236073,44.1463331 120.332706,44.4905849 119.42934,44.4905849" id="Fill-24" fill="#2F5266" mask="url(#mask-4)"></path>
                <path d="M81.6975388,58.4798331 L120.64269,58.4798331 C132.102589,42.4670273 133.78464,29.7595094 134.030086,26.3256173 C129.786143,26.4738259 111.151064,28.4985597 88.1371647,51.5116748 C85.8873734,53.7614662 83.7269777,56.0990849 81.6975388,58.4798331 M121.11633,60.3265597 L79.7198554,60.3265597 C79.3622727,60.3265597 79.036841,60.1211065 78.8847115,59.7980273 C78.7317978,59.4749482 78.7796324,59.0922719 79.0062583,58.8170273 C81.4324885,55.8693223 84.0657403,52.9725885 86.8315173,50.2052432 C113.599251,23.4375094 134.18692,24.416941 135.054215,24.4788906 C135.537265,24.5094734 135.914453,24.9070489 135.918373,25.3916676 C135.923863,26.0009698 135.89328,40.5426676 121.864431,59.9446676 C121.690345,60.1846245 121.412747,60.3265597 121.11633,60.3265597" id="Fill-25" fill="#2F5266" mask="url(#mask-4)"></path>
                <path d="M94.3331482,51.2553288 C94.0971122,51.2553288 93.8602921,51.1651489 93.6799324,50.9847892 C93.3199971,50.6240698 93.3199971,50.039077 93.6799324,49.6783576 C100.641817,42.7172568 107.973832,37.3935086 115.472091,33.8568899 C115.935537,33.6404583 116.484458,33.8365014 116.700889,34.2983791 C116.918889,34.7594727 116.721278,35.3091777 116.260184,35.5271777 C108.954832,38.9736165 101.797688,44.1742496 94.986364,50.9847892 C94.8060043,51.1651489 94.5691842,51.2553288 94.3331482,51.2553288" id="Fill-26" fill="#2F5266" mask="url(#mask-4)"></path>
                <path d="M23.1774777,60.3269518 L23.1774777,92.396477 C23.1774777,93.9146353 24.4125496,95.1497072 25.9307079,95.1497072 L125.377132,95.1497072 C126.895291,95.1497072 128.129578,93.9146353 128.129578,92.396477 L128.129578,60.3269518 L23.1774777,60.3269518 Z M125.377132,96.997218 L25.9307079,96.997218 C23.3939094,96.997218 21.3307511,94.9332755 21.3307511,92.396477 L21.3307511,59.4031964 C21.3307511,58.8934842 21.7440101,58.4802252 22.2537223,58.4802252 L129.053334,58.4802252 C129.56383,58.4802252 129.977089,58.8934842 129.977089,59.4031964 L129.977089,92.396477 C129.977089,94.9332755 127.913147,96.997218 125.377132,96.997218 L125.377132,96.997218 Z" id="Fill-27" fill="#2F5266" mask="url(#mask-4)"></path>
                <path d="M27.4448669,60.1148331 C27.2088309,60.1148331 26.9720108,60.0246532 26.7916511,59.8442935 L19.3639676,52.4173942 C14.0613921,53.7685237 8.42867986,52.2362504 4.54388849,48.3522432 C0.640276978,44.4478475 -0.899053957,38.7022144 0.527356115,33.3580777 C0.612046763,33.0397036 0.861413669,32.7895525 1.17978777,32.7040777 C1.4973777,32.6209554 1.83849281,32.7095669 2.07217626,32.9432504 L11.2501331,42.1212072 L18.3625791,40.2148835 L20.2689029,33.1016532 L11.090946,23.9252647 C10.8572626,23.6915813 10.7662986,23.3512504 10.8517734,23.0320921 C10.9372482,22.713718 11.1866151,22.4643511 11.5057734,22.3796604 C16.8491259,20.9540345 22.5939748,22.4910129 26.4991547,26.3961928 C30.2765144,30.1727683 31.8401547,35.6737396 30.6458597,40.8673151 L48.0090108,58.2312504 C48.3697302,58.5919698 48.3697302,59.1769626 48.0090108,59.537682 C47.6482914,59.8976173 47.0640827,59.8976173 46.7033633,59.537682 L28.9708669,41.8044014 C28.7379676,41.5715022 28.6470036,41.2319554 28.7316942,40.9135813 C29.988723,36.2038403 28.6328885,31.1420058 25.1935072,27.7026245 C22.1485647,24.6561137 17.8301259,23.2438187 13.6120612,23.8335165 L21.9517374,32.1724086 C22.1846367,32.4060921 22.2756007,32.746423 22.1901259,33.0647971 L20.0085576,41.2084302 C19.9230827,41.5268043 19.6737158,41.7753871 19.3553417,41.861646 L11.2124928,44.0432144 C10.8949029,44.1263367 10.5545719,44.0377252 10.3208885,43.8040417 L1.98121223,35.4635813 C1.39229856,39.6824302 2.80459353,44.0000849 5.84953597,47.0458115 C9.38772302,50.5847827 14.5726727,51.9061137 19.3780827,50.4985237 C19.7027302,50.404423 20.0516871,50.4938187 20.2908597,50.731423 L28.0980827,58.5378619 C28.458018,58.8985813 28.458018,59.4835741 28.0980827,59.8442935 C27.917723,60.0246532 27.6809029,60.1148331 27.4448669,60.1148331" id="Fill-28" fill="#2F5266" mask="url(#mask-4)"></path>
                <path d="M27.0352151,89.8352906 C26.5255029,89.8352906 26.1114597,89.4220317 26.1114597,88.9115353 L26.1114597,63.5302187 C26.1114597,63.0205065 26.5255029,62.6064633 27.0352151,62.6064633 C27.5449273,62.6064633 27.9589705,63.0205065 27.9589705,63.5302187 L27.9589705,88.9115353 C27.9589705,89.4220317 27.5449273,89.8352906 27.0352151,89.8352906" id="Fill-29" fill="#2F5266" mask="url(#mask-4)"></path>
                <path d="M69.5111036,68.3960885 C69.0013914,68.3960885 68.5873482,67.9828295 68.5873482,67.4723331 L68.5873482,63.5302971 C68.5873482,63.0205849 69.0013914,62.6065417 69.5111036,62.6065417 C70.0208158,62.6065417 70.434859,63.0205849 70.434859,63.5302971 L70.434859,67.4723331 C70.434859,67.9828295 70.0208158,68.3960885 69.5111036,68.3960885" id="Fill-30" fill="#2F5266" mask="url(#mask-4)"></path>
                <path d="M69.5111036,36.4288194 C69.0013914,36.4288194 68.5873482,36.0155604 68.5873482,35.505064 L68.5873482,31.5630281 C68.5873482,31.0533158 69.0013914,30.6392727 69.5111036,30.6392727 C70.0208158,30.6392727 70.434859,31.0533158 70.434859,31.5630281 L70.434859,35.505064 C70.434859,36.0155604 70.0208158,36.4288194 69.5111036,36.4288194" id="Fill-31" fill="#2F5266" mask="url(#mask-4)"></path>
                <path d="M29.5868345,56.2835223 C29.3507986,56.2835223 29.1139784,56.1933424 28.9336187,56.0129827 L22.1513094,49.2306734 C21.7905899,48.869954 21.7905899,48.2849612 22.1513094,47.9242417 C22.5120288,47.5643065 23.0962374,47.5643065 23.4569568,47.9242417 L30.2400504,54.7065511 C30.5999856,55.0672705 30.5999856,55.6522633 30.2400504,56.0129827 C30.0596906,56.1933424 29.8228705,56.2835223 29.5868345,56.2835223" id="Fill-32" fill="#2F5266" mask="url(#mask-4)"></path>
                <path d="M150.150715,12.2366223 C150.062888,12.2366223 149.973492,12.2240755 149.884881,12.1974137 C149.396341,12.0515576 149.119528,11.5355719 149.266168,11.0478165 L151.030557,5.16652158 C151.137988,4.80815468 151.450873,4.55016187 151.823355,4.51252158 C152.194269,4.47723381 152.55342,4.6670036 152.729859,4.99792446 L153.2976,6.06204676 L155.157658,0.623809353 C155.323118,0.141543165 155.848514,-0.114097122 156.33078,0.0490107914 C156.813046,0.214471223 157.070255,0.739082734 156.905578,1.22134892 L154.357017,8.67098921 C154.237823,9.01916187 153.92337,9.26303957 153.557161,9.29283813 C153.195658,9.32577338 152.841996,9.13129856 152.667909,8.80665108 L152.15506,7.84368705 L151.034478,11.5779173 C150.914499,11.9786295 150.547506,12.2366223 150.150715,12.2366223" id="Fill-33" fill="#2F5266" mask="url(#mask-4)"></path>
                <path d="M112.310934,49.0077331 C112.074898,49.0077331 111.838078,48.9175532 111.657718,48.7371935 C111.297783,48.3764741 111.297783,47.7914813 111.657718,47.4307619 L116.9352,42.1532799 C117.295919,41.7933446 117.880912,41.7933446 118.240847,42.1532799 C118.601567,42.5139993 118.601567,43.0989921 118.240847,43.4597115 L112.96415,48.7371935 C112.78379,48.9175532 112.54697,49.0077331 112.310934,49.0077331" id="Fill-34" fill="#2F5266" mask="url(#mask-4)"></path>
                <path d="M33.8312475,46.3688353 C33.3215353,46.3688353 32.9074921,45.9555763 32.9074921,45.4450799 L32.9074921,40.5236122 C32.9074921,40.0139 33.3215353,39.5998568 33.8312475,39.5998568 C34.3409597,39.5998568 34.7550029,40.0139 34.7550029,40.5236122 L34.7550029,45.4450799 C34.7550029,45.9555763 34.3409597,46.3688353 33.8312475,46.3688353" id="Fill-35" fill="#2F5266" mask="url(#mask-4)"></path>
                <path d="M37.4905892,49.5008993 C36.980877,49.5008993 36.5668338,49.0876403 36.5668338,48.5771439 L36.5668338,40.5236906 C36.5668338,40.0131942 36.980877,39.5999353 37.4905892,39.5999353 C38.0003014,39.5999353 38.4143446,40.0131942 38.4143446,40.5236906 L38.4143446,48.5771439 C38.4143446,49.0876403 38.0003014,49.5008993 37.4905892,49.5008993" id="Fill-36" fill="#2F5266" mask="url(#mask-4)"></path>
                <path d="M41.150323,53.6561518 C40.6406108,53.6561518 40.2265676,53.2428928 40.2265676,52.7323964 L40.2265676,40.5236122 C40.2265676,40.0139 40.6406108,39.5998568 41.150323,39.5998568 C41.6600353,39.5998568 42.0740784,40.0139 42.0740784,40.5236122 L42.0740784,52.7323964 C42.0740784,53.2428928 41.6600353,53.6561518 41.150323,53.6561518" id="Fill-37" fill="#2F5266" mask="url(#mask-4)"></path>
                <path d="M44.8096647,56.7384209 C44.2999525,56.7384209 43.8859094,56.3251619 43.8859094,55.8146655 L43.8859094,40.5232986 C43.8859094,40.0135863 44.2999525,39.6003273 44.8096647,39.6003273 C45.319377,39.6003273 45.7334201,40.0135863 45.7334201,40.5232986 L45.7334201,55.8146655 C45.7334201,56.3251619 45.319377,56.7384209 44.8096647,56.7384209" id="Fill-38" fill="#2F5266" mask="url(#mask-4)"></path>
                <path d="M48.4690065,60.1148331 C47.9592942,60.1148331 47.5452511,59.7015741 47.5452511,59.1910777 L47.5452511,40.5238475 C47.5452511,40.0133511 47.9592942,39.6000921 48.4690065,39.6000921 C48.9787187,39.6000921 49.3927619,40.0133511 49.3927619,40.5238475 L49.3927619,59.1910777 C49.3927619,59.7015741 48.9787187,60.1148331 48.4690065,60.1148331" id="Fill-39" fill="#2F5266" mask="url(#mask-4)"></path>
                <path d="M52.1287403,60.1148331 C51.6190281,60.1148331 51.2049849,59.7015741 51.2049849,59.1910777 L51.2049849,40.5238475 C51.2049849,40.0133511 51.6190281,39.6000921 52.1287403,39.6000921 C52.6384525,39.6000921 53.0524957,40.0133511 53.0524957,40.5238475 L53.0524957,59.1910777 C53.0524957,59.7015741 52.6384525,60.1148331 52.1287403,60.1148331" id="Fill-40" fill="#2F5266" mask="url(#mask-4)"></path>
                <path d="M55.788082,60.1148331 C55.2783698,60.1148331 54.8643266,59.7015741 54.8643266,59.1910777 L54.8643266,40.5238475 C54.8643266,40.0133511 55.2783698,39.6000921 55.788082,39.6000921 C56.2977942,39.6000921 56.7118374,40.0133511 56.7118374,40.5238475 L56.7118374,59.1910777 C56.7118374,59.7015741 56.2977942,60.1148331 55.788082,60.1148331" id="Fill-41" fill="#2F5266" mask="url(#mask-4)"></path>
                <path d="M59.4474237,60.1148331 C58.9377115,60.1148331 58.5236683,59.7015741 58.5236683,59.1910777 L58.5236683,40.5238475 C58.5236683,40.0133511 58.9377115,39.6000921 59.4474237,39.6000921 C59.957136,39.6000921 60.3711791,40.0133511 60.3711791,40.5238475 L60.3711791,59.1910777 C60.3711791,59.7015741 59.957136,60.1148331 59.4474237,60.1148331" id="Fill-42" fill="#2F5266" mask="url(#mask-4)"></path>
                <path d="M63.1071576,60.1148331 C62.5974453,60.1148331 62.1834022,59.7015741 62.1834022,59.1910777 L62.1834022,40.5238475 C62.1834022,40.0133511 62.5974453,39.6000921 63.1071576,39.6000921 C63.6168698,39.6000921 64.0309129,40.0133511 64.0309129,40.5238475 L64.0309129,59.1910777 C64.0309129,59.7015741 63.6168698,60.1148331 63.1071576,60.1148331" id="Fill-43" fill="#2F5266" mask="url(#mask-4)"></path>
                <path d="M66.7664993,60.1148331 C66.2567871,60.1148331 65.8427439,59.7015741 65.8427439,59.1910777 L65.8427439,40.5238475 C65.8427439,40.0133511 66.2567871,39.6000921 66.7664993,39.6000921 C67.2762115,39.6000921 67.6902547,40.0133511 67.6902547,40.5238475 L67.6902547,59.1910777 C67.6902547,59.7015741 67.2762115,60.1148331 66.7664993,60.1148331" id="Fill-44" fill="#2F5266" mask="url(#mask-4)"></path>
                <path d="M70.425841,60.1148331 C69.9161288,60.1148331 69.5020856,59.7015741 69.5020856,59.1910777 L69.5020856,40.5238475 C69.5020856,40.0133511 69.9161288,39.6000921 70.425841,39.6000921 C70.9355532,39.6000921 71.3495964,40.0133511 71.3495964,40.5238475 L71.3495964,59.1910777 C71.3495964,59.7015741 70.9355532,60.1148331 70.425841,60.1148331" id="Fill-45" fill="#2F5266" mask="url(#mask-4)"></path>
                <path d="M74.0855748,60.1148331 C73.5758626,60.1148331 73.1618194,59.7015741 73.1618194,59.1910777 L73.1618194,45.2641712 C73.1618194,44.7536748 73.5758626,44.3404158 74.0855748,44.3404158 C74.5952871,44.3404158 75.0093302,44.7536748 75.0093302,45.2641712 L75.0093302,59.1910777 C75.0093302,59.7015741 74.5952871,60.1148331 74.0855748,60.1148331" id="Fill-46" fill="#2F5266" mask="url(#mask-4)"></path>
                <path d="M77.7449165,60.1148331 C77.2352043,60.1148331 76.8211612,59.7015741 76.8211612,59.1910777 L76.8211612,45.2641712 C76.8211612,44.7536748 77.2352043,44.3404158 77.7449165,44.3404158 C78.2546288,44.3404158 78.6686719,44.7536748 78.6686719,45.2641712 L78.6686719,59.1910777 C78.6686719,59.7015741 78.2546288,60.1148331 77.7449165,60.1148331" id="Fill-47" fill="#2F5266" mask="url(#mask-4)"></path>
                <path d="M81.4042583,60.1148331 C80.894546,60.1148331 80.4805029,59.7015741 80.4805029,59.1910777 L80.4805029,40.5238475 C80.4805029,40.0133511 80.894546,39.6000921 81.4042583,39.6000921 C81.9139705,39.6000921 82.3280137,40.0133511 82.3280137,40.5238475 L82.3280137,59.1910777 C82.3280137,59.7015741 81.9139705,60.1148331 81.4042583,60.1148331" id="Fill-48" fill="#2F5266" mask="url(#mask-4)"></path>
                <path d="M85.0639921,53.6561518 C84.5542799,53.6561518 84.1402367,53.2428928 84.1402367,52.7323964 L84.1402367,40.5236122 C84.1402367,40.0139 84.5542799,39.5998568 85.0639921,39.5998568 C85.5737043,39.5998568 85.9877475,40.0139 85.9877475,40.5236122 L85.9877475,52.7323964 C85.9877475,53.2428928 85.5737043,53.6561518 85.0639921,53.6561518" id="Fill-49" fill="#2F5266" mask="url(#mask-4)"></path>
                <path d="M88.7233338,50.5592187 C88.2136216,50.5592187 87.7995784,50.1459597 87.7995784,49.6354633 L87.7995784,40.523377 C87.7995784,40.0136647 88.2136216,39.5996216 88.7233338,39.5996216 C89.233046,39.5996216 89.6470892,40.0136647 89.6470892,40.523377 L89.6470892,49.6354633 C89.6470892,50.1459597 89.233046,50.5592187 88.7233338,50.5592187" id="Fill-50" fill="#2F5266" mask="url(#mask-4)"></path>
                <path d="M92.3826755,47.1269734 C91.8729633,47.1269734 91.4589201,46.7137144 91.4589201,46.203218 L91.4589201,40.5234554 C91.4589201,40.0137432 91.8729633,39.5997 92.3826755,39.5997 C92.8923878,39.5997 93.3064309,40.0137432 93.3064309,40.5234554 L93.3064309,46.203218 C93.3064309,46.7137144 92.8923878,47.1269734 92.3826755,47.1269734" id="Fill-51" fill="#2F5266" mask="url(#mask-4)"></path>
                <path d="M4.64834029,68.1786374 C4.13862806,68.1786374 3.72458489,67.7653784 3.72458489,67.254882 L3.72458489,59.8052417 C3.72458489,59.2955295 4.13862806,58.8822705 4.64834029,58.8822705 C5.15805252,58.8822705 5.57209568,59.2955295 5.57209568,59.8052417 L5.57209568,67.254882 C5.57209568,67.7653784 5.15805252,68.1786374 4.64834029,68.1786374" id="Fill-52" fill="#2F5266" mask="url(#mask-4)"></path>
                <path d="M8.37316043,64.4538173 L0.923520144,64.4538173 C0.413807914,64.4538173 -0.000235251799,64.0405583 -0.000235251799,63.5300619 C-0.000235251799,63.0203496 0.413807914,62.6070906 0.923520144,62.6070906 L8.37316043,62.6070906 C8.88287266,62.6070906 9.29691583,63.0203496 9.29691583,63.5300619 C9.29691583,64.0405583 8.88287266,64.4538173 8.37316043,64.4538173" id="Fill-53" fill="#2F5266" mask="url(#mask-4)"></path>
                <path d="M122.033028,10.7662986 C121.523316,10.7662986 121.109273,10.3530396 121.109273,9.84254317 L121.109273,2.39290288 C121.109273,1.88319065 121.523316,1.46993165 122.033028,1.46993165 C122.54274,1.46993165 122.956783,1.88319065 122.956783,2.39290288 L122.956783,9.84254317 C122.956783,10.3530396 122.54274,10.7662986 122.033028,10.7662986" id="Fill-54" fill="#2F5266" mask="url(#mask-4)"></path>
                <path d="M125.757848,7.04147842 L118.308208,7.04147842 C117.798496,7.04147842 117.384453,6.62821942 117.384453,6.11772302 C117.384453,5.60801079 117.798496,5.1947518 118.308208,5.1947518 L125.757848,5.1947518 C126.26756,5.1947518 126.681604,5.60801079 126.681604,6.11772302 C126.681604,6.62821942 126.26756,7.04147842 125.757848,7.04147842" id="Fill-55" fill="#2F5266" mask="url(#mask-4)"></path>
            </g>
        </g>
    </g>
</svg>