<?xml version="1.0" encoding="UTF-8"?>
<svg width="174px" height="160px" viewBox="0 0 174 160" version="1.1" xmlns="http://www.w3.org/2000/svg" xmlns:xlink="http://www.w3.org/1999/xlink">
    <!-- Generator: Sketch 43.2 (39069) - http://www.bohemiancoding.com/sketch -->
    <title>Group 20</title>
    <desc>Created with Sketch.</desc>
    <defs>
        <polygon id="path-1" points="0 0.470570105 0 69.2862959 68.0717041 69.2862959 68.0717041 0.470570105 4.40107841e-21 0.470570105"></polygon>
        <polygon id="path-3" points="1.82375258 2.06537822 1.82375258 0.344339308 0.102990854 0.344339308 0.102990854 2.06537822 1.82375258 2.06537822"></polygon>
    </defs>
    <g id="Design-1" stroke="none" stroke-width="1" fill="none" fill-rule="evenodd">
        <g id="Group-20">
            <circle id="Oval-1-Copy-3" fill="#FFFEF3" cx="94" cy="80" r="80"></circle>
            <g id="Page-1" transform="translate(0.484536, 28.000000)">
                <path d="M116.861233,70.9348175 C116.441666,70.9348175 116.100037,70.5964361 116.09679,70.1762196 C116.092893,69.7534052 116.432573,69.4085289 116.855388,69.4052814 C123.864625,69.3507247 129.701542,64.2698072 130.732924,57.3242196 C131.168728,54.3885495 130.684862,51.4418381 129.333285,48.802333 L128.954635,48.0632196 L129.722326,47.7469206 C133.291893,46.2738897 135.861254,42.9907454 136.427604,39.1776216 C137.319996,33.1692402 133.158099,27.5550959 127.149718,26.6620546 C124.768058,26.3087351 122.392893,26.7270031 120.281419,27.8733433 L119.524769,28.284467 L119.205872,27.4849515 C117.181429,22.4079309 112.572687,18.7565289 107.177419,17.9550649 C106.29412,17.8238691 105.377697,17.7699619 104.459326,17.7972402 L103.846212,17.8147763 L103.696181,17.2198485 C102.454367,12.3045495 98.4126247,8.64665258 93.3986041,7.90169381 C86.5725216,6.88914742 80.195233,11.6154464 79.1813876,18.4415289 L79.0651299,19.3436629 L78.3552433,19.3027454 C67.9992124,18.7000237 59.025934,26.0047763 57.4989959,36.2835186 C57.0560474,39.2646526 57.2801196,42.2250031 58.164068,45.0833845 C58.2881196,45.4867144 58.0627485,45.9147247 57.6587691,46.0394258 C57.2560887,46.1647763 56.8274289,45.9394052 56.7027278,45.5347763 C55.7505835,42.4562196 55.5096247,39.2685495 55.9863464,36.0587969 C57.5957691,25.2234464 66.8814495,17.4640546 77.7466763,17.7465804 C79.1028,10.3398588 86.1256763,5.27193093 93.6233258,6.38904433 C99.0491196,7.19505464 103.461068,11.0413021 105.018532,16.2612093 C105.824542,16.2657557 106.624058,16.3261577 107.40214,16.4424155 C113.0598,17.2828485 117.930934,20.9732196 120.299604,26.1541577 C122.511099,25.134467 124.938872,24.7863433 127.374439,25.1494052 C134.216759,26.1658485 138.957346,32.5600237 137.940254,39.4023433 C137.334934,43.4772093 134.721408,47.0214464 131.042078,48.8283124 C132.272852,51.5632918 132.689171,54.5619619 132.245573,57.5489412 C131.10248,65.2446835 124.634913,70.8744155 116.867078,70.9348175 L116.861233,70.9348175" id="Fill-1" fill="#2F5266"></path>
                <path d="M50.5811412,21.7557186 C50.0310278,21.7557186 49.4971515,21.9310794 49.0470588,22.2649144 C48.492399,22.6760381 48.1306361,23.2787598 48.0293165,23.961368 C47.8201825,25.3720485 48.7963577,26.6898526 50.2070381,26.8996361 C50.8902959,27.0009557 51.5716052,26.8301412 52.1269144,26.4190175 C52.6815742,26.0078938 53.0433371,25.4051722 53.1446567,24.7219144 C53.2459763,24.0386567 53.0751619,23.3566979 52.6640381,22.8020381 C52.2529144,22.2473784 51.6501928,21.8856155 50.9669351,21.7842959 C50.8383371,21.7654608 50.7090897,21.7557186 50.5811412,21.7557186 M50.5954299,28.4577495 C50.3921412,28.4577495 50.1875536,28.4428113 49.9823165,28.4122856 C47.7376979,28.0791 46.1834814,25.9819144 46.516667,23.7372959 C46.6777392,22.6494093 47.2531825,21.6901206 48.135832,21.0360897 C49.0197804,20.3814093 50.1057186,20.1112237 51.1916567,20.2716464 C52.2788938,20.4327186 53.2381825,21.0081619 53.8928629,21.8908113 C54.5475433,22.7741103 54.8190278,23.859399 54.6573062,24.9466361 C54.4955845,26.0338732 53.9207907,26.9931619 53.0374918,27.6478423 C52.3211103,28.1791206 51.4715845,28.4577495 50.5954299,28.4577495" id="Fill-3" fill="#2F5266"></path>
                <path d="M131.413713,69.4074897 C130.451177,69.4074897 129.605548,70.1134794 129.460064,71.0935515 C129.382775,71.6157371 129.512672,72.1372732 129.827023,72.5613866 C130.142023,72.9855 130.602507,73.2615309 131.124693,73.3394691 C131.646229,73.4161082 132.167765,73.2868608 132.591878,72.9718608 C133.015992,72.6575103 133.292672,72.1963763 133.369961,71.6748402 C133.447249,71.1526546 133.317353,70.6311186 133.003002,70.2070052 C132.688002,69.7828918 132.227518,69.5068608 131.705332,69.4289227 C131.60726,69.414634 131.509837,69.4074897 131.413713,69.4074897 M131.422806,74.8910876 C131.249394,74.8910876 131.074682,74.8780979 130.899322,74.8521186 C129.973806,74.7144278 129.156105,74.2247165 128.598847,73.4719639 C128.04094,72.7198608 127.809074,71.7949948 127.947414,70.8688299 C128.23059,68.9567474 130.01992,67.6285515 131.930054,67.9162732 L131.930054,67.9162732 C133.842786,68.2007474 135.167085,69.9874794 134.88261,71.8995619 C134.745569,72.8257268 134.255208,73.6427784 133.503105,74.2006856 C132.89259,74.6533763 132.169064,74.8910876 131.422806,74.8910876" id="Fill-5" fill="#2F5266"></path>
                <path d="M71.3560732,2.82551753 C70.4812175,2.82551753 69.6336402,3.10414639 68.9179082,3.63477526 C68.0365577,4.28750722 67.4617639,5.24549691 67.3006918,6.33078557 C66.9681557,8.5721567 68.5197742,10.6660948 70.7604959,10.9986309 C73.0012175,11.331167 75.0951557,9.77954845 75.4289907,7.5388268 C75.5900629,6.45288866 75.3192278,5.36954845 74.6651969,4.48819794 C74.0118155,3.60684742 73.0538258,3.03205361 71.9685371,2.87098144 C71.7639495,2.84045567 71.5587124,2.82551753 71.3560732,2.82551753 M71.3768567,12.5742804 C71.0975784,12.5742804 70.817001,12.5534969 70.5364237,12.5119299 C69.0465062,12.2904557 67.7319495,11.5019814 66.8356608,10.2926412 C65.9387227,9.08265155 65.566568,7.59598144 65.7880423,6.1067134 C66.008867,4.61679588 66.7973412,3.30223918 68.0073309,2.40595052 C69.2166711,1.50901237 70.7039907,1.13490928 72.1932588,1.35833196 C73.6831763,1.5791567 74.9970835,2.36763093 75.8940216,3.57697113 C76.7909598,4.78696082 77.1631144,6.27363093 76.9416402,7.76354845 C76.720166,9.25281649 75.9316918,10.5673732 74.7223515,11.4643113 C73.7403309,12.191734 72.5764546,12.5742804 71.3768567,12.5742804" id="Fill-7" fill="#2F5266"></path>
                <path d="M127.452767,12.9959258 C125.897252,12.9959258 124.530087,14.1377196 124.294324,15.7218124 C124.168973,16.5661423 124.380056,17.4078742 124.887953,18.0937299 C125.396499,18.7789361 126.141458,19.2257814 126.985138,19.351132 L126.985788,19.351132 C127.830118,19.4764825 128.671849,19.2660495 129.357705,18.7575031 C130.042911,18.2496062 130.489757,17.5046474 130.615107,16.660967 C130.740458,15.8166371 130.529375,14.9736062 130.021478,14.2884 C129.512932,13.6031938 128.767973,13.1563485 127.924293,13.0309979 C127.765819,13.0076165 127.608643,12.9959258 127.452767,12.9959258 M127.465107,20.9163897 C127.231293,20.9163897 126.996179,20.8988536 126.760416,20.8637814 L126.761066,20.8637814 C125.512757,20.6786784 124.411231,20.0181526 123.659777,19.0043072 C122.907674,17.9904619 122.595922,16.7447505 122.781674,15.4970907 C123.16487,12.9205856 125.575757,11.1351526 128.149014,11.5183485 C129.397324,11.7034515 130.4982,12.3639773 131.250303,13.3771732 C132.001757,14.3910186 132.313509,15.6367299 132.127757,16.8850392 C131.942654,18.1333485 131.282128,19.2348742 130.268282,19.9863278 C129.446035,20.5961938 128.470509,20.9163897 127.465107,20.9163897" id="Fill-9" fill="#2F5266"></path>
                <path d="M107.322838,93.4695278 L60.6190546,93.4695278 C60.1962402,93.4695278 59.8539619,93.1272495 59.8539619,92.7044351 C59.8539619,92.2822701 60.1962402,91.9399918 60.6190546,91.9399918 L105.793302,91.9399918 L105.793302,55.6338062 L58.8147866,55.6338062 L58.8147866,63.7049505 C58.8147866,64.1277649 58.4725082,64.4700433 58.0503433,64.4700433 C57.6275289,64.4700433 57.2852505,64.1277649 57.2852505,63.7049505 L57.2852505,54.1042701 L107.322838,54.1042701 L107.322838,93.4695278 Z" id="Fill-11" fill="#2F5266"></path>
                <path d="M64.4004186,107.316408 C63.6554598,107.316408 63.0494907,107.922377 63.0494907,108.667336 C63.0494907,109.412944 63.6554598,110.018913 64.4004186,110.018913 L100.2078,110.018913 C100.952759,110.018913 101.558728,109.412944 101.558728,108.667336 C101.558728,107.922377 100.952759,107.316408 100.2078,107.316408 L64.4004186,107.316408 Z M100.2078,111.548449 L64.4004186,111.548449 C62.8117794,111.548449 61.5193052,110.255975 61.5193052,108.667336 C61.5193052,107.078697 62.8117794,105.786872 64.4004186,105.786872 L100.2078,105.786872 C101.796439,105.786872 103.088913,107.078697 103.088913,108.667336 C103.088913,110.255975 101.796439,111.548449 100.2078,111.548449 L100.2078,111.548449 Z" id="Fill-13" fill="#2F5266"></path>
                <path d="M56.0696753,95.0339412 C54.4927268,95.0339412 52.9683866,94.1772711 52.1922526,92.6841062 C51.9974072,92.3093536 52.1435412,91.8475701 52.5182938,91.6527247 C52.8936959,91.4578794 53.3548299,91.6046629 53.5496753,91.978766 C54.2699536,93.364766 55.9832938,93.9064361 57.3673454,93.1861577 C57.7433969,92.9913124 58.2045309,93.1380959 58.3987268,93.512199 C58.5935722,93.8869515 58.4474381,94.3487351 58.0726856,94.5435804 C57.4322938,94.8761165 56.7457887,95.0339412 56.0696753,95.0339412" id="Fill-15" fill="#2F5266"></path>
                <path d="M82.5742299,95.9050948 C81.8234258,95.9050948 81.2129103,96.5156103 81.2129103,97.2670639 C81.2129103,98.0172186 81.8234258,98.6283835 82.5742299,98.6283835 C83.325034,98.6283835 83.936199,98.0172186 83.936199,97.2670639 C83.936199,96.5156103 83.325034,95.9050948 82.5742299,95.9050948 M82.5742299,100.15792 C80.9797454,100.15792 79.6827247,98.860899 79.6827247,97.2670639 C79.6827247,95.6725794 80.9797454,94.3755588 82.5742299,94.3755588 C84.1687144,94.3755588 85.4657351,95.6725794 85.4657351,97.2670639 C85.4657351,98.860899 84.1687144,100.15792 82.5742299,100.15792" id="Fill-17" fill="#2F5266"></path>
                <path d="M118.690116,38.5845773 C119.185673,39.1126082 119.633818,39.7322165 120.023508,40.4265155 C120.413199,39.7322165 120.861343,39.1126082 121.356251,38.5845773 C120.861343,38.0565464 120.413199,37.4369381 120.023508,36.7426392 C119.633818,37.4369381 119.185673,38.0565464 118.690116,38.5845773 L118.690116,38.5845773 Z M120.023508,44.3455052 L119.310374,42.4996701 C118.767405,41.0967835 117.999714,39.9439485 117.089137,39.1665155 L116.407828,38.5845773 L117.089137,38.0026392 C117.999714,37.2252062 118.767405,36.0723711 119.310374,34.6694845 L120.023508,32.824299 L120.736642,34.6694845 C121.278962,36.0723711 122.047302,37.2252062 122.957879,38.0026392 L123.638539,38.5845773 L122.957879,39.1665155 C122.046653,39.9439485 121.278962,41.0967835 120.736642,42.4996701 L120.023508,44.3455052 Z" id="Fill-19" fill="#2F5266"></path>
                <path d="M140.322758,45.8832247 C139.597933,47.7589361 138.557459,49.3131526 137.313696,50.3757093 C138.557459,51.4389155 139.597933,52.993132 140.322758,54.8688433 C141.047582,52.993132 142.088057,51.4389155 143.33182,50.3757093 C142.088057,49.3131526 141.047582,47.7589361 140.322758,45.8832247" id="Fill-21" fill="#2F5266"></path>
                <path d="M47.5775351,32.6477691 C46.8527103,34.5234804 45.8122361,36.0776969 44.5684732,37.1402536 C45.8122361,38.2034598 46.8527103,39.7576763 47.5775351,41.6333876 C48.3023598,39.7576763 49.342834,38.2034598 50.5865969,37.1402536 C49.342834,36.0776969 48.3023598,34.5234804 47.5775351,32.6477691" id="Fill-23" fill="#2F5266"></path>
                <g id="Group-27" transform="translate(0.000000, 54.660619)">
                    <mask id="mask-2" fill="white">
                        <use xlink:href="#path-1"></use>
                    </mask>
                    <g id="Clip-26"></g>
                    <path d="M36.6723649,32.6638113 C37.1263546,44.8754196 48.4663546,48.2170175 55.2222928,48.2494918 L55.2443753,48.2494918 C56.4641072,48.2494918 57.6130454,47.7740691 58.4827052,46.9083062 C59.3673031,46.0282546 59.853767,44.8552856 59.853767,43.6076258 L59.853767,32.6638113 L36.6723649,32.6638113 Z M0.765612371,69.2862959 C0.483736082,69.2862959 0.213550515,69.1304196 0.079756701,68.861533 C-0.10794433,68.4828835 0.0466329897,68.0236979 0.42463299,67.8366464 L24.9952825,55.6484196 L24.9952825,18.9525433 C24.9952825,8.92839897 33.0177155,0.639027835 42.8788392,0.474058763 C47.7869938,0.378584536 52.4405505,2.24585258 55.946468,5.69331649 C59.3984784,9.08817216 61.3242,13.6066361 61.3820041,18.438801 L67.5936742,28.0959866 C68.189901,29.0221515 68.2308186,30.1522546 67.7027876,31.1193371 C67.1754062,32.0864196 66.2024784,32.6638113 65.1009526,32.6638113 L61.3839526,32.6638113 L61.3839526,43.6076258 C61.3839526,45.2657598 60.7364165,46.8225742 59.561499,47.9922959 C58.3963237,49.1522753 56.8550969,49.8160485 55.2151485,49.7790278 C47.7545196,49.7433062 35.1285402,45.9373268 35.1285402,31.8987186 L35.1285402,31.1342753 L65.1009526,31.1342753 C65.6341794,31.1342753 66.1050557,30.8543474 66.3603031,30.3867186 C66.6155505,29.9184402 66.596066,29.3715742 66.3076948,28.9234299 L59.853767,18.8901928 L59.853767,18.6654711 C59.853767,14.1619454 58.0852206,9.94224433 54.8735196,6.78380103 C51.6631175,3.62600722 47.4232825,1.92890412 42.9041691,2.00359485 C33.8724371,2.15427526 26.5248186,9.75779072 26.5248186,18.9525433 L26.5248186,56.5973165 L1.1046433,69.2064093 C0.995529897,69.260966 0.879921649,69.2862959 0.765612371,69.2862959 L0.765612371,69.2862959 Z" id="Fill-25" fill="#2F5266" mask="url(#mask-2)"></path>
                </g>
                <path d="M74.9609072,123.947109 C74.844,123.947109 74.7257938,123.92048 74.614732,123.863975 L49.8219588,111.252934 L49.8219588,103.204522 C49.8219588,102.782357 50.1642371,102.439429 50.5870515,102.439429 C51.0092165,102.439429 51.3514948,102.782357 51.3514948,103.204522 L51.3514948,110.314429 L75.3083814,122.500707 C75.684433,122.691656 75.8344639,123.15214 75.642866,123.528841 C75.5084227,123.79448 75.2395361,123.947109 74.9609072,123.947109" id="Fill-28" fill="#2F5266"></path>
                <path d="M80.2627144,31.4732412 C81.4389309,32.6306227 82.4690134,34.0958598 83.303601,35.7923134 C84.1375392,34.0958598 85.1682711,32.6306227 86.3444876,31.4732412 C85.1682711,30.3158598 84.1375392,28.8506227 83.303601,27.1535196 C82.4690134,28.8506227 81.4389309,30.3158598 80.2627144,31.4732412 L80.2627144,31.4732412 Z M83.303601,39.8217155 L82.5898175,37.9758804 C81.6298794,35.4916021 80.2627144,33.4444268 78.6357557,32.0551794 L77.9550959,31.4732412 L78.6357557,30.8913031 C80.2627144,29.5020557 81.6298794,27.4548804 82.5898175,24.9706021 L83.303601,23.124767 L84.0167351,24.9706021 C84.9766732,27.4548804 86.3444876,29.5020557 87.9714464,30.8913031 L88.6521062,31.4732412 L87.9714464,32.0551794 C86.3444876,33.4444268 84.9773227,35.4916021 84.0167351,37.9758804 L83.303601,39.8217155 Z" id="Fill-30" fill="#2F5266"></path>
                <path d="M35.8357639,71.6141134 C33.482032,71.6141134 31.5673515,73.5287938 31.5673515,75.8825258 C31.5673515,78.2362577 33.482032,80.1515876 35.8357639,80.1515876 C38.1894959,80.1515876 40.1041763,78.2362577 40.1041763,75.8825258 C40.1041763,73.5287938 38.1894959,71.6141134 35.8357639,71.6141134 M35.8357639,81.6811237 C32.6383515,81.6811237 30.037166,79.0799381 30.037166,75.8825258 C30.037166,72.6851134 32.6383515,70.0845773 35.8357639,70.0845773 C39.0331763,70.0845773 41.6343619,72.6851134 41.6343619,75.8825258 C41.6343619,79.0799381 39.0331763,81.6811237 35.8357639,81.6811237" id="Fill-32" fill="#2F5266"></path>
                <path d="M35.8357639,63.7539866 C35.183032,63.7539866 34.6524031,64.2846155 34.6524031,64.9373474 C34.6524031,65.5900794 35.183032,66.1213577 35.8357639,66.1213577 C36.4884959,66.1213577 37.0191247,65.5900794 37.0191247,64.9373474 C37.0191247,64.2846155 36.4884959,63.7539866 35.8357639,63.7539866 M35.8357639,67.6508938 C34.3393515,67.6508938 33.1222175,66.4337598 33.1222175,64.9373474 C33.1222175,63.4415845 34.3393515,62.2244505 35.8357639,62.2244505 C37.3321763,62.2244505 38.5493103,63.4415845 38.5493103,64.9373474 C38.5493103,66.4337598 37.3321763,67.6508938 35.8357639,67.6508938" id="Fill-34" fill="#2F5266"></path>
                <path d="M35.8357639,76.6476186 C35.413599,76.6476186 35.0706711,76.3053402 35.0706711,75.8825258 L35.0706711,66.885866 C35.0706711,66.463701 35.413599,66.1207732 35.8357639,66.1207732 C36.2579289,66.1207732 36.6008567,66.463701 36.6008567,66.885866 L36.6008567,75.8825258 C36.6008567,76.3053402 36.2579289,76.6476186 35.8357639,76.6476186" id="Fill-36" fill="#2F5266"></path>
                <path d="M109.675336,103.109632 L58.7641918,103.109632 C58.3420268,103.109632 57.9997485,102.767354 57.9997485,102.344539 C57.9997485,101.922374 58.3420268,101.580096 58.7641918,101.580096 L109.675336,101.580096 C111.650419,101.580096 113.256594,99.9732711 113.256594,97.9988381 L113.256594,53.0759412 C113.256594,51.1015082 111.650419,49.495333 109.675336,49.495333 L54.9328825,49.495333 C52.9578,49.495333 51.3516247,51.1015082 51.3516247,53.0759412 L51.3516247,57.0475392 C51.3516247,57.4697041 51.0093464,57.8119825 50.586532,57.8119825 C50.164367,57.8119825 49.8220887,57.4697041 49.8220887,57.0475392 L49.8220887,53.0759412 C49.8220887,50.2578278 52.1147691,47.9651474 54.9328825,47.9651474 L109.675336,47.9651474 C112.493449,47.9651474 114.78613,50.2578278 114.78613,53.0759412 L114.78613,97.9988381 C114.78613,100.816952 112.493449,103.109632 109.675336,103.109632" id="Fill-38" fill="#2F5266"></path>
                <path d="M52.4664649,69.0161753 C51.8520526,69.0161753 51.3519495,69.5162784 51.3519495,70.1306907 L51.3519495,75.789 C51.3519495,76.4040619 51.8520526,76.9041649 52.4664649,76.9041649 C53.0808773,76.9041649 53.5809804,76.4040619 53.5809804,75.789 L53.5809804,70.1306907 C53.5809804,69.5162784 53.0808773,69.0161753 52.4664649,69.0161753 M52.4664649,78.433701 C51.0083722,78.433701 49.8217639,77.2470928 49.8217639,75.789 L49.8217639,70.1306907 C49.8217639,68.6725979 51.0083722,67.4866392 52.4664649,67.4866392 C53.9245577,67.4866392 55.111166,68.6725979 55.111166,70.1306907 L55.111166,75.789 C55.111166,77.2470928 53.9245577,78.433701 52.4664649,78.433701" id="Fill-40" fill="#2F5266"></path>
                <path d="M141.966863,33.4127969 C141.697327,33.4127969 141.436234,33.2699103 141.296595,33.0179103 C141.092657,32.6477041 141.226451,32.1826732 141.596657,31.9787351 L145.849481,29.6289 C146.218389,29.4249619 146.684069,29.5587557 146.888657,29.9289619 C147.092595,30.2985186 146.958801,30.7635495 146.588595,30.9681371 L142.33577,33.3173227 C142.218863,33.3822711 142.091564,33.4127969 141.966863,33.4127969" id="Fill-42" fill="#2F5266"></path>
                <path d="M141.966863,28.3888392 C141.697327,28.3888392 141.436234,28.2459526 141.296595,27.9939526 C141.092657,27.6237464 141.226451,27.1587155 141.596657,26.9547773 L154.266152,19.955932 C154.636358,19.7526433 155.101389,19.8851381 155.305976,20.2553443 C155.509914,20.624901 155.376121,21.0905814 155.005914,21.2945196 L142.33577,28.2933649 C142.218863,28.3583134 142.091564,28.3888392 141.966863,28.3888392" id="Fill-44" fill="#2F5266"></path>
                <path d="M136.617513,26.320166 C136.347977,26.320166 136.086885,26.1772794 135.947245,25.9252794 C135.743307,25.5550732 135.877101,25.0900423 136.247307,24.8861041 L141.596462,21.9309495 C141.966668,21.7270113 142.431699,21.8608052 142.635637,22.2303619 C142.840225,22.5999186 142.705781,23.065599 142.336225,23.2695371 L136.986421,26.2246918 C136.869513,26.2896402 136.742864,26.320166 136.617513,26.320166" id="Fill-46" fill="#2F5266"></path>
                <path d="M149.652148,27.4192237 C149.236478,27.6491412 149.085148,28.1726258 149.315066,28.5882959 C149.544984,29.003966 150.068468,29.1552959 150.484138,28.9253784 C150.899808,28.6954608 151.051138,28.1719763 150.821221,27.7563062 C150.591303,27.3406361 150.067819,27.1893062 149.652148,27.4192237" id="Fill-48" fill="#2F5266"></path>
                <path d="M152.83196,25.6626928 C152.41629,25.8926103 152.26496,26.4160948 152.494877,26.8317649 C152.724795,27.2474351 153.248279,27.3987649 153.663949,27.1688474 C154.07962,26.9389299 154.230949,26.4154454 154.001032,25.9997753 C153.771114,25.5841052 153.24763,25.4327753 152.83196,25.6626928" id="Fill-50" fill="#2F5266"></path>
                <path d="M157.790385,17.8998588 C157.374714,18.1297763 157.223385,18.6532608 157.453302,19.0689309 C157.68322,19.484601 158.206704,19.6359309 158.622374,19.4060134 C159.038044,19.1760959 159.189374,18.6526113 158.959457,18.2369412 C158.729539,17.8212711 158.206055,17.6699412 157.790385,17.8998588" id="Fill-52" fill="#2F5266"></path>
                <g id="Group-56" transform="translate(160.422680, 15.691546)">
                    <mask id="mask-4" fill="white">
                        <use xlink:href="#path-3"></use>
                    </mask>
                    <g id="Clip-55"></g>
                    <path d="M0.547515464,0.451781443 C0.131845361,0.681698969 -0.0194845361,1.20518351 0.21043299,1.62085361 C0.440350515,2.03652371 0.963835052,2.18785361 1.37950515,1.95793608 C1.79517526,1.72801856 1.94650515,1.20453402 1.71658763,0.788863918 C1.4866701,0.373193814 0.963185567,0.221863918 0.547515464,0.451781443" id="Fill-54" fill="#2F5266" mask="url(#mask-4)"></path>
                </g>
                <path d="M145.399519,19.7208186 C144.983848,19.9507361 144.832519,20.4742206 145.062436,20.8898907 C145.292354,21.3055608 145.815838,21.4568907 146.231508,21.2269732 C146.647178,20.9970557 146.798508,20.4735711 146.568591,20.057901 C146.338673,19.6422309 145.815189,19.490901 145.399519,19.7208186" id="Fill-57" fill="#2F5266"></path>
                <path d="M148.57933,17.9642876 C148.16366,18.1942052 148.01233,18.7176897 148.242247,19.1333598 C148.472165,19.5490299 148.995649,19.7003598 149.41132,19.4704423 C149.82699,19.2405247 149.97832,18.7170402 149.748402,18.3013701 C149.518485,17.8857 148.995,17.7343701 148.57933,17.9642876" id="Fill-59" fill="#2F5266"></path>
                <path d="M77.3926423,123.840789 C76.9769722,124.070706 76.8256423,124.594191 77.0555598,125.009861 C77.2854773,125.425531 77.8089619,125.576861 78.224632,125.346943 C78.6403021,125.117026 78.791632,124.593541 78.5617144,124.177871 C78.3317969,123.762201 77.8083124,123.610871 77.3926423,123.840789" id="Fill-61" fill="#2F5266"></path>
                <path d="M78.7896835,72.9561433 C78.3740134,73.1860608 78.2226835,73.7095454 78.452601,74.1252155 C78.6825186,74.5408856 79.2060031,74.6922155 79.6216732,74.4622979 C80.0373433,74.2323804 80.1886732,73.7088959 79.9587557,73.2932258 C79.7288381,72.8775557 79.2053536,72.7262258 78.7896835,72.9561433" id="Fill-63" fill="#2F5266"></path>
                <path d="M82.8869567,68.0092794 C81.426266,68.0092794 79.9662247,68.5652381 78.8543072,69.6765062 C76.6311216,71.9003412 76.6311216,75.5186196 78.8543072,77.7418052 C79.9318021,78.8193 81.363266,79.4122794 82.8869567,79.4122794 C84.4099979,79.4122794 85.8421113,78.8193 86.9196062,77.7418052 C89.1427918,75.5186196 89.1427918,71.9003412 86.9196062,69.6765062 C85.8076887,68.5652381 84.3476474,68.0092794 82.8869567,68.0092794 M82.8869567,80.9418155 C80.9547402,80.9418155 79.1387814,80.1890629 77.7729155,78.8231969 C76.4070495,77.4573309 75.6542969,75.6407227 75.6542969,73.7091557 C75.6542969,71.7775887 76.4070495,69.9609804 77.7729155,68.5951144 C80.5929773,65.7757021 85.1809361,65.7757021 88.0009979,68.5951144 C89.3668639,69.9609804 90.1196165,71.7775887 90.1196165,73.7091557 C90.1196165,75.6407227 89.3668639,77.4573309 88.0009979,78.8231969 C86.635132,80.1890629 84.8185237,80.9418155 82.8869567,80.9418155" id="Fill-65" fill="#2F5266"></path>
                <path d="M73.9816144,84.8857454 C73.5477588,84.8857454 73.2028825,84.752601 72.9398412,84.4895598 C72.3877794,83.9381474 71.9740577,82.7541371 74.7395629,78.8591784 C74.9844186,78.515601 75.4617897,78.4344155 75.8060165,78.6786216 C76.1502433,78.9228278 76.2314289,79.400199 75.9865732,79.7444258 C74.4713258,81.878632 74.1017691,82.9801577 74.0692948,83.366601 C75.0714495,83.3295804 78.9826454,81.0778175 84.6188722,75.4415907 C90.2557485,69.8053639 92.5068619,65.8935186 92.5438825,64.8913639 C92.1457485,64.9238381 90.9935629,65.3167763 88.7456969,66.9352918 C88.4034186,67.1827454 87.9260474,67.1048072 87.6785938,66.7618794 C87.4317897,66.4189515 87.5097278,65.9415804 87.8520062,65.6941268 C91.8892021,62.7863845 93.1037381,63.1994567 93.6674907,63.7625598 C94.497532,64.592601 94.0292536,66.2325495 92.1938103,68.9233639 C90.6636247,71.167333 88.3573052,73.8665907 85.7002639,76.5229825 C83.0438722,79.1793742 80.3452639,81.4856938 78.1012948,83.0165289 C76.2632536,84.270034 74.9155732,84.8857454 73.9816144,84.8857454" id="Fill-67" fill="#2F5266"></path>
                <path d="M102.323886,40.9906577 C101.901721,40.9906577 101.558793,40.6483794 101.558793,40.2255649 L101.558793,34.0554619 C101.558793,33.6332969 101.901721,33.2910186 102.323886,33.2910186 C102.746051,33.2910186 103.088978,33.6332969 103.088978,34.0554619 L103.088978,40.2255649 C103.088978,40.6483794 102.746051,40.9906577 102.323886,40.9906577" id="Fill-69" fill="#2F5266"></path>
                <path d="M105.408937,37.9056062 L99.238834,37.9056062 C98.8166691,37.9056062 98.4737412,37.5633278 98.4737412,37.1405134 C98.4737412,36.7183485 98.8166691,36.3760701 99.238834,36.3760701 L105.408937,36.3760701 C105.831102,36.3760701 106.17403,36.7183485 106.17403,37.1405134 C106.17403,37.5633278 105.831102,37.9056062 105.408937,37.9056062" id="Fill-71" fill="#2F5266"></path>
                <path d="M112.874242,7.69983402 C112.452077,7.69983402 112.109149,7.35755567 112.109149,6.93474124 L112.109149,0.764638144 C112.109149,0.342473196 112.452077,0.000194845361 112.874242,0.000194845361 C113.296407,0.000194845361 113.639335,0.342473196 113.639335,0.764638144 L113.639335,6.93474124 C113.639335,7.35755567 113.296407,7.69983402 112.874242,7.69983402" id="Fill-73" fill="#2F5266"></path>
                <path d="M115.959294,4.61478247 L109.789191,4.61478247 C109.367026,4.61478247 109.024098,4.27250412 109.024098,3.84968969 C109.024098,3.42752474 109.367026,3.08524639 109.789191,3.08524639 L115.959294,3.08524639 C116.381459,3.08524639 116.724387,3.42752474 116.724387,3.84968969 C116.724387,4.27250412 116.381459,4.61478247 115.959294,4.61478247" id="Fill-75" fill="#2F5266"></path>
            </g>
        </g>
    </g>
</svg>