<?xml version="1.0" encoding="UTF-8"?>
<svg width="119px" height="158px" viewBox="0 0 119 158" version="1.1" xmlns="http://www.w3.org/2000/svg" xmlns:xlink="http://www.w3.org/1999/xlink">
    <!-- Generator: Sketch 43.2 (39069) - http://www.bohemiancoding.com/sketch -->
    <title>Page 1</title>
    <desc>Created with Sketch.</desc>
    <defs>
        <polygon id="path-1" points="0.612370724 2.10715152 2.06406025 2.10715152 2.06406025 0.649724187 0.612370724 0.649724187"></polygon>
        <polygon id="path-3" points="9.47996846e-21 0.103952808 9.47996846e-21 1.75806675 8.2930409 1.75806675 8.2930409 0.103952808 0 0.103952808"></polygon>
    </defs>
    <g id="Documentation-2" stroke="none" stroke-width="1" fill="none" fill-rule="evenodd">
        <g id="Page-1">
            <path d="M56.2279743,109.88739 C55.8236643,109.88739 55.4711172,109.588174 55.4130589,109.175172 L41.7714448,11.5648904 L50.1318474,10.3862903 L63.774161,107.997275 C63.8371158,108.44961 63.5237406,108.867528 63.0732638,108.930743 C62.6199889,108.992553 62.205886,108.678587 62.1429311,108.226954 L48.7293535,12.2546313 L43.6314106,12.97317 L57.0442887,108.945493 C57.107943,109.397828 56.7938683,109.815746 56.3433915,109.878961 C56.3049191,109.88458 56.2657472,109.88739 56.2279743,109.88739" id="Fill-1" fill="#2F5266"></path>
            <path d="M59.5143568,53.7299053 C59.1100468,53.7299053 58.7574997,53.4306898 58.6994414,53.0176881 C58.6364865,52.5653529 58.9505612,52.1474345 59.4010381,52.0835176 L106.075755,45.5063953 L115.898109,32.3942938 L102.860862,22.5026222 L51.9954505,29.6704493 C51.5449737,29.7329615 51.1280728,29.4182935 51.0651179,28.9666607 C51.0021631,28.5143255 51.3162378,28.0957047 51.7667146,28.0324902 L103.308541,20.7691389 L118.202956,32.0697925 L106.981606,47.0495326 L59.629774,53.7214767 C59.5913016,53.7270958 59.5521297,53.7299053 59.5143568,53.7299053" id="Fill-3" fill="#2F5266"></path>
            <path d="M27.6410914,69.5338928 L12.3234796,58.2936443 L23.9680263,43.2542015 L46.5863008,40.0667837 C47.0311817,40.0000572 47.4529791,40.3189395 47.5166335,40.7712747 C47.5795883,41.2236099 47.2655136,41.6415282 46.8150368,41.7047428 L24.8584875,44.7987436 L14.6653996,57.9635239 L28.0733813,67.8025167 L42.7460557,65.7354011 C43.1937345,65.6686746 43.612734,65.9868545 43.6756888,66.4391897 C43.7393431,66.8915248 43.4252684,67.3094432 42.9747916,67.3733602 L27.6410914,69.5338928 Z" id="Fill-5" fill="#2F5266"></path>
            <path d="M36.8469774,100.628144 C36.6105471,100.628144 36.3748162,100.644299 36.1390853,100.677311 C33.8860015,100.994789 31.965879,102.819582 30.8494798,105.641058 L42.5856607,103.987646 C40.9313475,101.834137 38.8769212,100.628144 36.8469774,100.628144 L36.8469774,100.628144 Z M28.4977668,107.642852 L28.8482154,106.418597 C30.0401604,102.252758 32.6800666,99.4944969 35.9103493,99.0393522 C39.1420311,98.5828027 42.4345691,100.506632 44.7226278,104.181504 L45.3948455,105.261771 L28.4977668,107.642852 Z" id="Fill-7" fill="#2F5266"></path>
            <path d="M26.296446,107.953095 C25.4493536,111.202322 25.2695826,114.824516 25.7788173,118.466376 C26.3517063,122.566893 27.7318163,126.343611 29.7792476,129.422862 L50.1332464,126.555028 C51.25734,123.028359 51.5490308,119.016343 50.9761417,114.915826 C50.4669071,111.273966 49.301543,107.841416 47.5961664,104.951809 L26.296446,107.953095 Z M29.003504,131.202702 L28.7139118,130.788296 C26.3614993,127.422472 24.7820324,123.241181 24.1475875,118.696056 C23.5795949,114.632765 23.8237198,110.582117 24.8533812,106.980996 L25.0009753,106.464743 L48.4327663,103.163539 L48.7167625,103.618684 C50.694244,106.795566 52.039379,110.622153 52.6073716,114.685444 C53.2425159,119.23057 52.8703829,123.687195 51.5315433,127.573485 L51.3664617,128.051106 L29.003504,131.202702 Z" id="Fill-9" fill="#2F5266"></path>
            <path d="M34.554442,130.420457 C34.0326164,131.137591 33.5737455,131.941118 33.1820265,132.821908 L47.7938446,130.763221 C47.1754882,130.024313 46.5137629,129.378822 45.8163632,128.833772 L34.554442,130.420457 Z M30.6799214,134.844773 L31.1199058,133.567839 C31.7004893,131.881416 32.4853263,130.392362 33.4513333,129.142119 L33.6562863,128.876618 L46.2563475,127.100991 L46.5256544,127.299766 C47.7966426,128.233936 48.9592086,129.448358 49.9811755,130.910019 L50.754121,132.016273 L30.6799214,134.844773 Z" id="Fill-11" fill="#2F5266"></path>
            <path d="M39.1432202,144.775076 C38.7389103,144.775076 38.3863632,144.47586 38.3283048,144.062859 L37.27556,136.526982 C37.2119057,136.073945 37.5259804,135.656026 37.9764572,135.592812 C38.4220376,135.528895 38.8431355,135.844265 38.9067898,136.296601 L39.9595346,143.832477 C40.023189,144.285514 39.7091143,144.703433 39.2586374,144.766647 C39.220165,144.772266 39.1816926,144.775076 39.1432202,144.775076" id="Fill-13" fill="#2F5266"></path>
            <path d="M44.2278727,154.360157 C43.8235627,154.360157 43.4710156,154.060941 43.4129573,153.64794 L40.9486251,136.008974 C40.8849708,135.556639 41.1990454,135.138018 41.6495223,135.074804 C42.0986001,135.008077 42.5162006,135.326257 42.5798549,135.778592 L45.0441871,153.417558 C45.1078414,153.870595 44.7937667,154.288514 44.3432899,154.351728 C44.3048175,154.357347 44.2663451,154.360157 44.2278727,154.360157" id="Fill-15" fill="#2F5266"></path>
            <path d="M46.4889307,143.739973 C46.0846207,143.739973 45.7320736,143.440757 45.6740153,143.027756 L44.6212705,135.491879 C44.5583156,135.038842 44.8716908,134.620923 45.3228672,134.557709 C45.7740435,134.492387 46.1895455,134.809162 46.2525003,135.261497 L47.3052451,142.797374 C47.3688994,143.250411 47.0548247,143.66833 46.6043479,143.731544 C46.565176,143.737163 46.5267036,143.739973 46.4889307,143.739973" id="Fill-17" fill="#2F5266"></path>
            <path d="M35.3229807,93.9318276 C35.2817103,93.9318276 35.2397404,93.9346372 35.1977705,93.9409586 C34.9599411,93.974673 34.7500917,94.0982926 34.605995,94.2907458 C34.4618984,94.4824965 34.4010421,94.7199023 34.4339185,94.9580104 C34.5031688,95.4503815 34.9536456,95.7924424 35.4474914,95.7250136 C35.9371401,95.6561799 36.2798943,95.1996304 36.2113434,94.7072594 C36.1476891,94.2577337 35.7629651,93.9318276 35.3229807,93.9318276 M35.3208822,97.3875561 C34.0729774,97.3875561 32.9810607,96.463219 32.8026887,95.1876899 C32.7082564,94.5119967 32.881732,93.8398153 33.2909384,93.2947655 C33.7001449,92.7497156 34.2961173,92.3971189 34.9690346,92.3029995 C36.362435,92.1084392 37.6474132,93.0826456 37.8425732,94.4775799 C38.0370337,95.8732165 37.0654307,97.1670076 35.6762273,97.3629727 C35.5566131,97.3798299 35.4376984,97.3875561 35.3208822,97.3875561" id="Fill-19" fill="#2F5266"></path>
            <path d="M44.7750901,1.65474608 C44.7338197,1.65474608 44.6918498,1.65755562 44.64988,1.66317469 C44.1602312,1.73271069 43.8174771,2.1885578 43.8860279,2.68092887 C43.9196038,2.91903699 44.043415,3.13045453 44.2350775,3.2751456 C44.42674,3.41983667 44.6631704,3.48094406 44.8996008,3.44793202 C45.3892496,3.37909841 45.7320037,2.92254891 45.6634529,2.43017784 C45.600498,1.98065219 45.2150745,1.65474608 44.7750901,1.65474608 M44.7694942,5.11117695 C44.2203881,5.11117695 43.6887694,4.93347384 43.2431891,4.59562722 C42.7003785,4.18473267 42.3499298,3.58630164 42.2547981,2.91060839 C42.0603376,1.51567408 43.0319406,0.221180671 44.421144,0.0252155798 C45.8117465,-0.171451895 47.1002222,0.806266408 47.2946827,2.20049833 L47.2946827,2.20049833 C47.4891432,3.59543263 46.5175402,4.88992604 45.1283367,5.08589114 C45.008023,5.10274835 44.8884088,5.11117695 44.7694942,5.11117695" id="Fill-21" fill="#2F5266"></path>
            <path d="M40.3782543,147.534882 C40.3222944,147.136631 39.9557573,146.858487 39.5584424,146.914677 C39.1618269,146.970166 38.8855251,147.338917 38.9407854,147.737169 C38.9967453,148.136123 39.3632824,148.413565 39.7605973,148.358076 C40.1572128,148.301886 40.4342141,147.933134 40.3782543,147.534882" id="Fill-23" fill="#2F5266"></path>
            <path d="M40.8040388,150.581613 C40.748079,150.183361 40.3815419,149.905217 39.9842269,149.961408 C39.5876114,150.016896 39.3113096,150.385648 39.36657,150.783899 C39.4225298,151.182853 39.7890669,151.460295 40.1863819,151.404807 C40.5829974,151.348616 40.8599987,150.979864 40.8040388,150.581613" id="Fill-25" fill="#2F5266"></path>
            <g id="Group-29" transform="translate(43.368889, 155.575211)">
                <mask id="mask-2" fill="white">
                    <use xlink:href="#path-1"></use>
                </mask>
                <g id="Clip-28"></g>
                <path d="M2.05687448,1.27714453 C2.00091462,0.878892897 1.63437756,0.600748897 1.23706258,0.656939604 C0.840447097,0.712427927 0.564145305,1.08117944 0.619405663,1.47943108 C0.67536552,1.8783851 1.04190258,2.15582672 1.43921756,2.10033839 C1.83583305,2.04414768 2.11283434,1.67539617 2.05687448,1.27714453" id="Fill-27" fill="#2F5266" mask="url(#mask-2)"></path>
            </g>
            <path d="M47.7242445,146.499709 C47.6682847,146.101457 47.3017476,145.823313 46.9044326,145.879504 C46.5078171,145.934992 46.2315154,146.303744 46.2867757,146.701996 C46.3427356,147.10095 46.7092726,147.378391 47.1065876,147.322903 C47.5032031,147.266712 47.7802044,146.897961 47.7242445,146.499709" id="Fill-30" fill="#2F5266"></path>
            <path d="M48.1500291,149.546439 C48.0940692,149.148188 47.7275322,148.870044 47.3302172,148.926235 C46.9336017,148.981723 46.6572999,149.350474 46.7125603,149.748726 C46.7685201,150.14768 47.1350572,150.425122 47.5323722,150.369633 C47.9289877,150.313443 48.2059889,149.944691 48.1500291,149.546439" id="Fill-32" fill="#2F5266"></path>
            <path d="M80.8668194,94.4249713 C80.630389,94.4249713 80.3946581,94.4411261 80.1589272,94.4741382 C77.9058435,94.7916157 75.9857209,96.6164089 74.8693217,99.4378848 L86.6055027,97.7844732 C84.9511894,95.6309644 82.8967632,94.4249713 80.8668194,94.4249713 L80.8668194,94.4249713 Z M72.5169093,101.439679 L72.8673579,100.215424 C74.0600023,96.0495851 76.6999085,93.2913238 79.9301913,92.8361791 C83.1625725,92.3775224 86.4544111,94.3034589 88.7424697,97.9783312 L89.4146875,99.0585975 L72.5169093,101.439679 Z" id="Fill-34" fill="#2F5266"></path>
            <path d="M70.3159382,101.749922 C69.4688458,104.998447 69.2890748,108.62064 69.7983095,112.263203 C70.371898,116.364422 71.752008,120.140438 73.7987397,123.219688 L94.1527386,120.351855 C95.2775317,116.825186 95.5692225,112.813169 94.9956339,108.712653 C94.4863992,105.07009 93.3210352,101.63754 91.6163581,98.7486355 L70.3159382,101.749922 Z M73.0236957,124.999529 L72.7341035,124.585123 C70.381691,121.220002 68.802224,117.038711 68.1670797,112.492882 C67.5990871,108.428187 67.843212,104.37754 68.8735728,100.777822 L69.021167,100.26157 L92.4529579,96.9603663 L92.7362547,97.415511 C94.7137361,100.591691 96.0588712,104.418278 96.6268637,108.482271 C97.2620081,113.027397 96.8905746,117.484022 95.551735,121.370312 L95.3866534,121.847933 L73.0236957,124.999529 Z" id="Fill-36" fill="#2F5266"></path>
            <path d="M78.5743539,124.217284 C78.0525282,124.934418 77.5936574,125.737945 77.2019384,126.618735 L91.8137565,124.560048 C91.1954001,123.82114 90.5336748,123.175649 89.836275,122.630599 L78.5743539,124.217284 Z M74.6991338,128.642302 L75.1391182,127.364666 C75.7211007,125.67754 76.5052382,124.188486 77.4712452,122.938946 L77.6761982,122.673445 L90.2762594,120.897818 L90.5455662,121.096593 C91.817254,122.030763 92.9791205,123.245887 94.0003879,124.706846 L94.7733334,125.8131 L74.6991338,128.642302 Z" id="Fill-38" fill="#2F5266"></path>
            <path d="M83.1627823,138.572254 C82.7584724,138.572254 82.4059253,138.273038 82.3478669,137.860037 L81.2951221,130.323458 C81.2314678,129.871123 81.5455425,129.453205 81.9960193,129.389288 C82.4450972,129.323264 82.8626976,129.641443 82.9263519,130.093779 L83.9790967,137.629655 C84.0427511,138.082692 83.7286764,138.500611 83.2781995,138.563825 C83.2397271,138.569444 83.2005552,138.572254 83.1627823,138.572254" id="Fill-40" fill="#2F5266"></path>
            <path d="M88.2477846,148.156633 C87.8434746,148.156633 87.4909275,147.857417 87.4328691,147.444415 L84.9678375,129.80545 C84.9048826,129.353115 85.2182578,128.935196 85.6687347,128.87128 C86.1164135,128.807363 86.5361124,129.122733 86.5990673,129.575771 L89.064099,147.214033 C89.1277533,147.667071 88.8136786,148.084989 88.3632018,148.148204 C88.3247294,148.153823 88.2855575,148.156633 88.2477846,148.156633" id="Fill-42" fill="#2F5266"></path>
            <path d="M90.5088426,137.537221 C90.1045326,137.537221 89.7519855,137.238006 89.6939272,136.825004 L88.6411824,129.287723 C88.577528,128.835388 88.8916027,128.417469 89.3420796,128.354255 C89.7911574,128.287528 90.2087578,128.605708 90.2724122,129.058043 L91.325157,136.594622 C91.3888113,137.04766 91.0747366,137.465578 90.6242598,137.528792 C90.5857874,137.534412 90.5466155,137.537221 90.5088426,137.537221" id="Fill-44" fill="#2F5266"></path>
            <path d="M79.3442216,87.7286545 C79.3022517,87.7286545 79.2595823,87.731464 79.2176124,87.7377855 C78.9797831,87.7714999 78.7699336,87.8951195 78.625837,88.0875727 C78.4817403,88.2793234 78.420884,88.5167292 78.4537604,88.7548373 C78.4873363,88.9929454 78.6111475,89.204363 78.8021105,89.349054 C78.993773,89.4937451 79.2295039,89.5555549 79.4666338,89.5218405 C79.7044632,89.488126 79.9143127,89.3638041 80.0584093,89.1720533 C80.2032054,88.9796001 80.2633623,88.7428968 80.2304858,88.5040863 C80.1969099,88.2659781 80.0730988,88.055263 79.8821357,87.9105719 C79.7247486,87.7911667 79.5372831,87.7286545 79.3442216,87.7286545 M79.3365271,91.1850854 C78.7881205,91.1850854 78.2565019,91.0073823 77.8109215,90.6695356 C77.2674114,90.2593435 76.9169628,89.6602101 76.8225306,88.9845168 C76.7280983,88.3088236 76.9008744,87.6366422 77.3100808,87.0915924 C77.7192873,86.5465425 78.3152598,86.1946482 78.9888765,86.0998264 C79.6603948,86.0064093 80.3312136,86.1784934 80.8740242,86.5893879 C81.4168348,87.0002825 81.7672834,87.5987135 81.8617157,88.2744068 C81.9561479,88.9501 81.7833719,89.6222813 81.3741654,90.1673312 C80.964959,90.7130834 80.3689865,91.0649777 79.6953697,91.1597996 C79.5757555,91.1766568 79.4554418,91.1850854 79.3365271,91.1850854" id="Fill-46" fill="#2F5266"></path>
            <path d="M84.3980262,141.33185 C84.3420664,140.933598 83.9755293,140.655454 83.5782143,140.711645 C83.1815988,140.767133 82.905297,141.135885 82.9605574,141.534136 C83.0165173,141.93309 83.3830543,142.210532 83.7803693,142.155044 C84.1769848,142.098853 84.4539861,141.730101 84.3980262,141.33185" id="Fill-48" fill="#2F5266"></path>
            <path d="M84.8238108,144.37858 C84.7678509,143.980329 84.4013139,143.702185 84.0039989,143.758375 C83.6073834,143.813864 83.3310816,144.182615 83.386342,144.580867 C83.4423018,144.979821 83.8088389,145.257262 84.2061539,145.201774 C84.6027693,145.145583 84.8797706,144.776832 84.8238108,144.37858" id="Fill-50" fill="#2F5266"></path>
            <path d="M89.4455353,150.649252 C89.3895755,150.251001 89.0230384,149.972857 88.6257234,150.029047 C88.229108,150.084536 87.9528062,150.453287 88.0080665,150.851539 C88.0640264,151.250493 88.4305634,151.527935 88.8278784,151.472446 C89.2244939,151.416255 89.5014952,151.047504 89.4455353,150.649252" id="Fill-52" fill="#2F5266"></path>
            <path d="M89.8713199,153.695983 C89.81536,153.297731 89.448823,153.019587 89.051508,153.075778 C88.6548925,153.131266 88.3785907,153.500018 88.4338511,153.898269 C88.4898109,154.297223 88.856348,154.574665 89.253663,154.519177 C89.6502785,154.462986 89.9272798,154.094234 89.8713199,153.695983" id="Fill-54" fill="#2F5266"></path>
            <path d="M91.7439466,140.296676 C91.6879867,139.898425 91.3214496,139.620281 90.9241347,139.676472 C90.5275192,139.73196 90.2512174,140.100711 90.3064777,140.498963 C90.3624376,140.897917 90.7289747,141.175359 91.1262896,141.11987 C91.5229051,141.06368 91.7999064,140.694928 91.7439466,140.296676" id="Fill-56" fill="#2F5266"></path>
            <path d="M92.1698011,143.343407 C92.1138412,142.945155 91.7473041,142.667011 91.3499892,142.723202 C90.9533737,142.77869 90.6770719,143.147442 90.7323322,143.545693 C90.7882921,143.944647 91.1548292,144.222089 91.5521441,144.166601 C91.9487596,144.11041 92.2257609,143.741658 92.1698011,143.343407" id="Fill-58" fill="#2F5266"></path>
            <path d="M51.0965254,110.661065 C50.6922154,110.661065 50.3396683,110.36185 50.28161,109.948848 C50.2186551,109.496513 50.5327298,109.078595 50.9832067,109.014678 L68.1740746,106.592156 C68.621054,106.524727 69.0407529,106.843609 69.1044073,107.295944 C69.1673621,107.748982 68.8532874,108.1669 68.4028106,108.230115 L51.2119426,110.652637 C51.1727707,110.658256 51.1349978,110.661065 51.0965254,110.661065" id="Fill-60" fill="#2F5266"></path>
            <path d="M51.9876162,122.090255 C51.5833062,122.090255 51.2307591,121.79104 51.1727007,121.378038 C51.1097459,120.925703 51.4238206,120.507784 51.8742974,120.443868 L70.4508714,117.826083 C70.8985502,117.760059 71.3175496,118.077536 71.3805045,118.530574 C71.4434593,118.982909 71.1300841,119.400828 70.6796073,119.464042 L52.1030334,122.081827 C52.0638615,122.087446 52.0260886,122.090255 51.9876162,122.090255" id="Fill-62" fill="#2F5266"></path>
            <path d="M72.138131,34.0960996 L69.8801508,40.8129963 L76.1301673,39.9322069 L72.138131,34.0960996 Z M69.4611513,42.1517399 L68.2936888,45.5259918 C68.039771,46.3140665 66.658262,45.9797318 66.9044854,45.1326569 L71.2392758,32.4356642 C71.3218166,32.158925 71.5820299,32.0008886 71.8401447,31.9643647 C72.0982596,31.9278407 72.3535764,32.0135315 72.528451,32.2537468 L80.148085,43.2053156 C80.7832293,43.989176 79.3849324,44.6950717 78.9001802,43.970914 L76.9206002,41.1009736 L69.4611513,42.1517399 Z" id="Fill-64" fill="#2F5266"></path>
            <path d="M83.032256,38.5127594 L86.5829089,38.0119598 C89.2214161,37.6403987 90.0957889,35.9329036 89.8439695,34.4241831 C89.5963472,32.7939502 88.0756381,31.3217537 85.7742889,31.646255 L82.1431937,32.1575905 L83.032256,38.5127594 Z M83.2127265,39.8079552 L83.6611049,43.0150398 C83.789113,43.9316507 82.3572402,44.1128658 82.234828,43.2362907 L80.6308786,31.761446 C80.5728203,31.3435276 80.8708065,31.0169191 81.268821,30.9614308 L85.573533,30.3545712 C89.0052712,29.8706287 90.9330882,31.9356372 91.2534584,34.2254085 C91.5871191,36.6170255 90.2356885,38.8182964 86.7633794,39.3071556 L83.2127265,39.8079552 Z" id="Fill-66" fill="#2F5266"></path>
            <path d="M93.1306318,29.5745037 C92.9914317,28.577821 94.4820623,28.3888797 94.6184645,29.3644909 L96.2832702,41.2769208 C96.4105789,42.1935317 94.9290417,42.4435803 94.7954375,41.4869336 L93.1306318,29.5745037 Z" id="Fill-68" fill="#2F5266"></path>
            <path d="M18.1935986,78.019673 C17.7459198,78.2683168 17.5829367,78.8344382 17.8305591,79.2839639 C18.0781814,79.7334895 18.641977,79.897145 19.0896558,79.6485011 C19.5373347,79.3998572 19.7003178,78.8337358 19.4526954,78.3842102 C19.205073,77.9346845 18.6412775,77.7710291 18.1935986,78.019673" id="Fill-70" fill="#2F5266"></path>
            <path d="M80.4036117,63.7565048 C79.9559328,64.0051487 79.7929497,64.5712701 80.0405721,65.0207957 C80.2881945,65.4703214 80.85199,65.6339768 81.2996689,65.3853329 C81.7473477,65.1366891 81.9103308,64.5705677 81.6627084,64.121042 C81.4150861,63.6715164 80.8512905,63.5078609 80.4036117,63.7565048" id="Fill-72" fill="#2F5266"></path>
            <path d="M88.7046268,3.46921425 C88.256948,3.71785813 88.0939649,4.28397951 88.3415873,4.73350516 C88.5892096,5.18303082 89.1530052,5.34668625 89.600684,5.09804238 C90.0483629,4.8493985 90.211346,4.28327712 89.9637236,3.83375147 C89.7161012,3.38422581 89.1523057,3.22057038 88.7046268,3.46921425" id="Fill-74" fill="#2F5266"></path>
            <path d="M100.317556,72.8188016 C99.8628824,72.8188016 99.4935473,72.4486453 99.4935473,71.9913934 L99.4935473,65.318747 C99.4935473,64.8621975 99.8628824,64.4920412 100.317556,64.4920412 C100.77223,64.4920412 101.141565,64.8621975 101.141565,65.318747 L101.141565,71.9913934 C101.141565,72.4486453 100.77223,72.8188016 100.317556,72.8188016" id="Fill-76" fill="#2F5266"></path>
            <path d="M103.640173,69.4824784 L96.9949397,69.4824784 C96.5402659,69.4824784 96.1709308,69.1123221 96.1709308,68.6550702 C96.1709308,68.1985207 96.5402659,67.8283644 96.9949397,67.8283644 L103.640173,67.8283644 C104.094847,67.8283644 104.464182,68.1985207 104.464182,68.6550702 C104.464182,69.1123221 104.094847,69.4824784 103.640173,69.4824784" id="Fill-78" fill="#2F5266"></path>
            <path d="M13.4943697,28.9894179 C13.0396958,28.9894179 12.6703608,28.6192616 12.6703608,28.1620098 L12.6703608,21.4893633 C12.6703608,21.0328138 13.0396958,20.6626575 13.4943697,20.6626575 C13.9490435,20.6626575 14.3183786,21.0328138 14.3183786,21.4893633 L14.3183786,28.1620098 C14.3183786,28.6192616 13.9490435,28.9894179 13.4943697,28.9894179" id="Fill-80" fill="#2F5266"></path>
            <path d="M16.8169862,25.6530947 L10.1717532,25.6530947 C9.71707935,25.6530947 9.3477443,25.2829384 9.3477443,24.8256865 C9.3477443,24.369137 9.71707935,23.9989808 10.1717532,23.9989808 L16.8169862,23.9989808 C17.27166,23.9989808 17.6409951,24.369137 17.6409951,24.8256865 C17.6409951,25.2829384 17.27166,25.6530947 16.8169862,25.6530947" id="Fill-82" fill="#2F5266"></path>
            <path d="M4.14641553,93.943136 C3.69174169,93.943136 3.32240664,93.5729797 3.32240664,93.1157278 L3.32240664,86.4430814 C3.32240664,85.9865319 3.69174169,85.6163756 4.14641553,85.6163756 C4.60108936,85.6163756 4.97042442,85.9865319 4.97042442,86.4430814 L4.97042442,93.1157278 C4.97042442,93.5729797 4.60108936,93.943136 4.14641553,93.943136" id="Fill-84" fill="#2F5266"></path>
            <g id="Group-88" transform="translate(0.000000, 88.848746)">
                <mask id="mask-4" fill="white">
                    <use xlink:href="#path-3"></use>
                </mask>
                <g id="Clip-87"></g>
                <path d="M7.46903201,1.75806675 L0.823799039,1.75806675 C0.369125204,1.75806675 -0.000209849462,1.38791046 -0.000209849462,0.930658586 C-0.000209849462,0.474109091 0.369125204,0.103952808 0.823799039,0.103952808 L7.46903201,0.103952808 C7.92370585,0.103952808 8.2930409,0.474109091 8.2930409,0.930658586 C8.2930409,1.38791046 7.92370585,1.75806675 7.46903201,1.75806675" id="Fill-86" fill="#2F5266" mask="url(#mask-4)"></path>
            </g>
        </g>
    </g>
</svg>