<?xml version="1.0" encoding="UTF-8"?>
<svg width="160px" height="160px" viewBox="0 0 160 160" version="1.1" xmlns="http://www.w3.org/2000/svg" xmlns:xlink="http://www.w3.org/1999/xlink">
    <!-- Generator: Sketch 43.2 (39069) - http://www.bohemiancoding.com/sketch -->
    <title>Group 10</title>
    <desc>Created with Sketch.</desc>
    <defs>
        <polygon id="path-1" points="22.8450414 0.549 0.648122543 0.549 0.648122543 22.7456 22.8450414 22.7456 22.8450414 0.549"></polygon>
        <polygon id="path-3" points="33.912 17.3304 33.912 0.6644 0.7522 0.6644 0.7522 17.3304 33.912 17.3304"></polygon>
    </defs>
    <g id="Design-1" stroke="none" stroke-width="1" fill="none" fill-rule="evenodd">
        <g id="Group-10">
            <circle id="Oval-1-Copy-2" fill="#FFFEF3" cx="80" cy="80" r="80"></circle>
            <g id="Page-1" transform="translate(14.000000, 33.000000)">
                <path d="M89.4422,93.4514 L53.5112,93.4514 C49.8312,93.4514 46.8202,90.4404 46.8202,86.7604 L46.8202,45.8064 C46.8202,42.1254 49.8312,39.1144 53.5112,39.1144 L89.4422,39.1144 C93.1222,39.1144 96.1332,42.1254 96.1332,45.8064 L96.1332,86.7604 C96.1332,90.4404 93.1222,93.4514 89.4422,93.4514" id="Fill-1" fill="#E14E3A"></path>
                <path d="M50.5117,36.2922 C47.4717,36.2922 44.9977,38.7662 44.9977,41.8062 L44.9977,82.7602 C44.9977,85.8002 47.4717,88.2732 50.5117,88.2732 L86.4427,88.2732 C89.4827,88.2732 91.9557,85.8002 91.9557,82.7602 L91.9557,41.8062 C91.9557,38.7662 89.4827,36.2922 86.4427,36.2922 L50.5117,36.2922 Z M86.4427,90.6292 L50.5117,90.6292 C46.1727,90.6292 42.6427,87.0992 42.6427,82.7602 L42.6427,41.8062 C42.6427,37.4672 46.1727,33.9372 50.5117,33.9372 L86.4427,33.9372 C90.7817,33.9372 94.3117,37.4672 94.3117,41.8062 L94.3117,82.7602 C94.3117,87.0992 90.7817,90.6292 86.4427,90.6292 L86.4427,90.6292 Z" id="Fill-3" fill="#2F5266"></path>
                <path d="M57.7638,80.4389 C57.7638,81.9819 56.5128,83.2339 54.9688,83.2339 C53.4258,83.2339 52.1748,81.9819 52.1748,80.4389 C52.1748,78.8959 53.4258,77.6439 54.9688,77.6439 C56.5128,77.6439 57.7638,78.8959 57.7638,80.4389" id="Fill-5" fill="#2F5266"></path>
                <path d="M54.9688,78.8118 C54.0728,78.8118 53.3428,79.5408 53.3428,80.4388 C53.3428,81.3358 54.0728,82.0658 54.9688,82.0658 C55.8658,82.0658 56.5958,81.3358 56.5958,80.4388 C56.5958,79.5408 55.8658,78.8118 54.9688,78.8118 M54.9688,84.4018 C52.7838,84.4018 51.0068,82.6238 51.0068,80.4388 C51.0068,78.2538 52.7838,76.4758 54.9688,76.4758 C57.1538,76.4758 58.9318,78.2538 58.9318,80.4388 C58.9318,82.6238 57.1538,84.4018 54.9688,84.4018" id="Fill-7" fill="#FEFEFE"></path>
                <path d="M57.7638,62.283 C57.7638,63.826 56.5128,65.078 54.9688,65.078 C53.4258,65.078 52.1748,63.826 52.1748,62.283 C52.1748,60.74 53.4258,59.488 54.9688,59.488 C56.5128,59.488 57.7638,60.74 57.7638,62.283" id="Fill-9" fill="#2F5266"></path>
                <path d="M54.9688,60.6565 C54.0728,60.6565 53.3428,61.3855 53.3428,62.2835 C53.3428,63.1795 54.0728,63.9095 54.9688,63.9095 C55.8658,63.9095 56.5958,63.1795 56.5958,62.2835 C56.5958,61.3855 55.8658,60.6565 54.9688,60.6565 M54.9688,66.2455 C52.7838,66.2455 51.0068,64.4685 51.0068,62.2835 C51.0068,60.0985 52.7838,58.3205 54.9688,58.3205 C57.1538,58.3205 58.9318,60.0985 58.9318,62.2835 C58.9318,64.4685 57.1538,66.2455 54.9688,66.2455" id="Fill-11" fill="#FEFEFE"></path>
                <path d="M57.7638,44.1271 C57.7638,45.6701 56.5128,46.9221 54.9688,46.9221 C53.4258,46.9221 52.1748,45.6701 52.1748,44.1271 C52.1748,42.5841 53.4258,41.3321 54.9688,41.3321 C56.5128,41.3321 57.7638,42.5841 57.7638,44.1271" id="Fill-13" fill="#2F5266"></path>
                <path d="M54.9688,42.5002 C54.0728,42.5002 53.3428,43.2292 53.3428,44.1272 C53.3428,45.0242 54.0728,45.7542 54.9688,45.7542 C55.8658,45.7542 56.5958,45.0242 56.5958,44.1272 C56.5958,43.2292 55.8658,42.5002 54.9688,42.5002 M54.9688,48.0902 C52.7838,48.0902 51.0068,46.3122 51.0068,44.1272 C51.0068,41.9422 52.7838,40.1642 54.9688,40.1642 C57.1538,40.1642 58.9318,41.9422 58.9318,44.1272 C58.9318,46.3122 57.1538,48.0902 54.9688,48.0902" id="Fill-15" fill="#FEFEFE"></path>
                <path d="M93.1338,72.425 L43.8208,72.425 C43.1698,72.425 42.6428,71.898 42.6428,71.247 C42.6428,70.597 43.1698,70.07 43.8208,70.07 L93.1338,70.07 C93.7838,70.07 94.3118,70.597 94.3118,71.247 C94.3118,71.898 93.7838,72.425 93.1338,72.425" id="Fill-17" fill="#2F5266"></path>
                <path d="M93.1338,54.3586 L43.8208,54.3586 C43.1698,54.3586 42.6428,53.8316 42.6428,53.1806 C42.6428,52.5306 43.1698,52.0036 43.8208,52.0036 L93.1338,52.0036 C93.7838,52.0036 94.3118,52.5306 94.3118,53.1806 C94.3118,53.8316 93.7838,54.3586 93.1338,54.3586" id="Fill-19" fill="#2F5266"></path>
                <path d="M27.583,19.2512 L37.463,28.8962 L47.343,19.2512 L47.343,3.8632 L27.583,3.8632 L27.583,19.2512 Z M37.463,31.7192 C37.166,31.7192 36.869,31.6062 36.641,31.3842 L25.583,20.5902 C25.355,20.3682 25.228,20.0642 25.228,19.7472 L25.228,2.6862 C25.228,2.0352 25.755,1.5082 26.405,1.5082 L48.52,1.5082 C49.171,1.5082 49.698,2.0352 49.698,2.6862 L49.698,19.7472 C49.698,20.0642 49.57,20.3682 49.343,20.5902 L38.285,31.3842 C38.057,31.6062 37.76,31.7192 37.463,31.7192 L37.463,31.7192 Z" id="Fill-21" fill="#6E8898"></path>
                <polygon id="Fill-23" fill="#E14E3A" points="30.076 6.3496 37.463 6.3496 37.463 24.9586 30.076 17.7476"></polygon>
                <g id="Group-27" transform="translate(82.000000, 0.451400)">
                    <mask id="mask-2" fill="white">
                        <use xlink:href="#path-1"></use>
                    </mask>
                    <g id="Clip-26"></g>
                    <path d="M3.3574,7.4766 L17.6334,19.9556 L20.0564,17.5336 L7.5774,3.2556 L3.0834,2.9816 L3.3574,7.4766 Z M17.6874,22.7456 C17.4114,22.7456 17.1344,22.6486 16.9124,22.4546 L1.4364,8.9256 C1.2004,8.7186 1.0554,8.4246 1.0364,8.1116 L0.6504,1.7976 C0.6294,1.4606 0.7544,1.1316 0.9934,0.8926 C1.2314,0.6556 1.5604,0.5356 1.8974,0.5496 L8.2114,0.9346 C8.5254,0.9546 8.8194,1.0986 9.0264,1.3346 L22.5544,16.8116 C22.9614,17.2786 22.9384,17.9816 22.5014,18.4196 L18.5204,22.4006 C18.2914,22.6286 17.9894,22.7456 17.6874,22.7456 L17.6874,22.7456 Z" id="Fill-25" fill="#6E8898" mask="url(#mask-2)"></path>
                </g>
                <path d="M101.6777,21.2063 C101.3757,21.2063 101.0747,21.0913 100.8447,20.8613 L86.9957,7.0133 C86.5367,6.5533 86.5367,5.8073 86.9957,5.3473 C87.4567,4.8883 88.2007,4.8883 88.6617,5.3473 L102.5107,19.1953 C102.9697,19.6553 102.9697,20.4013 102.5107,20.8613 C102.2807,21.0913 101.9797,21.2063 101.6777,21.2063" id="Fill-28" fill="#6E8898"></path>
                <path d="M98.4199,24.9514 L100.0009,26.5324 L108.1819,18.3514 L106.6009,16.7704 L98.4199,24.9514 Z M100.0009,29.3754 C99.6989,29.3754 99.3989,29.2604 99.1679,29.0304 L95.9219,25.7844 C95.4629,25.3244 95.4629,24.5784 95.9219,24.1184 L105.7679,14.2724 C106.2289,13.8134 106.9729,13.8134 107.4339,14.2724 L110.6799,17.5184 C111.1389,17.9784 111.1389,18.7244 110.6799,19.1844 L100.8339,29.0304 C100.6039,29.2604 100.3029,29.3754 100.0009,29.3754 L100.0009,29.3754 Z" id="Fill-30" fill="#2F5266"></path>
                <path d="M105.1006,24.7629 L110.2126,29.8749 L111.5256,28.5639 L106.4126,23.4509 L105.1006,24.7629 Z M110.2126,32.7179 C109.9116,32.7179 109.6106,32.6029 109.3796,32.3729 L102.6026,25.5959 C102.1436,25.1359 102.1436,24.3899 102.6026,23.9309 L105.5796,20.9529 C106.0206,20.5099 106.8016,20.5109 107.2456,20.9519 L114.0236,27.7309 C114.2446,27.9519 114.3686,28.2509 114.3686,28.5639 C114.3686,28.8759 114.2446,29.1759 114.0226,29.3969 L111.0446,32.3729 C110.8156,32.6029 110.5146,32.7179 110.2126,32.7179 L110.2126,32.7179 Z" id="Fill-32" fill="#2F5266"></path>
                <g id="Group-36" transform="translate(99.000000, 54.451400)">
                    <mask id="mask-4" fill="white">
                        <use xlink:href="#path-3"></use>
                    </mask>
                    <g id="Clip-35"></g>
                    <path d="M16.2402,7.8194 L18.4232,7.8194 C19.0732,7.8194 19.6002,8.3464 19.6002,8.9974 C19.6002,12.2934 22.2822,14.9744 25.5792,14.9744 C28.8752,14.9744 31.5562,12.2934 31.5562,8.9974 C31.5562,5.7014 28.8752,3.0194 25.5792,3.0194 L9.0852,3.0194 C5.7892,3.0194 3.1072,5.7014 3.1072,8.9974 C3.1072,12.2934 5.7892,14.9744 9.0852,14.9744 C12.3812,14.9744 15.0622,12.2934 15.0622,8.9974 C15.0622,8.3464 15.5902,7.8194 16.2402,7.8194 M25.5792,17.3304 C21.3912,17.3304 17.9152,14.2254 17.3322,10.1974 C16.7482,14.2254 13.2722,17.3304 9.0852,17.3304 C4.4902,17.3304 0.7522,13.5914 0.7522,8.9974 C0.7522,4.4024 4.4902,0.6644 9.0852,0.6644 L25.5792,0.6644 C30.1742,0.6644 33.9122,4.4024 33.9122,8.9974 C33.9122,13.5914 30.1742,17.3304 25.5792,17.3304" id="Fill-34" fill="#2F5266" mask="url(#mask-4)"></path>
                </g>
                <path d="M107.8369,67.0325 C107.1869,67.0325 106.6589,66.5055 106.6589,65.8545 L106.6589,60.6045 C106.6589,59.9545 107.1869,59.4275 107.8369,59.4275 C108.4869,59.4275 109.0149,59.9545 109.0149,60.6045 L109.0149,65.8545 C109.0149,66.5055 108.4869,67.0325 107.8369,67.0325" id="Fill-37" fill="#2F5266"></path>
                <path d="M110.4619,64.4075 L105.2109,64.4075 C104.5609,64.4075 104.0329,63.8805 104.0329,63.2295 C104.0329,62.5795 104.5609,62.0525 105.2109,62.0525 L110.4619,62.0525 C111.1119,62.0525 111.6399,62.5795 111.6399,63.2295 C111.6399,63.8805 111.1119,64.4075 110.4619,64.4075" id="Fill-39" fill="#2F5266"></path>
                <path d="M124.6915,61.9287 L124.6915,61.9287 C124.0355,61.9287 123.4985,61.3917 123.4985,60.7357 C123.4985,60.0787 124.0355,59.5417 124.6915,59.5417 C125.3475,59.5417 125.8845,60.0787 125.8845,60.7357 L125.8845,60.7357 C125.8845,61.3917 125.3475,61.9287 124.6915,61.9287" id="Fill-41" fill="#E14E3A"></path>
                <path d="M124.6915,67.5174 L124.6915,67.5174 C124.0355,67.5174 123.4985,66.9804 123.4985,66.3244 L123.4985,66.3244 C123.4985,65.6674 124.0355,65.1304 124.6915,65.1304 C125.3475,65.1304 125.8845,65.6674 125.8845,66.3244 L125.8845,66.3244 C125.8845,66.9804 125.3475,67.5174 124.6915,67.5174" id="Fill-43" fill="#E14E3A"></path>
                <path d="M127.6287,64.7231 L127.6287,64.7231 C126.9727,64.7231 126.4357,64.1861 126.4357,63.5301 L126.4357,63.5301 C126.4357,62.8731 126.9727,62.3361 127.6287,62.3361 L127.6287,62.3361 C128.2847,62.3361 128.8217,62.8731 128.8217,63.5301 L128.8217,63.5301 C128.8217,64.1861 128.2847,64.7231 127.6287,64.7231" id="Fill-45" fill="#E14E3A"></path>
                <path d="M121.7543,64.7231 L121.7543,64.7231 C121.0983,64.7231 120.5613,64.1861 120.5613,63.5301 L120.5613,63.5301 C120.5613,62.8731 121.0983,62.3361 121.7543,62.3361 L121.7543,62.3361 C122.4103,62.3361 122.9473,62.8731 122.9473,63.5301 L122.9473,63.5301 C122.9473,64.1861 122.4103,64.7231 121.7543,64.7231" id="Fill-47" fill="#E14E3A"></path>
                <path d="M77.0986,47.9084 C76.4486,47.9084 75.9206,47.3814 75.9206,46.7304 L75.9206,41.5234 C75.9206,40.8734 76.4486,40.3464 77.0986,40.3464 C77.7486,40.3464 78.2766,40.8734 78.2766,41.5234 L78.2766,46.7304 C78.2766,47.3814 77.7486,47.9084 77.0986,47.9084" id="Fill-49" fill="#2F5266"></path>
                <path d="M80.8418,47.9084 C80.1918,47.9084 79.6638,47.3814 79.6638,46.7304 L79.6638,41.5234 C79.6638,40.8734 80.1918,40.3464 80.8418,40.3464 C81.4918,40.3464 82.0198,40.8734 82.0198,41.5234 L82.0198,46.7304 C82.0198,47.3814 81.4918,47.9084 80.8418,47.9084" id="Fill-51" fill="#2F5266"></path>
                <path d="M84.5859,47.9084 C83.9359,47.9084 83.4079,47.3814 83.4079,46.7304 L83.4079,41.5234 C83.4079,40.8734 83.9359,40.3464 84.5859,40.3464 C85.2359,40.3464 85.7639,40.8734 85.7639,41.5234 L85.7639,46.7304 C85.7639,47.3814 85.2359,47.9084 84.5859,47.9084" id="Fill-53" fill="#2F5266"></path>
                <path d="M77.0986,66.0647 C76.4486,66.0647 75.9206,65.5377 75.9206,64.8867 L75.9206,59.6787 C75.9206,59.0287 76.4486,58.5017 77.0986,58.5017 C77.7486,58.5017 78.2766,59.0287 78.2766,59.6787 L78.2766,64.8867 C78.2766,65.5377 77.7486,66.0647 77.0986,66.0647" id="Fill-55" fill="#2F5266"></path>
                <path d="M80.8418,66.0647 C80.1918,66.0647 79.6638,65.5377 79.6638,64.8867 L79.6638,59.6787 C79.6638,59.0287 80.1918,58.5017 80.8418,58.5017 C81.4918,58.5017 82.0198,59.0287 82.0198,59.6787 L82.0198,64.8867 C82.0198,65.5377 81.4918,66.0647 80.8418,66.0647" id="Fill-57" fill="#2F5266"></path>
                <path d="M84.5859,66.0647 C83.9359,66.0647 83.4079,65.5377 83.4079,64.8867 L83.4079,59.6787 C83.4079,59.0287 83.9359,58.5017 84.5859,58.5017 C85.2359,58.5017 85.7639,59.0287 85.7639,59.6787 L85.7639,64.8867 C85.7639,65.5377 85.2359,66.0647 84.5859,66.0647" id="Fill-59" fill="#2F5266"></path>
                <path d="M77.0986,84.2209 C76.4486,84.2209 75.9206,83.6939 75.9206,83.0429 L75.9206,77.8349 C75.9206,77.1849 76.4486,76.6579 77.0986,76.6579 C77.7486,76.6579 78.2766,77.1849 78.2766,77.8349 L78.2766,83.0429 C78.2766,83.6939 77.7486,84.2209 77.0986,84.2209" id="Fill-61" fill="#2F5266"></path>
                <path d="M80.8418,84.2209 C80.1918,84.2209 79.6638,83.6939 79.6638,83.0429 L79.6638,77.8349 C79.6638,77.1849 80.1918,76.6579 80.8418,76.6579 C81.4918,76.6579 82.0198,77.1849 82.0198,77.8349 L82.0198,83.0429 C82.0198,83.6939 81.4918,84.2209 80.8418,84.2209" id="Fill-63" fill="#2F5266"></path>
                <path d="M84.5859,84.2209 C83.9359,84.2209 83.4079,83.6939 83.4079,83.0429 L83.4079,77.8349 C83.4079,77.1849 83.9359,76.6579 84.5859,76.6579 C85.2359,76.6579 85.7639,77.1849 85.7639,77.8349 L85.7639,83.0429 C85.7639,83.6939 85.2359,84.2209 84.5859,84.2209" id="Fill-65" fill="#2F5266"></path>
                <path d="M116.332,57.4709 C115.682,57.4709 115.154,56.9439 115.154,56.2929 L115.154,48.6259 C115.154,48.4499 115.011,48.3059 114.834,48.3059 L106.709,48.3059 C106.532,48.3059 106.389,48.4499 106.389,48.6259 L106.389,50.5919 C106.389,52.0669 105.188,53.2669 103.714,53.2669 L98.22,53.2669 C97.569,53.2669 97.042,52.7399 97.042,52.0889 C97.042,51.4389 97.569,50.9109 98.22,50.9109 L103.714,50.9109 C103.89,50.9109 104.033,50.7679 104.033,50.5919 L104.033,48.6259 C104.033,47.1509 105.233,45.9499 106.709,45.9499 L114.834,45.9499 C116.31,45.9499 117.51,47.1509 117.51,48.6259 L117.51,56.2929 C117.51,56.9439 116.982,57.4709 116.332,57.4709" id="Fill-67" fill="#2F5266"></path>
                <path d="M75.6631,31.5432 C75.0131,31.5432 74.4851,31.0162 74.4851,30.3652 L74.4851,28.1602 C74.4851,26.6862 75.6851,25.4852 77.1611,25.4852 L81.5801,25.4852 C81.7561,25.4852 81.8991,25.3422 81.8991,25.1652 L81.8991,21.5262 C81.8991,20.0512 83.1001,18.8512 84.5751,18.8512 L92.2291,18.8512 C92.8801,18.8512 93.4071,19.3782 93.4071,20.0282 C93.4071,20.6792 92.8801,21.2062 92.2291,21.2062 L84.5751,21.2062 C84.3981,21.2062 84.2551,21.3502 84.2551,21.5262 L84.2551,25.1652 C84.2551,26.6412 83.0551,27.8412 81.5801,27.8412 L77.1611,27.8412 C76.9841,27.8412 76.8411,27.9842 76.8411,28.1602 L76.8411,30.3652 C76.8411,31.0162 76.3131,31.5432 75.6631,31.5432" id="Fill-69" fill="#2F5266"></path>
                <path d="M39.6602,42.3059 L32.1722,42.3059 C30.6972,42.3059 29.4972,41.1059 29.4972,39.6309 L29.4972,30.3659 C29.4972,29.7149 30.0242,29.1879 30.6752,29.1879 C31.3252,29.1879 31.8522,29.7149 31.8522,30.3659 L31.8522,39.6309 C31.8522,39.8069 31.9962,39.9509 32.1722,39.9509 L39.6602,39.9509 C40.3102,39.9509 40.8382,40.4779 40.8382,41.1279 C40.8382,41.7789 40.3102,42.3059 39.6602,42.3059" id="Fill-71" fill="#2F5266"></path>
                <path d="M5.2637,52.2532 C5.8437,56.7922 9.7317,60.3122 14.4257,60.3122 C19.1197,60.3122 23.0087,56.7922 23.5887,52.2532 L5.2637,52.2532 Z M14.4257,62.6672 C8.0347,62.6672 2.8337,57.4672 2.8337,51.0752 C2.8337,50.4252 3.3617,49.8982 4.0117,49.8982 L24.8407,49.8982 C25.4917,49.8982 26.0187,50.4252 26.0187,51.0752 C26.0187,57.4672 20.8187,62.6672 14.4257,62.6672 L14.4257,62.6672 Z" id="Fill-73" fill="#6E8898"></path>
                <path d="M14.4258,74.801 C13.7758,74.801 13.2478,74.274 13.2478,73.623 L13.2478,61.489 C13.2478,60.839 13.7758,60.312 14.4258,60.312 C15.0758,60.312 15.6038,60.839 15.6038,61.489 L15.6038,73.623 C15.6038,74.274 15.0758,74.801 14.4258,74.801" id="Fill-75" fill="#6E8898"></path>
                <path d="M20.2646,75.47 L8.5876,75.47 C7.9376,75.47 7.4106,74.943 7.4106,74.292 C7.4106,73.642 7.9376,73.115 8.5876,73.115 L20.2646,73.115 C20.9146,73.115 21.4426,73.642 21.4426,74.292 C21.4426,74.943 20.9146,75.47 20.2646,75.47" id="Fill-77" fill="#6E8898"></path>
                <path d="M3.8281,60.0627 C1.7181,60.0627 0.0001,58.3447 0.0001,56.2347 C0.0001,54.1237 1.7181,52.4057 3.8281,52.4057 C4.4781,52.4057 5.0061,52.9327 5.0061,53.5837 C5.0061,54.2337 4.4781,54.7607 3.8281,54.7607 C3.0161,54.7607 2.3551,55.4217 2.3551,56.2347 C2.3551,57.0467 3.0161,57.7077 3.8281,57.7077 C4.4781,57.7077 5.0061,58.2347 5.0061,58.8847 C5.0061,59.5357 4.4781,60.0627 3.8281,60.0627" id="Fill-79" fill="#6E8898"></path>
                <path d="M25.0234,60.0627 C24.3734,60.0627 23.8454,59.5357 23.8454,58.8847 C23.8454,58.2347 24.3734,57.7077 25.0234,57.7077 C25.8354,57.7077 26.4974,57.0467 26.4974,56.2347 C26.4974,55.4217 25.8354,54.7607 25.0234,54.7607 C24.3734,54.7607 23.8454,54.2337 23.8454,53.5837 C23.8454,52.9327 24.3734,52.4057 25.0234,52.4057 C27.1344,52.4057 28.8524,54.1237 28.8524,56.2347 C28.8524,58.3447 27.1344,60.0627 25.0234,60.0627" id="Fill-81" fill="#6E8898"></path>
                <path d="M30.9248,69.302 L20.2538,69.302 C19.6038,69.302 19.0758,68.775 19.0758,68.124 C19.0758,67.474 19.6038,66.947 20.2538,66.947 L30.9248,66.947 C31.1008,66.947 31.2438,66.803 31.2438,66.626 L31.2438,61.822 C31.2438,60.346 32.4448,59.146 33.9188,59.146 L39.6598,59.146 C40.3108,59.146 40.8378,59.673 40.8378,60.323 C40.8378,60.974 40.3108,61.501 39.6598,61.501 L33.9188,61.501 C33.7428,61.501 33.5998,61.645 33.5998,61.822 L33.5998,66.626 C33.5998,68.102 32.3998,69.302 30.9248,69.302" id="Fill-83" fill="#2F5266"></path>
            </g>
        </g>
    </g>
</svg>